<?xml version="1.0" encoding="UTF-8"?>
<!DOCTYPE svg PUBLIC "-//W3C//DTD SVG 1.1//EN" "http://www.w3.org/Graphics/SVG/1.1/DTD/svg11.dtd">
<!-- Creator: CorelDRAW -->
<svg xmlns="http://www.w3.org/2000/svg" xml:space="preserve" width="32.0762mm" height="12.1762mm" version="1.1" style="shape-rendering:geometricPrecision; text-rendering:geometricPrecision; image-rendering:optimizeQuality; fill-rule:evenodd; clip-rule:evenodd"
viewBox="0 0 658.82 250.09"
 xmlns:xlink="http://www.w3.org/1999/xlink"
 xmlns:xodm="http://www.corel.com/coreldraw/odm/2003">
 <defs>
  <style type="text/css">
   <![CDATA[
    .str0 {stroke:#2B2A29;stroke-width:1.57;stroke-miterlimit:22.9256}
    .fil0 {fill:none}
    .fil5 {fill:#2B2A29}
    .fil4 {fill:#E31E24}
    .fil6 {fill:#A6C724}
    .fil1 {fill:#2B2A29;fill-rule:nonzero}
    .fil2 {fill:#E31E24;fill-rule:nonzero}
    .fil3 {fill:#A6C724;fill-rule:nonzero}
   ]]>
  </style>
 </defs>
 <g id="Слой_x0020_1">
  <metadata id="CorelCorpID_0Corel-Layer"/>
  <rect class="fil0 str0" x="0.78" y="0.78" width="657.26" height="248.53"/>
  <g id="_2198285808896">
   <g>
    <path class="fil1" d="M232.48 169.94l0 -56.83c0,-10.72 2.56,-19.11 7.66,-25.17 5.1,-6.04 12.17,-9.07 21.18,-9.07 7.92,0 14.58,2.39 19.96,7.19 5.38,4.8 8.07,10.65 8.07,17.53 0,3.8 -0.85,7.24 -2.54,10.31 -1.69,3.05 -4.22,5.74 -7.6,8.03 4.53,1.96 8.07,4.87 10.59,8.69 2.52,3.84 3.78,8.2 3.78,13.07 0,7.79 -2.75,14.11 -8.28,18.98 -5.53,4.85 -12.81,7.28 -21.86,7.28l-14.69 0 0 -11.27 14.81 0c5.42,0 9.69,-1.37 12.81,-4.1 3.1,-2.71 4.65,-6.42 4.65,-11.14 0,-4.53 -1.56,-8.16 -4.7,-10.82 -3.14,-2.69 -7.39,-4.03 -12.77,-4.03l-14.81 0 0 -10.76 10.5 0c5.53,0 9.93,-1.22 13.19,-3.67 3.24,-2.43 4.87,-5.74 4.87,-9.91 0,-4.23 -1.45,-7.69 -4.37,-10.4 -2.9,-2.71 -6.66,-4.08 -11.25,-4.08 -5.44,0 -9.71,1.77 -12.79,5.32 -3.1,3.57 -4.63,8.47 -4.63,14.79l0 60.07 -11.78 0z"/>
    <path class="fil2" d="M363.12 142.81c-1.54,8.75 -5.08,15.69 -10.63,20.77 -5.53,5.1 -12.27,7.64 -20.24,7.64 -2.71,0 -5.38,-0.36 -8.03,-1.09 -2.65,-0.75 -5.14,-1.82 -7.47,-3.22 -4.91,-3.01 -8.73,-6.94 -11.44,-11.78 -2.71,-4.82 -4.06,-10.16 -4.06,-15.95 0,-4.27 0.79,-8.3 2.35,-12.15 1.56,-3.84 3.82,-7.3 6.77,-10.39 2.97,-3.05 6.34,-5.36 10.1,-6.96 3.78,-1.58 7.75,-2.37 11.91,-2.37 6.21,0 11.76,1.64 16.65,4.93 4.91,3.27 8.88,8.05 11.91,14.32l-40.2 22.26 -4.63 -8.32 29.84 -16.63c-1.84,-2.05 -3.91,-3.59 -6.19,-4.63 -2.31,-1.05 -4.8,-1.56 -7.52,-1.56 -5.51,0 -10.16,2.05 -13.94,6.17 -3.78,4.1 -5.66,9.18 -5.66,15.22 0,6 1.9,11.08 5.7,15.2 3.8,4.12 8.41,6.19 13.88,6.19 5.23,0 9.59,-1.73 13.13,-5.17 3.52,-3.44 5.72,-8.17 6.6,-14.17l11.16 1.69z"/>
    <path class="fil3" d="M374.27 169.94l0 -61.35 10.14 0 0 9.05c1.88,-3.59 4.46,-6.19 7.75,-7.79 3.29,-1.6 7.73,-2.41 13.3,-2.41l2.88 0 0 10.63 -1.69 0c-7.54,0 -12.98,1.79 -16.33,5.38 -3.35,3.59 -5.04,9.44 -5.04,17.53l0 28.97 -11.02 0z"/>
    <polygon class="fil1" points="415.92,169.94 415.92,80.41 426.93,80.41 426.93,169.94 "/>
    <path class="fil2" d="M488.95 169.94l0 -30.55c0,-6.42 -1.81,-11.63 -5.44,-15.61 -3.63,-3.99 -8.35,-5.98 -14.15,-5.98 -5.76,0 -10.48,1.96 -14.17,5.91 -3.69,3.93 -5.55,9.01 -5.55,15.22 0,6.34 1.9,11.53 5.7,15.58 3.8,4.04 8.62,6.06 14.52,6.06 2.67,0 5.27,-0.47 7.79,-1.39 2.52,-0.92 5.06,-2.33 7.6,-4.25l0 11.81c-2.5,1.43 -5.15,2.47 -7.9,3.18 -2.77,0.68 -5.68,1.02 -8.73,1.02 -2.9,0 -5.81,-0.45 -8.69,-1.35 -2.86,-0.9 -5.47,-2.15 -7.81,-3.78 -4.42,-3.05 -7.79,-6.87 -10.12,-11.44 -2.33,-4.57 -3.5,-9.65 -3.5,-15.24 0,-9.18 2.9,-16.76 8.69,-22.73 5.79,-6 13.13,-8.99 22.05,-8.99 5.87,0 11.25,1.47 16.12,4.44 4.87,2.97 8.62,7.04 11.25,12.21 1.22,2.35 2.07,4.91 2.58,7.69 0.53,2.77 0.79,6.92 0.79,12.42l0 25.74 -11.02 0z"/>
    <path class="fil3" d="M514.05 169.94l0 -89.53 11.02 0 0 50.44 4.89 0c3.12,0 5.68,-0.64 7.67,-1.94 1.98,-1.28 4.12,-3.84 6.42,-7.62l7.79 -12.7 12.81 0 -8.99 14.58c-1.58,2.62 -3.14,4.78 -4.67,6.49 -1.56,1.71 -3.01,2.92 -4.38,3.63 5.02,0.96 8.73,3.03 11.12,6.23 2.39,3.18 3.59,7.71 3.59,13.53l0 16.89 -11.02 0 0 -15.52c0,-4.42 -0.96,-7.64 -2.9,-9.71 -1.94,-2.07 -5.02,-3.1 -9.24,-3.1l-13.09 0 0 28.33 -11.02 0z"/>
   </g>
   <g>
    <path class="fil4" d="M117.51 91.98c15.07,-3.3 19.66,-13.88 21.64,-26.27 -12.04,-2.92 -27.74,3.28 -24.84,24.63 1.83,-7.87 6.31,-15.84 10.82,-17.55 -1.74,2.24 -8.21,11.43 -7.62,19.19z"/>
    <path class="fil5" d="M169.06 113.92c-14.14,-18.28 -9.24,-34.85 0.39,-50.99 16.64,8.22 28.71,30.45 4.85,52.19 5.46,-10.8 7.98,-24.27 4.45,-30.58 -0.16,4.25 -1.56,21.03 -9.7,29.38z"/>
    <path class="fil5" d="M198.76 107.22c-12.17,2.17 -16.18,10.49 -18.16,20.35 9.55,2.72 22.32,-1.76 20.67,-18.95 -1.72,6.24 -5.55,12.49 -9.22,13.72 1.46,-1.74 6.94,-8.9 6.71,-15.13z"/>
    <path class="fil5" d="M117.8 122.05c-2.34,-9.93 2.65,-15.69 9.47,-20.42 5.18,6.34 5.97,17.48 -7.59,21.86 4.17,-3.34 7.64,-8.29 7.38,-11.47 -0.84,1.68 -4.47,8.17 -9.26,10.03z"/>
    <path class="fil4" d="M113.26 126.31c1.64,-13.63 -5.9,-20.58 -15.73,-25.87 -5.98,9.26 -5.36,24.27 13.42,28.08 -6.07,-3.84 -11.46,-9.94 -11.58,-14.23 1.37,2.12 7.2,10.25 13.89,12.02z"/>
    <path class="fil5" d="M145.2 80.07c-1.21,-10.13 4.4,-15.3 11.71,-19.22 4.44,6.89 3.97,18.04 -10,20.86 4.52,-2.85 8.53,-7.38 8.62,-10.57 -1.02,1.57 -5.36,7.61 -10.34,8.93z"/>
    <path class="fil5" d="M128.78 147.98c-7.07,-7.36 -14.62,-6.29 -22.29,-3.13 2.51,7.8 11.44,14.51 22.48,5.49 -5.07,1.68 -11.11,1.92 -13.64,-0.03 1.86,0.21 9.28,0.68 13.46,-2.33z"/>
    <path class="fil6" d="M166.74 146.28c7.16,-10.08 16.4,-10.14 26.16,-7.72 -1.62,9.79 -11.13,19.42 -25.96,10.59 6.38,1.12 13.66,0.32 16.34,-2.47 -2.2,0.58 -11.01,2.47 -16.54,-0.4zm-7.65 -31.64c-3.58,-14.99 -14.23,-19.38 -26.65,-21.13 -2.69,12.08 3.8,27.65 25.07,24.36 -7.9,-1.69 -15.94,-6.01 -17.74,-10.48 2.27,1.69 11.58,7.99 19.32,7.26zm-49.78 -35.78c5.27,8.74 2.28,15.75 -2.76,22.34 -6.88,-4.45 -11.04,-14.81 0.53,-23.13 -2.94,4.46 -4.73,10.23 -3.51,13.18 0.29,-1.85 1.75,-9.14 5.74,-12.39z"/>
    <path class="fil2" d="M138.47 85.63c2.3,0.04 8.87,-1.42 12.97,-0.56 6.15,1.28 3.3,9.78 -1.79,8.32 -4.03,-1.15 -9.1,-6.61 -11.18,-7.77z"/>
    <path class="fil2" d="M187.48 106.58c0.91,-2.11 2.06,-8.74 4.4,-12.21 3.52,-5.2 10.31,0.66 7.02,4.81 -2.6,3.29 -9.57,5.91 -11.43,7.4z"/>
    <path class="fil2" d="M187.4 134.15c1.5,-0.97 5.12,-4.74 8.14,-5.95 4.52,-1.82 6.35,4.9 2.43,6.15 -3.1,0.99 -8.73,-0.35 -10.57,-0.2z"/>
    <path class="fil2" d="M191.81 78.86c0.37,1.11 2.18,4.02 2.46,6.13 0.42,3.17 -4.14,3.24 -4.3,0.55 -0.13,-2.13 1.64,-5.49 1.84,-6.68z"/>
    <path class="fil2" d="M135.13 119.33c-0.82,1.74 -1.98,7.25 -4.05,10.07 -3.1,4.24 -8.59,-0.86 -5.72,-4.24 2.27,-2.67 8.17,-4.65 9.77,-5.84z"/>
    <path class="fil2" d="M116.42 137.62c-2.24,0.21 -8.48,2.33 -12.56,1.93 -6.12,-0.59 -4.26,-9.17 0.85,-8.3 4.04,0.69 9.57,5.46 11.71,6.36z"/>
    <path class="fil2" d="M113.84 108.55c0.19,-1.67 -0.4,-6.55 0.51,-9.47 1.37,-4.38 7.35,-1.71 5.93,1.89 -1.12,2.85 -5.45,6.15 -6.44,7.58z"/>
    <path class="fil2" d="M170.53 135.35c0.8,-0.97 2.41,-4.27 4.16,-5.73 2.63,-2.19 5.3,1.91 2.95,3.59 -1.86,1.33 -5.91,1.64 -7.11,2.14z"/>
    <path class="fil2" d="M180.86 116.44c-1.03,0.92 -3.33,4.25 -5.48,5.55 -3.23,1.95 -5.45,-2.96 -2.61,-4.4 2.24,-1.14 6.71,-0.81 8.1,-1.15z"/>
    <path class="fil2" d="M170.62 153.07c-0.9,0.57 -3.07,2.79 -4.88,3.5 -2.7,1.06 -3.75,-2.95 -1.41,-3.67 1.85,-0.57 5.19,0.26 6.29,0.18z"/>
    <path class="fil2" d="M143.07 66.05c0.24,-1.1 0.17,-4.4 0.98,-6.29 1.21,-2.83 5.02,-0.65 3.83,1.66 -0.94,1.83 -4.05,3.74 -4.81,4.63z"/>
    <path class="fil6" d="M114.82 128.38c7.63,4.63 14.57,7.64 21.1,9.64 9.09,2.79 14.91,4.05 23.03,-2.42 5.67,-4.52 9.08,-11.49 11.67,-19.33 -3.6,13.75 -7.23,27.48 -12.24,39.82 -6.53,16.07 -11.77,24.94 -25.73,35.57 4.61,-6.66 8.37,-15.02 11.16,-25.31 -10.39,7.71 -26.16,12.52 -39.06,14.83 12.06,-3.74 24.73,-10.27 29.46,-19.56 4.78,-9.39 0.13,-15.83 -6.36,-22.58 -3.8,-3.95 -8.23,-7.43 -13.03,-10.66zm35.32 -0.33c-0.98,-3.76 -3.75,-6.29 -6.2,-5.65 -2.45,0.64 -3.64,4.2 -2.66,7.96 0.98,3.76 3.75,6.29 6.2,5.65 2.45,-0.63 3.64,-4.2 2.66,-7.95z"/>
   </g>
  </g>
 </g>
</svg>
