<svg width="121" height="46" viewBox="0 0 121 46" fill="none" xmlns="http://www.w3.org/2000/svg">
<path d="M42.6362 31.128V20.6704C42.6362 18.6978 43.1073 17.1539 44.0458 16.0388C44.9843 14.9273 46.2852 14.3698 47.9432 14.3698C49.4006 14.3698 50.6262 14.8095 51.6162 15.6928C52.6062 16.5761 53.1012 17.6526 53.1012 18.9186C53.1012 19.6179 52.9447 20.2509 52.6338 20.8158C52.3228 21.377 51.8572 21.872 51.2352 22.2934C52.0688 22.6541 52.7202 23.1896 53.184 23.8925C53.6477 24.5991 53.8795 25.4014 53.8795 26.2976C53.8795 27.7311 53.3735 28.894 52.3559 29.7902C51.3383 30.6827 49.9987 31.1298 48.3333 31.1298H45.6302V29.056H48.3554C49.3528 29.056 50.1385 28.8039 50.7126 28.3015C51.2831 27.8028 51.5683 27.1201 51.5683 26.2516C51.5683 25.418 51.2813 24.75 50.7034 24.2605C50.1256 23.7655 49.3436 23.519 48.3536 23.519H45.6283V21.539H47.5605C48.5781 21.539 49.3877 21.3145 49.9876 20.8636C50.5838 20.4165 50.8838 19.8074 50.8838 19.04C50.8838 18.2617 50.617 17.625 50.0796 17.1263C49.546 16.6276 48.8541 16.3755 48.0095 16.3755C47.0084 16.3755 46.2227 16.7012 45.6559 17.3545C45.0855 18.0114 44.8039 18.9131 44.8039 20.0761V31.1298H42.6362V31.128Z" fill="#2B2A29"/>
<path d="M66.676 26.1357C66.3926 27.7458 65.7412 29.0229 64.7199 29.9577C63.7023 30.8961 62.4621 31.3635 60.9955 31.3635C60.4968 31.3635 60.0055 31.2973 59.5178 31.163C59.0302 31.025 58.572 30.8281 58.1432 30.5704C57.2397 30.0166 56.5368 29.2934 56.0381 28.4027C55.5394 27.5158 55.291 26.5331 55.291 25.4677C55.291 24.682 55.4364 23.9404 55.7235 23.2319C56.0105 22.5253 56.4264 21.8886 56.9692 21.32C57.5158 20.7588 58.1359 20.3337 58.8278 20.0393C59.5234 19.7485 60.2539 19.6031 61.0194 19.6031C62.1621 19.6031 63.1834 19.9049 64.0832 20.5103C64.9868 21.1121 65.7173 21.9917 66.2749 23.1454L58.8775 27.2416L58.0255 25.7106L63.5165 22.6504C63.1779 22.2732 62.797 21.9898 62.3774 21.7984C61.9524 21.6052 61.4942 21.5114 60.9936 21.5114C59.9797 21.5114 59.124 21.8886 58.4285 22.6468C57.7329 23.4012 57.3869 24.336 57.3869 25.4475C57.3869 26.5516 57.7366 27.4863 58.4358 28.2445C59.1351 29.0026 59.9834 29.3835 60.99 29.3835C61.9524 29.3835 62.7547 29.0652 63.4061 28.4322C64.0538 27.7992 64.4586 26.9288 64.6206 25.8247L66.6742 26.1357H66.676Z" fill="#E31E24"/>
<path d="M68.7277 31.128V19.8387H70.5936V21.504C70.9395 20.8434 71.4143 20.365 72.0197 20.0706C72.6251 19.7761 73.4421 19.6271 74.4671 19.6271H74.9971V21.5832H74.6861C73.2986 21.5832 72.2976 21.9125 71.6811 22.5732C71.0647 23.2338 70.7537 24.3103 70.7537 25.7989V31.1298H68.7258L68.7277 31.128Z" fill="#A6C724"/>
<path d="M76.3918 31.1279V14.6531H78.4178V31.1279H76.3918Z" fill="#2B2A29"/>
<path d="M89.8304 31.128V25.5064C89.8304 24.325 89.4974 23.3663 88.8294 22.6339C88.1614 21.8997 87.2929 21.5335 86.2256 21.5335C85.1656 21.5335 84.2971 21.8942 83.6181 22.621C82.9391 23.3442 82.5968 24.279 82.5968 25.4217C82.5968 26.5884 82.9464 27.5434 83.6457 28.2887C84.3449 29.0321 85.2319 29.4038 86.3176 29.4038C86.8089 29.4038 87.2873 29.3173 87.7511 29.148C88.2148 28.9787 88.6822 28.7193 89.1496 28.366V30.5392C88.6895 30.8023 88.2019 30.9937 87.6959 31.1244C87.1861 31.2495 86.6506 31.312 86.0894 31.312C85.5558 31.312 85.0203 31.2292 84.4903 31.0636C83.964 30.898 83.4838 30.668 83.0532 30.3681C82.2398 29.8068 81.6197 29.1039 81.1909 28.2629C80.7622 27.422 80.5469 26.4872 80.5469 25.4585C80.5469 23.7693 81.0805 22.3744 82.146 21.2759C83.2114 20.1718 84.5621 19.6216 86.2035 19.6216C87.2837 19.6216 88.2737 19.8921 89.1698 20.4386C90.066 20.9851 90.756 21.7341 91.24 22.6854C91.4645 23.1179 91.6209 23.5889 91.7147 24.1005C91.8123 24.6102 91.8601 25.3739 91.8601 26.386V31.1225H89.8323L89.8304 31.128Z" fill="#E31E24"/>
<path d="M94.4492 31.1279V14.6531H96.4771V23.9348H97.3769C97.951 23.9348 98.4221 23.817 98.7883 23.5778C99.1526 23.3423 99.5464 22.8712 99.9697 22.1756L101.403 19.8386H103.76L102.106 22.5216C101.815 23.0037 101.528 23.4011 101.247 23.7158C100.96 24.0305 100.693 24.2531 100.441 24.3838C101.364 24.5604 102.047 24.9413 102.487 25.5302C102.927 26.1154 103.148 26.949 103.148 28.0199V31.1279H101.12V28.272C101.12 27.4587 100.943 26.8661 100.586 26.4852C100.229 26.1043 99.6624 25.9148 98.8858 25.9148H96.4771V31.1279H94.4492Z" fill="#A6C724"/>
<path fill-rule="evenodd" clip-rule="evenodd" d="M21.48 16.7821C24.2531 16.1749 25.0977 14.228 25.4621 11.948C23.2465 11.4107 20.3575 12.5516 20.8912 16.4803C21.2279 15.0321 22.0523 13.5655 22.8822 13.2509C22.562 13.6631 21.3714 15.3542 21.48 16.7821Z" fill="#E31E24"/>
<path fill-rule="evenodd" clip-rule="evenodd" d="M30.9661 20.8194C28.3641 17.4557 29.2658 14.4065 31.0378 11.4365C34.0998 12.9491 36.3209 17.0398 31.9303 21.0403C32.935 19.0529 33.3987 16.5742 32.7492 15.4131C32.7197 16.1951 32.4621 19.2829 30.9642 20.8194H30.9661Z" fill="#2B2A29"/>
<path fill-rule="evenodd" clip-rule="evenodd" d="M36.4313 19.5866C34.1918 19.9859 33.4539 21.5169 33.0896 23.3313C34.8469 23.8318 37.1968 23.0074 36.8932 19.8442C36.5767 20.9924 35.8719 22.1425 35.1966 22.3689C35.4652 22.0487 36.4736 20.7311 36.4313 19.5847V19.5866Z" fill="#2B2A29"/>
<path fill-rule="evenodd" clip-rule="evenodd" d="M21.5334 22.3154C21.1028 20.4882 22.0211 19.4283 23.276 18.5579C24.2292 19.7245 24.3746 21.7744 21.8794 22.5804C22.6467 21.9658 23.2852 21.0549 23.2374 20.4698C23.0828 20.7789 22.4148 21.9732 21.5334 22.3154Z" fill="#2B2A29"/>
<path fill-rule="evenodd" clip-rule="evenodd" d="M20.698 23.0995C20.9998 20.5913 19.6124 19.3124 17.8035 18.339C16.7031 20.043 16.8172 22.805 20.273 23.5061C19.156 22.7995 18.1642 21.677 18.1421 20.8876C18.3942 21.2777 19.467 22.7737 20.698 23.0995Z" fill="#E31E24"/>
<path fill-rule="evenodd" clip-rule="evenodd" d="M26.5755 14.5906C26.3528 12.7265 27.3852 11.7752 28.7303 11.0538C29.5473 12.3217 29.4608 14.3735 26.8902 14.8924C27.7219 14.3679 28.4598 13.5344 28.4764 12.9473C28.2887 13.2362 27.49 14.3477 26.5736 14.5906H26.5755Z" fill="#2B2A29"/>
<path fill-rule="evenodd" clip-rule="evenodd" d="M23.5538 27.0869C22.2529 25.7326 20.8635 25.9295 19.4521 26.511C19.914 27.9463 21.5573 29.181 23.5888 27.5212C22.6558 27.8304 21.5444 27.8745 21.0788 27.5157C21.4211 27.5543 22.7865 27.6408 23.5557 27.0869H23.5538Z" fill="#2B2A29"/>
<path fill-rule="evenodd" clip-rule="evenodd" d="M30.5391 26.7742C31.8566 24.9193 33.5569 24.9083 35.3529 25.3536C35.0548 27.1551 33.3048 28.9272 30.5759 27.3023C31.7499 27.5084 33.0895 27.3612 33.5827 26.8478C33.1779 26.9545 31.5567 27.3023 30.5391 26.7742ZM29.1314 20.952C28.4726 18.1936 26.5129 17.3858 24.2274 17.0637C23.7324 19.2866 24.9266 22.1517 28.8406 21.5463C27.3869 21.2353 25.9074 20.4404 25.5762 19.6179C25.9939 19.9288 27.7071 21.0881 29.1314 20.9538V20.952ZM19.9711 14.3679C20.9409 15.9762 20.3907 17.2661 19.4632 18.4788C18.1972 17.6599 17.4317 15.7535 19.5608 14.2225C19.0198 15.0432 18.6904 16.105 18.9149 16.6479C18.9682 16.3074 19.2369 14.966 19.9711 14.3679Z" fill="#A6C724"/>
<path d="M25.3372 15.6136C25.7604 15.621 26.9694 15.3523 27.7238 15.5106C28.8555 15.7461 28.3311 17.3102 27.3944 17.0416C26.6529 16.83 25.7199 15.8252 25.3372 15.6118V15.6136Z" fill="#E31E24"/>
<path d="M34.3556 19.4688C34.5231 19.0806 34.7347 17.8606 35.1653 17.222C35.813 16.2651 37.0625 17.3435 36.457 18.1071C35.9786 18.7125 34.696 19.1947 34.3538 19.4688H34.3556Z" fill="#E31E24"/>
<path d="M34.3408 24.5421C34.6168 24.3636 35.283 23.6698 35.8387 23.4472C36.6704 23.1123 37.0072 24.3488 36.2859 24.5789C35.7154 24.761 34.6794 24.5144 34.3408 24.5421Z" fill="#E31E24"/>
<path d="M35.1523 14.3679C35.2204 14.5722 35.5535 15.1077 35.605 15.4959C35.6823 16.0793 34.8432 16.0921 34.8138 15.5971C34.7898 15.2052 35.1155 14.5869 35.1523 14.3679Z" fill="#E31E24"/>
<path d="M24.7223 21.815C24.5714 22.1351 24.358 23.1491 23.9771 23.668C23.4066 24.4482 22.3964 23.5097 22.9245 22.8878C23.3422 22.3964 24.4279 22.0321 24.7223 21.8131V21.815Z" fill="#E31E24"/>
<path d="M21.2795 25.1806C20.8674 25.2193 19.7191 25.6094 18.9683 25.5358C17.8422 25.4272 18.1844 23.8484 19.1247 24.0085C19.8682 24.1354 20.8858 25.0132 21.2795 25.1788V25.1806Z" fill="#E31E24"/>
<path d="M20.8047 19.8313C20.8396 19.524 20.7311 18.626 20.8985 18.0887C21.1506 17.2827 22.251 17.774 21.9897 18.4365C21.7836 18.9609 20.9868 19.5682 20.8047 19.8313Z" fill="#E31E24"/>
<path d="M31.2366 24.7629C31.3838 24.5844 31.68 23.9772 32.0021 23.7085C32.486 23.3055 32.9774 24.06 32.5449 24.3691C32.2027 24.6139 31.4574 24.6709 31.2366 24.7629Z" fill="#E31E24"/>
<path d="M33.1375 21.2832C32.9479 21.4525 32.5247 22.0653 32.1291 22.3045C31.5347 22.6633 31.1262 21.7598 31.6488 21.4948C32.061 21.285 32.8835 21.3458 33.1393 21.2832H33.1375Z" fill="#E31E24"/>
<path d="M31.2531 28.0236C31.0875 28.1285 30.6882 28.537 30.3551 28.6677C29.8583 28.8628 29.6651 28.1249 30.0956 27.9924C30.4361 27.8875 31.0507 28.0402 31.2531 28.0255V28.0236Z" fill="#E31E24"/>
<path d="M26.1836 12.0107C26.2278 11.8082 26.2149 11.201 26.3639 10.8532C26.5866 10.3324 27.2877 10.7336 27.0687 11.1587C26.8957 11.4954 26.3234 11.8469 26.1836 12.0107Z" fill="#E31E24"/>
<path fill-rule="evenodd" clip-rule="evenodd" d="M20.9851 23.4803C22.3891 24.3322 23.6662 24.8861 24.8678 25.2542C26.5405 25.7676 27.6115 25.9994 29.1057 24.8088C30.1491 23.9771 30.7765 22.6945 31.2531 21.2518C30.5907 23.782 29.9227 26.3086 29.0008 28.5793C27.7992 31.5364 26.8349 33.1686 24.2661 35.1247C25.1144 33.8992 25.8063 32.3608 26.3197 30.4673C24.4078 31.8861 21.5059 32.7712 19.1321 33.1962C21.3513 32.508 23.6828 31.3064 24.5532 29.5969C25.4328 27.869 24.5771 26.6839 23.3828 25.4418C22.6836 24.715 21.8684 24.0746 20.9851 23.4803ZM27.4845 23.4195C27.3042 22.7276 26.7945 22.2621 26.3436 22.3798C25.8928 22.4976 25.6738 23.1527 25.8541 23.8446C26.0345 24.5365 26.5442 25.0021 26.995 24.8843C27.4459 24.7684 27.6649 24.1114 27.4845 23.4214V23.4195Z" fill="#A6C724"/>
</svg>
