<?xml version="1.0" encoding="UTF-8"?>
<!DOCTYPE svg PUBLIC "-//W3C//DTD SVG 1.1//EN" "http://www.w3.org/Graphics/SVG/1.1/DTD/svg11.dtd">
<!-- Creator: CorelDRAW -->
<svg xmlns="http://www.w3.org/2000/svg" xml:space="preserve" width="32.0762mm" height="12.1762mm" version="1.1" style="shape-rendering:geometricPrecision; text-rendering:geometricPrecision; image-rendering:optimizeQuality; fill-rule:evenodd; clip-rule:evenodd"
viewBox="0 0 1370.23 520.14"
 xmlns:xlink="http://www.w3.org/1999/xlink"
 xmlns:xodm="http://www.corel.com/coreldraw/odm/2003">
 <defs>
  <style type="text/css">
   <![CDATA[
    .str0 {stroke:#2B2A29;stroke-width:3.26;stroke-miterlimit:22.9256}
    .fil0 {fill:none}
    .fil2 {fill:#D7B56D}
    .fil1 {fill:#3C543F}
    .fil3 {fill:url(#id1)}
   ]]>
  </style>
   <clipPath id="id0">
    <path d="M196.27 156.61c30.52,0 61.04,0 91.56,0 23.46,-2.15 45.63,-11.09 65.82,-30.68 -9.75,23.71 -25.93,38.77 -50.18,42.96 -12.91,2.23 -27.56,0.8 -40.83,1.14 -16.84,0.43 -32.24,3.2 -47.9,19.56 15.38,0.1 25.15,-10.87 46.15,0.29 -27.67,3.71 -53.47,29.9 -64.62,19.82l0 -53.1zm124.83 50.37c-8.55,23.98 -4.22,39.16 8.86,48.34 12.97,9.1 25.09,6.96 38.47,19.15 5.16,4.7 9.78,10.73 13.79,18.24 9.35,-0.41 16.61,-6.5 22.79,-15.54 -1.38,12.31 -6.89,20.28 -17.35,23.05 -0.28,11 -3.59,20.29 -11.14,27.19 -2.58,-21.99 -26.78,-34.11 -47.77,-53.15 -22.22,-20.16 -32.61,-42.53 -7.66,-67.29zm-48.16 24.09c-0.31,31.82 8.58,59.4 33.41,79.65 11.89,9.7 26.87,16.44 39.56,25.93 12.16,9.09 25.31,23.29 19.97,45.61 -8.78,-17.58 -27.43,-25.41 -48.79,-40.16 -17.75,-12.26 -34.31,-27.16 -44.07,-46.7 -10.06,-20.14 -10.73,-41.5 -0.07,-64.32zm-45.11 31.53c-1.3,89.47 85.64,83.21 97.73,151.41 -27.57,-41.74 -66.33,-45.48 -99.5,-68.22 -29.54,-20.48 -25.43,-49.06 1.76,-83.19zm-48.6 -63.44c4.93,22.42 19.41,32.35 42.3,31.28 -25.34,28.54 -38.78,59.29 -26.81,94.73 -19.59,-20.32 -23.6,-46.92 6.55,-87.29 -19.24,-6.79 -26.98,-19.5 -22.04,-38.73zm164.6 -42.56l45.4 0 0 103.27c-11.87,-9.42 -6.26,-14.06 -16.84,-29.56 -2.33,-3.42 -6.43,-3.61 -17.45,-6.69 -10.04,-2.81 -12.34,-15.67 -7.2,-19.82 5.55,-4.48 13.58,4.78 16.73,8.75l15.37 19.39c2.82,-34.22 -40.62,-45.05 -36.01,-75.35z"/>
   </clipPath>
  <linearGradient id="id1" gradientUnits="userSpaceOnUse" x1="30.03" y1="261.52" x2="566.16" y2="261.52">
   <stop offset="0" style="stop-opacity:1; stop-color:#A06E2F"/>
   <stop offset="0.219608" style="stop-opacity:1; stop-color:#FBDB5B"/>
   <stop offset="0.431373" style="stop-opacity:1; stop-color:#9E6E2E"/>
   <stop offset="0.690196" style="stop-opacity:1; stop-color:#ECC954"/>
   <stop offset="1" style="stop-opacity:1; stop-color:#E5C152"/>
  </linearGradient>
 </defs>
 <g id="Слой_x0020_1">
  <metadata id="CorelCorpID_0Corel-Layer"/>
  <rect class="fil0 str0" x="1.63" y="1.63" width="1366.98" height="516.89"/>
  <path class="fil1" d="M584.03 222.62c-0.45,-2.67 -1.2,-5.05 -2.24,-7.14 -1.2,-2.41 -2.82,-4.44 -4.84,-6.1 -2.03,-1.68 -4.44,-2.93 -7.22,-3.77 -2.82,-0.85 -6.05,-1.27 -9.66,-1.27 -3.42,0 -6.5,0.41 -9.22,1.23 -2.7,0.81 -5.06,2.03 -7.1,3.64 -2.02,1.64 -3.74,3.69 -5.17,6.16 -1.22,2.11 -2.22,4.52 -3.01,7.24l48.46 0zm23.8 16.91l-73.93 0c0.33,3.75 1.06,7.11 2.2,10.09 1.25,3.29 2.99,6.11 5.23,8.46 2.22,2.34 4.81,4.1 7.77,5.27 2.98,1.18 6.36,1.77 10.12,1.77 0.83,0 1.61,-0.02 2.32,-0.06 0.76,-0.04 1.51,-0.1 2.23,-0.18l1.36 -0.15 0 22.37 -3.3 0.17 -2.18 0.04c-7.71,0 -14.64,-1.18 -20.78,-3.54 -6.18,-2.36 -11.56,-5.91 -16.16,-10.64 -4.58,-4.74 -8.03,-10.26 -10.32,-16.56 -2.29,-6.28 -3.43,-13.33 -3.43,-21.15 0,-7.54 1.18,-14.41 3.55,-20.62 2.37,-6.22 5.92,-11.76 10.67,-16.65 4.73,-4.87 10.15,-8.53 16.24,-10.97 6.08,-2.43 12.83,-3.65 20.24,-3.65 7.72,0 14.61,1.11 20.67,3.34 6.08,2.23 11.31,5.58 15.68,10.06 4.36,4.45 7.63,9.8 9.81,16.04 2.17,6.21 3.26,13.29 3.26,21.22l0 5.31 -1.23 0zm43.82 -51.48l0 53.09c0,4.52 0.47,8.4 1.4,11.63 0.92,3.21 2.3,5.78 4.13,7.71 1.83,1.93 4.23,3.38 7.22,4.35 3,0.98 6.6,1.47 10.77,1.47 4.18,0 7.78,-0.49 10.78,-1.47 2.98,-0.97 5.39,-2.42 7.22,-4.35 1.83,-1.92 3.21,-4.5 4.13,-7.71 0.93,-3.23 1.4,-7.12 1.4,-11.63l0 -53.56 22.5 0 0 47.08c0,9.04 -0.91,16.85 -2.72,23.44 -1.82,6.61 -4.56,11.98 -8.22,16.1 -3.66,4.13 -8.42,7.22 -14.24,9.28 -5.81,2.05 -12.7,3.08 -20.65,3.08 -8.08,0 -15.07,-1.02 -20.95,-3.05 -5.9,-2.04 -10.69,-5.11 -14.35,-9.21 -3.66,-4.09 -6.39,-9.45 -8.21,-16.07 -1.81,-6.6 -2.72,-14.46 -2.72,-23.56l0 -47.08 22.5 0 0 0.47zm120.94 9.25c0.56,-1.07 1.16,-2.08 1.78,-3.02 1.6,-2.41 3.4,-4.41 5.4,-5.98 2.04,-1.58 4.31,-2.77 6.81,-3.56 2.49,-0.79 5.21,-1.18 8.15,-1.18 1.56,0 3.11,0.09 4.65,0.28 1.52,0.18 3.04,0.46 4.58,0.83l0.95 0.23 0 24.04 -1.89 -1.19c-0.74,-0.47 -1.51,-0.88 -2.29,-1.23 -0.77,-0.35 -1.57,-0.64 -2.39,-0.87l-0.02 -0c-1.03,-0.31 -2.11,-0.53 -3.23,-0.68 -1.13,-0.15 -2.34,-0.22 -3.64,-0.22 -3.38,0 -6.26,0.66 -8.63,1.98 -2.36,1.31 -4.26,3.29 -5.71,5.95 -1.49,2.74 -2.62,6.45 -3.37,11.12 -0.77,4.73 -1.15,10.44 -1.15,17.14l0 42.52 -24.03 0 0 -96.85 24.03 0 0 10.69zm45.78 39.7c0,-6.68 1.22,-12.98 3.66,-18.92 2.47,-5.9 6.03,-11.19 10.74,-15.83 4.71,-4.64 10.03,-8.17 16,-10.58 5.96,-2.41 12.3,-3.63 19.08,-3.63 6.61,0 12.88,1.22 18.82,3.66 5.93,2.48 11.29,6.04 16.13,10.75 4.72,4.58 8.27,9.8 10.75,15.72 2.44,5.93 3.66,12.21 3.66,18.82 0,6.64 -1.22,12.88 -3.66,18.74 -2.47,5.87 -6.03,11.09 -10.75,15.63 -4.84,4.78 -10.24,8.41 -16.23,10.95 -6,2.51 -12.24,3.76 -18.71,3.76 -6.71,0 -13.05,-1.25 -19.05,-3.73 -6,-2.48 -11.32,-6.04 -16.04,-10.68 -4.71,-4.78 -8.27,-10.06 -10.74,-15.9 -2.44,-5.83 -3.66,-12.07 -3.66,-18.78zm16.48 0.07c0,9.59 3.22,17.73 9.62,24.37 6.44,6.68 14.24,10 23.36,10 9.08,0 16.81,-3.32 23.18,-10 6.34,-6.64 9.53,-14.78 9.53,-24.37 0,-9.59 -3.19,-17.73 -9.53,-24.37 -6.37,-6.68 -14.1,-10 -23.18,-10 -9.19,0 -16.98,3.32 -23.39,10 -6.41,6.65 -9.59,14.78 -9.59,24.37zm108.98 -32.95l-16.67 0 0 -12.82 16.67 0 0 -36.61 15.87 0 0 36.61 16.68 0 0 12.82 -16.68 0 0 78.1 -15.87 0 0 -78.1zm131.36 34.98l-72 0 0 1.39c0,9.73 2.78,17.59 8.34,23.59 5.56,6 12.81,8.98 21.76,8.98 0.46,0 0.92,-0.01 1.38,-0.03l0 13.01c-0.73,0.03 -1.46,0.04 -2.2,0.04 -13.83,0 -25.02,-4.58 -33.56,-13.69 -8.54,-9.15 -12.81,-21.15 -12.81,-35.97 0,-14.24 4.24,-25.9 12.71,-34.98 8.47,-9.06 19.36,-13.59 32.68,-13.59 13.42,0 24.07,4.31 31.93,12.91 7.83,8.61 11.76,20.37 11.76,35.25l0 3.09zm-16.68 -12.61c-0.54,-8 -3.18,-14.17 -8,-18.51 -4.78,-4.34 -11.35,-6.51 -19.69,-6.51 -7.56,0 -13.87,2.27 -18.88,6.82 -5.05,4.5 -7.97,10.57 -8.74,18.2l55.32 0zm24.24 55.73l34.95 -46.98 -33.97 -43.93 19.36 0 23.56 32.47 23.83 -32.47 19.36 0 -34.27 43.93 35.26 46.98 -19.36 0 -24.81 -35.19 -24.54 35.19 -19.36 0zm-134.32 63.94c0.29,0 0.61,0.06 1,0.16 0.39,0.1 0.82,0.26 1.3,0.47 0.57,0.31 0.99,0.6 1.28,0.86 0.28,0.27 0.42,0.54 0.42,0.81 0,0.21 -0.04,0.52 -0.12,0.91 -0.09,0.4 -0.23,0.89 -0.41,1.49 -0.13,0.35 -0.3,1.1 -0.53,2.21 -0.22,1.12 -0.51,2.57 -0.86,4.36 -0.41,1.87 -0.69,3.34 -0.88,4.4 -0.18,1.06 -0.26,1.68 -0.26,1.89 0,0.29 0.06,0.5 0.17,0.65 0.12,0.14 0.3,0.21 0.56,0.21 0.5,0 1.26,-0.25 2.26,-0.74 1.02,-0.5 1.69,-0.74 2.02,-0.74 0.29,0 0.52,0.12 0.66,0.37 0.15,0.24 0.23,0.6 0.23,1.09 0,0.18 0,0.34 -0.01,0.51 -0.01,0.17 -0.03,0.31 -0.05,0.44 -0.31,0.22 -0.67,0.47 -1.08,0.77 -0.4,0.29 -0.9,0.63 -1.49,1.03 -0.5,0.34 -1.02,0.65 -1.57,0.93 -0.55,0.29 -1.09,0.59 -1.61,0.94 -0.31,0.23 -0.61,0.58 -0.88,1.06 -0.26,0.49 -0.48,1.08 -0.68,1.77 -0.08,0.35 -0.16,0.63 -0.21,0.88 -0.06,0.26 -0.09,0.45 -0.06,0.6l0 0.72c-0.09,0.83 -0.24,1.86 -0.44,3.11 -0.21,1.25 -0.49,2.73 -0.83,4.4l0.32 0.95c-0.06,0.29 -0.52,0.8 -1.37,1.51 -0.84,0.72 -1.41,1.08 -1.7,1.08 -0.29,0 -0.53,-0.16 -0.72,-0.47 -0.2,-0.32 -0.29,-0.81 -0.29,-1.49 0,-1.03 0.11,-2.51 0.3,-4.44 0.2,-1.94 0.3,-3.41 0.3,-4.43 0,-0.23 0.06,-0.61 0.18,-1.11 0.12,-0.52 0.17,-0.89 0.17,-1.12 0,-0.28 -0.08,-0.49 -0.21,-0.64 -0.15,-0.15 -0.39,-0.23 -0.73,-0.23 -0.52,0 -1.41,0.12 -2.65,0.34 -1.25,0.22 -2.16,0.33 -2.73,0.33 -2.38,0 -4.19,-0.41 -5.42,-1.25 -1.23,-0.83 -1.85,-2.07 -1.88,-3.7 0,-0.26 -0.02,-0.55 -0.07,-0.91 -0.06,-0.34 -0.11,-0.73 -0.18,-1.15 0.06,-0.44 0.11,-0.96 0.13,-1.54 0.02,-0.59 0.03,-1.26 0.03,-2.02 0,-3.07 0.25,-5.95 0.73,-8.62 0.5,-2.7 1.23,-5.19 2.19,-7.51 0.17,-0.39 0.29,-0.74 0.37,-1.05 0.08,-0.3 0.11,-0.56 0.11,-0.76 -0.16,-0.37 -0.34,-0.62 -0.53,-0.76l-0.1 -0.21c0.04,-0.47 0.3,-1.44 0.79,-2.89 0.49,-1.47 0.81,-2.29 0.97,-2.46 1.37,-1.15 2.56,-2.02 3.58,-2.6 1.01,-0.58 1.88,-0.87 2.56,-0.87 0.42,0 0.73,0.13 0.95,0.38 0.2,0.26 0.31,0.65 0.31,1.19l-1.93 5.27c-0.49,1.29 -1.03,2.96 -1.67,4.98 -0.64,2.01 -1.36,4.36 -2.17,7.03 -0.07,0.33 -0.15,0.75 -0.27,1.25 -0.12,0.48 -0.28,1.06 -0.49,1.68 -0.48,1.52 -0.85,2.88 -1.09,4.08 -0.25,1.19 -0.36,2.23 -0.36,3.08 0,0.64 0.17,1.17 0.54,1.59 0.35,0.41 0.89,0.73 1.6,0.95 0.68,0.08 1.32,0.19 1.91,0.32 0.6,0.14 1.22,0.25 1.85,0.33 0.21,-0.06 0.54,-0.12 0.99,-0.15 0.45,-0.04 1.03,-0.07 1.71,-0.07 0.48,-0.06 0.89,-0.13 1.25,-0.19 0.15,-0.02 0.26,-0.1 0.32,-0.23 0.06,-0.14 0.09,-0.35 0.09,-0.62 0.06,-0.84 0.14,-1.64 0.24,-2.41 0.1,-0.76 0.21,-1.45 0.3,-2.06 0.04,-0.69 0.11,-1.54 0.2,-2.52 0.09,-0.99 0.21,-2.17 0.38,-3.54 0.22,-1.22 0.38,-2.24 0.5,-3.06 0.12,-0.82 0.18,-1.44 0.18,-1.86 0,-0.56 0.29,-1.2 0.88,-1.88 0.59,-0.7 1.15,-1.05 1.7,-1.05zm-38.54 27.63c0.4,0.13 0.77,0.21 1.09,0.27 0.32,0.05 0.64,0.07 0.93,0.07 0.17,0 0.41,-0.03 0.73,-0.11 0.32,-0.07 0.71,-0.18 1.2,-0.33 1.43,-0.42 2.5,-1.08 3.21,-1.98 0.72,-0.91 1.08,-2.05 1.08,-3.45 0,-0.71 -0.32,-1.57 -0.98,-2.58 -0.65,-1.01 -1.29,-1.66 -1.91,-1.96 -0.2,0 -0.48,0.21 -0.84,0.59 -0.37,0.39 -0.85,0.98 -1.43,1.78 -0.73,1.01 -1.51,2.05 -2.31,3.09 -0.57,0.59 -0.98,1.16 -1.23,1.71 -0.24,0.54 -0.38,1.06 -0.38,1.54 0,0.19 0.06,0.4 0.21,0.61 0.14,0.23 0.35,0.48 0.65,0.75zm8.89 -13.57c0.04,0.11 0.11,0.23 0.19,0.35 0.08,0.12 0.18,0.25 0.32,0.38 1.1,1.26 1.92,2.5 2.46,3.71 0.55,1.2 0.82,2.35 0.82,3.43 0,0.82 -0.11,1.58 -0.33,2.28 -0.21,0.71 -0.57,1.37 -1.06,1.97 -0.29,0.4 -0.73,0.85 -1.3,1.36 -0.58,0.5 -1.26,1.08 -2.03,1.71 -1.06,0.86 -2.07,1.49 -3.02,1.88 -0.97,0.4 -1.89,0.6 -2.75,0.6 -0.75,-0.07 -1.52,-0.12 -2.27,-0.16 -0.97,-0.1 -1.78,-0.23 -2.41,-0.38 -0.65,-0.14 -1.13,-0.35 -1.47,-0.59 -0.34,-0.24 -0.67,-0.64 -0.98,-1.21 -0.31,-0.57 -0.62,-1.29 -0.88,-2.17 0,0.13 -0.01,-0.01 -0.02,-0.42 -0.01,-0.42 -0.01,-1.08 -0.01,-1.98 0,-1.68 2.41,-5.54 7.22,-11.58 -0.64,-0.67 -1.27,-1.27 -1.9,-1.8 -0.77,-0.65 -1.44,-1.26 -2,-1.81 -0.56,-0.56 -1.04,-1.06 -1.46,-1.53 -0.64,-0.72 -1.1,-1.42 -1.41,-2.12 -0.3,-0.69 -0.45,-1.35 -0.45,-1.95 0,-0.65 0.11,-1.39 0.31,-2.21 0.22,-0.82 0.53,-1.71 0.95,-2.65 0.5,-1.12 1,-1.96 1.52,-2.51 0.5,-0.56 1.01,-0.84 1.52,-0.84 0.22,0 0.4,0.05 0.57,0.17 0.16,0.12 0.31,0.3 0.44,0.55l-0.85 2.56c0.07,1.03 0.18,1.93 0.32,2.69 0.16,0.76 0.37,1.44 0.62,1.97 0.16,0.32 0.47,0.82 0.93,1.5 0.45,0.69 1.06,1.53 1.79,2.51 0.21,0.32 0.48,0.63 0.84,0.94 0.35,0.32 0.73,0.64 1.15,0.95l0.25 -0.13c0.19,-0.08 0.38,-0.21 0.57,-0.38 0.18,-0.16 0.39,-0.36 0.62,-0.57 0.15,-0.23 0.32,-0.53 0.54,-0.91 0.2,-0.39 0.46,-0.84 0.75,-1.35 2.25,-2.97 3.94,-5.56 5.08,-7.77 1.15,-2.21 1.72,-3.98 1.72,-5.33 0,-0.76 -0.33,-1.33 -1.01,-1.73 -0.67,-0.41 -1.67,-0.61 -2.99,-0.61 -1.18,0 -2.27,0.09 -3.28,0.27 -1.02,0.18 -1.97,0.42 -2.88,0.74 -0.98,0.46 -2,0.92 -3.06,1.36 -1.04,0.44 -2.11,0.88 -3.19,1.32 -0.46,0 -0.82,-0.12 -1.09,-0.33 -0.26,-0.23 -0.38,-0.57 -0.38,-1.06 0,-0.21 0.1,-0.51 0.29,-0.87 0.21,-0.37 0.52,-0.8 0.94,-1.29 0.65,-0.86 1.27,-1.59 1.84,-2.2 0.59,-0.61 1.06,-1.07 1.44,-1.38 0.69,-0.57 1.41,-1.02 2.17,-1.36 0.76,-0.34 1.52,-0.55 2.31,-0.63 0.07,-0.05 0.21,-0.06 0.35,-0.08 0.16,-0.01 0.32,-0.04 0.5,-0.09l0.51 -0.47c0.07,-0.04 0.2,-0.06 0.38,-0.09 0.09,0 0.23,0.01 0.39,0.05 0.16,0.05 0.35,0.11 0.59,0.2 0.18,-0.02 0.41,-0.08 0.67,-0.17 0.27,-0.1 0.57,-0.19 0.91,-0.27 1.39,0.4 2.57,0.84 3.53,1.32 0.97,0.48 1.66,1.02 2.09,1.6 0.62,0.83 1.14,1.51 1.53,2.04 0.39,0.53 0.68,0.94 0.86,1.22 0.35,0.61 0.61,1.23 0.75,1.88 0.15,0.64 0.23,1.26 0.23,1.88 0,0.18 0,0.37 0,0.52 0,0.16 -0.01,0.33 -0.03,0.53 -0.13,1.13 -0.27,2.29 -0.44,3.47 -0.16,1.17 -0.44,2.36 -0.82,3.53 -0.25,0.62 -0.73,1.47 -1.47,2.55 -0.72,1.1 -1.71,2.43 -2.97,4.01 -1.17,1.47 -2.05,2.64 -2.63,3.48 -0.57,0.84 -0.88,1.34 -0.93,1.47zm-26.52 -29.24c0.86,0.21 1.59,0.39 2.19,0.54 0.59,0.14 1.01,0.28 1.26,0.41 0.66,0.31 1.14,0.7 1.44,1.15 0.3,0.46 0.46,0.97 0.46,1.56 0,0.31 -0.16,0.59 -0.46,0.83 -0.3,0.25 -0.79,0.44 -1.44,0.58 -0.4,0.06 -0.91,0.28 -1.5,0.65 -0.6,0.37 -1.3,0.85 -2.11,1.44 -1.43,1.11 -2.81,2.25 -4.14,3.44 -1.32,1.17 -2.61,2.39 -3.82,3.65 -1.65,1.85 -2.94,3.52 -3.87,4.99 -0.93,1.49 -1.47,2.8 -1.61,3.97l0.09 0.21 0.22 0.03c0.64,-0.22 1.27,-0.5 1.88,-0.82 0.62,-0.32 1.25,-0.7 1.88,-1.16 0.57,-0.42 1.15,-0.83 1.74,-1.24 0.59,-0.4 1.17,-0.81 1.73,-1.23 1.12,-0.75 2.33,-1.73 3.61,-2.94 1.29,-1.21 2.66,-2.65 4.12,-4.31 0.59,-0.71 1.14,-1.25 1.66,-1.61 0.52,-0.35 0.96,-0.54 1.31,-0.54 0.64,0 1.12,0.14 1.46,0.43 0.33,0.28 0.5,0.7 0.5,1.27 0,0.7 -0.09,1.53 -0.26,2.5 -0.16,0.97 -0.42,2.06 -0.75,3.29 -0.23,1 -0.54,2.25 -0.9,3.74 -0.37,1.48 -0.77,3.24 -1.19,5.25 -0.21,0.4 -0.44,0.91 -0.69,1.53 -0.24,0.62 -0.51,1.36 -0.81,2.2 -0.08,0.44 -0.23,1.08 -0.42,1.91 -0.21,0.84 -0.47,1.85 -0.81,3.05 -0.17,0.28 -0.36,0.71 -0.57,1.29 -0.21,0.59 -0.44,1.36 -0.7,2.31 -0.02,0.32 -0.11,0.65 -0.26,1 -0.14,0.34 -0.34,0.7 -0.59,1.06 -0.28,0.48 -0.51,0.88 -0.67,1.19 -0.17,0.32 -0.28,0.57 -0.32,0.76 -0.67,1.59 -1.35,3.18 -2.05,4.74 -0.17,0.45 -0.38,0.82 -0.62,1.06 -0.25,0.26 -0.53,0.41 -0.84,0.47 -0.27,0.04 -0.6,0.11 -0.97,0.2 -0.37,0.07 -0.82,0.18 -1.35,0.31 -0.18,-0.06 -0.29,-0.14 -0.37,-0.23 -0.08,-0.1 -0.11,-0.25 -0.11,-0.47 0,-0.2 0.12,-0.54 0.35,-1 0.23,-0.47 0.58,-1.06 1.06,-1.78 0,-0.11 0.04,-0.34 0.14,-0.72 0.1,-0.38 0.23,-0.88 0.37,-1.52 0.39,-1.37 0.74,-2.66 1.09,-3.86 0.35,-1.2 0.65,-2.25 0.96,-3.17 0.21,-0.69 0.5,-1.8 0.84,-3.31 0.36,-1.52 0.77,-3.45 1.23,-5.82 0.02,-0.29 0.11,-0.65 0.24,-1.09 0.14,-0.44 0.3,-0.92 0.5,-1.43 0.09,-0.77 0.16,-1.53 0.25,-2.27 0.08,-0.35 0.19,-0.8 0.32,-1.33 0.12,-0.53 0.23,-1.14 0.31,-1.86l-0.13 -0.15c-0.18,0.14 -0.42,0.33 -0.69,0.56 -0.28,0.24 -0.57,0.5 -0.88,0.8 -0.64,0.54 -1.53,1.26 -2.68,2.15 -1.15,0.89 -2.56,1.94 -4.22,3.14 -0.87,0.63 -1.72,1.06 -2.55,1.32 -0.84,0.25 -1.63,0.38 -2.36,0.38 -1.5,0 -2.61,-0.3 -3.36,-0.9 -0.74,-0.6 -1.11,-1.52 -1.11,-2.77 0,-0.14 0.02,-0.32 0.07,-0.53 0.04,-0.21 0.13,-0.48 0.25,-0.83l-0.09 -1.07c0.44,-1.26 1.19,-2.8 2.24,-4.61 1.06,-1.8 2.41,-3.92 4.05,-6.33 0.15,-0.18 0.34,-0.41 0.55,-0.71 0.23,-0.3 0.5,-0.66 0.81,-1.06 0.23,-0.23 0.54,-0.5 0.91,-0.82 0.39,-0.31 0.79,-0.72 1.21,-1.19 0.62,-0.66 1.11,-1.19 1.49,-1.58 0.38,-0.4 0.65,-0.67 0.79,-0.82 0.44,-0.41 0.87,-0.79 1.29,-1.11 0.42,-0.32 0.83,-0.62 1.23,-0.86 0.2,-0.13 0.42,-0.26 0.67,-0.38 0.26,-0.13 0.55,-0.29 0.88,-0.47 0.85,-0.51 1.72,-1 2.63,-1.49zm-42.64 27.56c-0.06,-0.21 -0.11,-0.51 -0.15,-0.89 -0.04,-0.39 -0.06,-0.86 -0.06,-1.4 0,-0.3 0.16,-0.76 0.47,-1.38 0.31,-0.61 0.78,-1.35 1.42,-2.22 0.53,-0.8 1.03,-1.47 1.51,-1.99 0.48,-0.52 0.9,-0.92 1.27,-1.23 0.44,-0.69 0.97,-1.45 1.57,-2.29 0.62,-0.85 1.37,-1.76 2.27,-2.75 1.16,-1.23 2.09,-2.26 2.79,-3.08 0.71,-0.8 1.19,-1.41 1.47,-1.81 0.21,-0.2 0.47,-0.44 0.77,-0.77 0.31,-0.32 0.65,-0.7 1.03,-1.12 0.35,-0.35 0.68,-0.63 0.98,-0.83 0.29,-0.21 0.59,-0.3 0.88,-0.3 0.38,0.09 0.73,0.18 1.07,0.28 0.91,0.22 1.59,0.57 2.07,1.08 0.47,0.51 0.71,1.14 0.71,1.92 0,0.76 -0.04,1.51 -0.13,2.23 -0.09,0.73 -0.21,1.45 -0.38,2.16 -0.06,0.26 -0.11,0.62 -0.14,1.06 -0.03,0.45 -0.06,0.98 -0.06,1.56 0,0.17 0,0.34 -0.01,0.53 -0.01,0.17 -0.04,0.37 -0.08,0.58 -0.06,0.23 -0.11,0.43 -0.13,0.62 -0.02,0.18 -0.03,0.32 -0.03,0.42l0 1.05c0,0.27 -0.03,0.59 -0.09,0.96 -0.07,0.38 -0.15,0.76 -0.25,1.19 -0.09,0.61 -0.18,1.1 -0.24,1.45 -0.07,0.35 -0.13,0.59 -0.15,0.72 -0.1,0.35 -0.22,0.77 -0.33,1.26 -0.11,0.48 -0.26,1.08 -0.45,1.76l0.38 1.14c-0.04,0.23 -0.16,0.85 -0.35,1.85 -0.19,1.01 -0.44,2.41 -0.76,4.2 -0.23,1.28 -0.46,2.4 -0.69,3.34 -0.23,0.97 -0.48,1.73 -0.76,2.3 -0.14,0.4 -0.29,0.97 -0.42,1.7 -0.14,0.73 -0.28,1.66 -0.43,2.78 -0.21,0.47 -0.45,1.04 -0.73,1.68 -0.27,0.65 -0.57,1.37 -0.88,2.2 -0.25,0.29 -0.53,0.62 -0.82,0.96 -0.3,0.34 -0.64,0.72 -1.01,1.11 -0.38,0.57 -0.76,1 -1.16,1.26 -0.38,0.27 -0.77,0.41 -1.15,0.41 -0.29,0 -0.52,-0.07 -0.65,-0.2 -0.15,-0.12 -0.23,-0.32 -0.23,-0.59 0,-0.24 0.02,-0.52 0.08,-0.88 0.05,-0.34 0.17,-0.75 0.33,-1.24 0.21,-0.66 0.43,-1.35 0.67,-2.09 0.25,-0.98 0.45,-1.88 0.61,-2.67 0.16,-0.81 0.3,-1.49 0.43,-2.05 0.02,-0.34 0.06,-0.74 0.11,-1.23 0.06,-0.49 0.11,-1.05 0.18,-1.7 0.02,-0.15 0.11,-0.42 0.23,-0.82 0.14,-0.4 0.21,-0.71 0.21,-0.94 0,-0.57 0.12,-1.56 0.33,-3 0.23,-1.43 0.57,-3.28 1.03,-5.57 0.02,-0.15 0.04,-0.34 0.08,-0.57 0.03,-0.23 0.1,-0.52 0.21,-0.85 -0.13,-0.27 -0.23,-0.52 -0.31,-0.72 0.04,-0.26 0.09,-0.58 0.14,-0.98 0.05,-0.4 0.07,-0.85 0.07,-1.35 0,-0.72 0.13,-1.76 0.37,-3.16 0.25,-1.39 0.36,-2.42 0.36,-3.09 0,-0.44 -0.04,-0.79 -0.12,-1.03 -0.09,-0.24 -0.21,-0.35 -0.38,-0.35l-0.38 0.12c-1.26,1.23 -2.29,2.18 -3.06,2.87 -0.77,0.68 -1.34,1.09 -1.67,1.2 -0.35,0.55 -0.82,1.14 -1.37,1.79 -0.56,0.65 -1.23,1.32 -2,2.07 -0.62,0.59 -1.22,1.17 -1.81,1.76 -0.6,0.59 -1.2,1.17 -1.82,1.77l-0.44 -0.16zm-24.67 -1.46c-0.46,0 -1.09,0.61 -1.88,1.82 -0.79,1.22 -1.17,2.11 -1.17,2.69 0,0.12 0.02,0.21 0.08,0.26 0.06,0.06 0.17,0.08 0.33,0.08 0.23,0 0.43,-0.12 0.57,-0.37 0.15,-0.23 0.29,-0.46 0.42,-0.67 0.23,-0.22 0.45,-0.44 0.68,-0.68 0.23,-0.25 0.44,-0.49 0.65,-0.72 0.26,-0.29 0.45,-0.59 0.57,-0.88 0.13,-0.29 0.19,-0.59 0.19,-0.88 0,-0.19 -0.03,-0.34 -0.11,-0.46 -0.08,-0.12 -0.18,-0.18 -0.33,-0.18zm-10.09 10.21c0.26,-0.43 0.58,-0.88 0.99,-1.32 0.4,-0.45 0.91,-0.91 1.53,-1.38 0.06,-0.42 0.13,-0.84 0.19,-1.25 0.05,-0.41 0.1,-0.83 0.12,-1.25 0.06,-0.29 0.16,-0.64 0.3,-1.04 0.14,-0.4 0.29,-0.83 0.45,-1.29 0.19,-0.47 0.45,-1.05 0.78,-1.73 0.32,-0.7 0.75,-1.47 1.28,-2.34 0.44,-0.49 0.89,-1.01 1.38,-1.59 0.49,-0.57 0.97,-1.17 1.46,-1.75 0.23,-0.19 0.48,-0.36 0.75,-0.53 0.27,-0.18 0.55,-0.36 0.82,-0.57 0.25,-0.09 0.54,-0.15 0.85,-0.22 0.31,-0.06 0.66,-0.09 1.04,-0.09 0.52,0 0.95,0.05 1.27,0.16 0.32,0.1 0.59,0.28 0.81,0.53 0.14,0.18 0.28,0.42 0.42,0.76 0.14,0.33 0.27,0.74 0.4,1.23 0.05,0.42 0.13,0.88 0.21,1.39 0,-0.13 -0.03,-0.08 -0.11,0.15 -0.08,0.23 -0.18,0.6 -0.34,1.11l-0.28 1c-0.3,1.01 -0.96,2.17 -1.98,3.5 -1.03,1.33 -2.42,2.85 -4.17,4.55 -0.14,0.15 -0.26,0.33 -0.37,0.55 -0.1,0.23 -0.15,0.47 -0.15,0.71 0,0.44 0.08,0.83 0.24,1.16 0.16,0.35 0.38,0.59 0.68,0.77 0.17,0.12 0.44,0.24 0.8,0.38 0.38,0.12 0.81,0.23 1.32,0.34 0.83,-0.06 1.58,-0.2 2.25,-0.41 0.68,-0.21 1.28,-0.47 1.81,-0.77 0.11,-0.07 0.28,-0.16 0.51,-0.28 0.23,-0.12 0.46,-0.28 0.7,-0.47 0.27,0.61 0.52,1.16 0.72,1.64 0.21,0.49 0.38,0.91 0.5,1.26 -1.2,1.18 -2.29,2.09 -3.27,2.69 -0.98,0.6 -1.88,0.91 -2.7,0.91 -0.33,0.21 -0.72,0.37 -1.15,0.47 -0.43,0.09 -0.94,0.14 -1.53,0.14 -0.77,0 -1.47,-0.12 -2.07,-0.34 -0.6,-0.24 -1.1,-0.59 -1.51,-1.03 -0.21,-0.21 -0.42,-0.53 -0.62,-0.94 -0.21,-0.42 -0.43,-0.91 -0.67,-1.49 -0.18,-0.47 -0.37,-0.81 -0.54,-1.02 -0.16,-0.23 -0.35,-0.34 -0.57,-0.34 -0.16,0 -0.35,0.08 -0.56,0.24 -0.22,0.16 -0.44,0.4 -0.7,0.71 -0.09,-0.31 -0.23,-0.71 -0.45,-1.17 -0.22,-0.47 -0.5,-1.04 -0.84,-1.73zm-19.92 0l0.29 -0.25c0.02,-0.23 0.16,-0.5 0.44,-0.82 0.27,-0.31 0.67,-0.67 1.17,-1.09 0.31,-0.23 0.65,-0.45 1,-0.66 0.35,-0.21 0.68,-0.44 1,-0.69 1.32,-1.14 2.59,-2.24 3.83,-3.3 0.72,-0.62 1.43,-1.17 2.14,-1.62 0.72,-0.46 1.38,-0.82 2.01,-1.09 0.44,-0.57 1.27,-1.15 2.48,-1.75 1.2,-0.59 2.19,-0.88 2.94,-0.88 0.3,0 0.54,0.09 0.71,0.25 0.19,0.17 0.29,0.39 0.33,0.63l0 1.75c0,0.61 -0.17,1.15 -0.52,1.63 -0.35,0.47 -0.87,0.91 -1.56,1.31 -0.47,0.21 -0.93,0.44 -1.39,0.7 -0.46,0.25 -0.93,0.48 -1.38,0.69 -0.17,0.21 -0.62,0.6 -1.35,1.18 -0.72,0.58 -1.7,1.35 -2.94,2.32 -0.57,0.44 -1.05,0.84 -1.42,1.18 -0.38,0.35 -0.64,0.64 -0.79,0.84 -0.21,0.4 -0.37,0.84 -0.48,1.32 -0.12,0.5 -0.18,1.04 -0.18,1.68 0,0.49 0.08,0.91 0.22,1.25 0.15,0.35 0.36,0.62 0.66,0.84 0.21,0.15 0.5,0.29 0.87,0.44 0.37,0.15 0.82,0.3 1.37,0.44 0.31,-0.13 0.72,-0.25 1.24,-0.37 0.5,-0.12 1.08,-0.27 1.71,-0.45 0.71,-0.43 1.43,-0.87 2.18,-1.33 0.74,-0.47 1.47,-0.95 2.21,-1.43 0.11,-0.06 0.23,-0.13 0.4,-0.21 0.15,-0.07 0.31,-0.19 0.49,-0.33 0.21,-0.28 0.49,-0.59 0.86,-0.96 0.36,-0.35 0.81,-0.77 1.33,-1.23 0.86,1.83 1.29,2.8 1.29,2.9 -0.77,0.64 -1.56,1.28 -2.35,1.95 -0.8,0.67 -1.71,1.22 -2.75,1.64 -0.33,0.28 -0.61,0.53 -0.85,0.76 -1.05,1.06 -2.27,1.86 -3.67,2.41 -1.4,0.54 -2.99,0.81 -4.77,0.81 -0.4,0 -0.76,-0.03 -1.08,-0.1 -0.31,-0.06 -0.57,-0.15 -0.78,-0.25 -0.62,-0.43 -1.17,-0.79 -1.61,-1.12 -0.46,-0.33 -0.85,-0.66 -1.16,-0.97 -0.32,-0.3 -0.55,-0.59 -0.69,-0.87 -0.19,-0.29 -0.32,-0.66 -0.4,-1.08 -0.08,-0.42 -0.11,-0.95 -0.11,-1.56 0,-0.16 0.05,-0.44 0.15,-0.82 0.11,-0.39 0.16,-0.65 0.16,-0.8 -0.15,-0.47 -0.33,-0.94 -0.55,-1.42 -0.21,-0.49 -0.46,-0.98 -0.74,-1.49zm-30.16 0c0.09,-0.15 0.2,-0.32 0.33,-0.49 0.14,-0.18 0.3,-0.4 0.49,-0.65 0.21,-0.16 0.48,-0.41 0.83,-0.72 0.33,-0.31 0.71,-0.68 1.13,-1.1 0.38,-0.42 0.85,-0.94 1.39,-1.55 0.55,-0.62 1.22,-1.36 1.99,-2.25 0.35,-0.35 0.76,-0.81 1.27,-1.36 0.5,-0.56 1.1,-1.23 1.8,-2 0.59,-0.69 1.22,-1.2 1.9,-1.53 0.67,-0.33 1.38,-0.51 2.15,-0.51 0.75,0 1.31,0.24 1.67,0.71 0.35,0.47 0.54,1.15 0.54,2.06 0,0.48 -0.18,1.41 -0.54,2.76 -0.35,1.37 -0.91,3.17 -1.67,5.42 -0.2,0.42 -0.38,0.82 -0.54,1.2 -0.13,0.26 -0.22,0.52 -0.26,0.72 -0.04,0.21 -0.06,0.38 -0.06,0.47 0,0.13 0.06,0.29 0.22,0.47 0.11,-0.06 0.21,-0.14 0.3,-0.25 0.1,-0.11 0.21,-0.23 0.34,-0.38 0.16,-0.32 0.42,-0.65 0.76,-1 0.35,-0.34 0.76,-0.73 1.25,-1.15 0.19,-0.35 0.43,-0.71 0.74,-1.06 0.3,-0.35 0.65,-0.67 1.02,-0.96 0.09,-0.09 0.2,-0.22 0.34,-0.41 0.13,-0.19 0.29,-0.38 0.48,-0.6 0.27,-0.27 0.6,-0.56 0.98,-0.85 0.38,-0.29 0.82,-0.6 1.32,-0.91 0.56,-0.29 1.08,-0.53 1.53,-0.7 0.45,-0.16 0.84,-0.25 1.18,-0.25 0.65,0 1.23,0.16 1.74,0.47 0.5,0.31 0.93,0.81 1.29,1.47 0.42,1.31 0.82,2.51 1.2,3.62 0.23,0.66 0.48,1.14 0.77,1.46 0.28,0.31 0.6,0.47 0.96,0.47 0.27,0 0.5,-0.06 0.72,-0.16 0.22,-0.11 0.42,-0.27 0.61,-0.48l1.29 2.9c-0.35,0.29 -0.72,0.6 -1.09,0.91 -0.39,0.32 -0.76,0.62 -1.11,0.92 -0.48,0.44 -0.94,0.75 -1.36,0.94 -0.42,0.18 -0.84,0.27 -1.26,0.27 -0.48,0 -0.94,-0.11 -1.39,-0.31 -0.44,-0.22 -0.82,-0.53 -1.13,-0.95 -0.17,-0.16 -0.38,-0.47 -0.64,-0.93 -0.25,-0.45 -0.54,-1.01 -0.88,-1.69 -0.27,-0.27 -0.58,-0.62 -0.93,-1.08 -0.35,-0.45 -0.76,-0.98 -1.22,-1.59l-0.28 -0.09c-0.4,0.13 -0.8,0.32 -1.19,0.57 -0.38,0.25 -0.81,0.58 -1.24,0.98 -0.95,0.84 -1.64,1.36 -2.05,1.57 -0.42,0.21 -0.7,0.45 -0.85,0.72 -0.29,0.51 -0.8,1.17 -1.51,1.96 -0.71,0.8 -1.61,1.75 -2.68,2.83 -0.27,0.28 -0.54,0.54 -0.82,0.81 -0.27,0.26 -0.55,0.52 -0.82,0.78 -0.27,0.23 -0.58,0.38 -0.93,0.49 -0.35,0.09 -0.73,0.14 -1.15,0.14 -0.84,0 -1.3,-0.29 -1.37,-0.87 -0.07,-0.59 -0.15,-1.16 -0.21,-1.76 0.32,-0.88 0.68,-1.98 1.08,-3.32 0.4,-1.32 0.86,-2.86 1.38,-4.64 0,-0.09 0.04,-0.23 0.12,-0.42 0.06,-0.18 0.16,-0.42 0.26,-0.71 0.11,-0.27 0.18,-0.5 0.23,-0.71 0.04,-0.2 0.06,-0.38 0.06,-0.52 0,-0.15 -0.05,-0.27 -0.16,-0.35 -0.11,-0.08 -0.27,-0.12 -0.51,-0.12 -0.2,0 -0.48,0.12 -0.82,0.38 -0.36,0.25 -0.77,0.65 -1.25,1.2 -0.59,0.63 -1.07,1.13 -1.42,1.49 -0.35,0.35 -0.6,0.57 -0.72,0.63 -0.21,0.15 -0.46,0.36 -0.74,0.63 -0.28,0.28 -0.61,0.58 -0.96,0.91 -0.04,0.09 -0.11,0.21 -0.2,0.38 -0.09,0.18 -0.21,0.35 -0.41,0.57 -0.09,-0.31 -0.24,-0.71 -0.45,-1.17 -0.21,-0.47 -0.5,-1.04 -0.84,-1.73zm-4.9 -24.88c0.53,0 0.92,0.11 1.15,0.31 0.25,0.22 0.37,0.52 0.37,0.92 -0.13,0.59 -0.24,1.09 -0.31,1.49 -0.21,0.75 -0.4,1.38 -0.56,1.86 -0.15,0.48 -0.27,0.83 -0.35,1.04 -0.2,0.45 -0.46,0.86 -0.78,1.2 -0.32,0.35 -0.72,0.66 -1.18,0.94 -0.49,0.33 -0.88,0.57 -1.22,0.71 -0.32,0.13 -0.55,0.19 -0.67,0.17 -0.35,-0.04 -0.7,-0.09 -1.03,-0.12 -0.32,-0.03 -0.65,-0.05 -0.96,-0.05 -0.28,-0.15 -0.5,-0.43 -0.65,-0.85 -0.16,-0.42 -0.24,-0.99 -0.24,-1.7 0,-0.64 0.38,-1.43 1.15,-2.38 0.76,-0.96 1.44,-1.47 2.03,-1.54 0.35,-0.44 0.78,-0.94 1.26,-1.51 0.2,-0.15 0.48,-0.26 0.82,-0.36 0.33,-0.1 0.72,-0.14 1.16,-0.14zm-13.15 24.88l0.2 -0.22 0.09 -0.32c0.57,-0.78 1.57,-1.79 3,-3.04 1.43,-1.25 2.41,-2.26 2.96,-3.04 0.21,-0.33 0.45,-0.58 0.73,-0.73 0.27,-0.14 0.54,-0.21 0.82,-0.21 0.73,0 1.36,0.18 1.86,0.55 0.51,0.37 0.84,0.93 1,1.66 0.15,0.65 0.29,1.31 0.41,1.97 0.13,0.67 0.23,1.33 0.32,2 0.14,0.42 0.32,1.06 0.53,1.9 0.22,0.85 0.36,1.34 0.47,1.47 0.1,0.21 0.26,0.35 0.46,0.45 0.22,0.1 0.47,0.14 0.79,0.14 0.38,0 0.76,-0.06 1.17,-0.2 0.38,-0.13 0.79,-0.37 1.21,-0.71 0.31,-0.27 0.65,-0.55 0.99,-0.83 0.35,-0.29 0.68,-0.57 1.01,-0.84l1.29 2.9c-0.33,0.33 -0.79,0.72 -1.34,1.15 -0.56,0.43 -1.23,0.94 -2,1.51 -0.86,0.62 -1.6,1.1 -2.2,1.4 -0.61,0.31 -1.07,0.46 -1.39,0.46 -1.91,0 -3.14,-0.23 -3.72,-0.67 -0.56,-0.44 -1.2,-1.67 -1.88,-3.69 -0.09,-0.18 -0.21,-0.38 -0.38,-0.61 -0.16,-0.23 -0.35,-0.51 -0.56,-0.82 -0.26,-0.48 -0.47,-0.85 -0.67,-1.09 -0.18,-0.25 -0.34,-0.37 -0.47,-0.37 -0.33,0 -0.79,0.22 -1.35,0.68 -0.57,0.45 -1.26,1.13 -2.08,2.03 -0.11,-0.27 -0.23,-0.6 -0.4,-0.98 -0.16,-0.38 -0.34,-0.82 -0.51,-1.32 -0.04,-0.13 -0.1,-0.25 -0.16,-0.35 -0.06,-0.1 -0.14,-0.19 -0.23,-0.25zm0.02 0l1.29 2.9c-0.29,0.23 -0.94,0.43 -1.94,0.6 -1,0.18 -2.29,0.32 -3.9,0.44 -1.85,1.83 -3.7,3.34 -5.53,4.54 -1.84,1.21 -3.67,2.09 -5.47,2.66 -0.43,0.13 -0.91,0.26 -1.46,0.41 -0.33,0 -0.71,-0.07 -1.11,-0.21 -0.4,-0.14 -0.84,-0.33 -1.32,-0.58 -0.5,-0.31 -0.89,-0.62 -1.16,-0.92 -0.27,-0.29 -0.41,-0.6 -0.41,-0.91 0,-0.64 0.3,-1.24 0.91,-1.83 0.61,-0.59 1.5,-1.15 2.68,-1.67 2.36,-1.1 4.68,-2.21 6.98,-3.31 0.34,0 0.57,0.06 0.72,0.2 0.15,0.14 0.23,0.32 0.23,0.52 0,0.57 -0.41,1.06 -1.22,1.45 -0.82,0.38 -1.22,0.67 -1.22,0.82 0.14,0.21 0.27,0.32 0.38,0.32 0.27,0 0.88,-0.42 1.82,-1.24 0.94,-0.82 1.39,-1.34 1.37,-1.54l-0.15 -0.73 0.06 -0.12c0.55,-0.48 0.96,-0.91 1.22,-1.3 0.26,-0.38 0.39,-0.68 0.39,-0.92 0,-0.53 -0.26,-1.23 -0.79,-2.11 -0.53,-0.88 -1.31,-1.95 -2.37,-3.19 -0.8,-0.97 -1.61,-1.84 -2.4,-2.61 -0.8,-0.77 -1.57,-1.44 -2.31,-2.04 -0.29,-0.26 -0.55,-0.5 -0.75,-0.74 -0.21,-0.24 -0.39,-0.47 -0.51,-0.68 -0.23,-0.42 -0.42,-0.76 -0.56,-1.05 -0.13,-0.27 -0.26,-0.45 -0.35,-0.54 -0.11,-0.12 -0.25,-0.27 -0.43,-0.45 -0.18,-0.18 -0.4,-0.39 -0.65,-0.61 -0.44,-0.47 -0.79,-1.11 -1.02,-1.93 -0.25,-0.82 -0.37,-1.84 -0.37,-3.06 0,-0.81 0.11,-1.57 0.33,-2.32 0.21,-0.74 0.54,-1.41 0.96,-2 0.06,-0.13 0.13,-0.27 0.19,-0.44 0.06,-0.18 0.13,-0.36 0.21,-0.57 0.49,-0.99 1.3,-2.05 2.46,-3.2 1.16,-1.15 2.67,-2.37 4.55,-3.65 0.25,-0.12 0.56,-0.29 0.91,-0.5 0.35,-0.21 0.76,-0.48 1.2,-0.82 0.26,-0.21 0.53,-0.39 0.84,-0.57 0.3,-0.16 0.67,-0.32 1.09,-0.47 0.57,-0.23 1.21,-0.48 1.92,-0.75 1.06,-0.55 1.93,-0.95 2.62,-1.2 0.7,-0.26 1.22,-0.38 1.58,-0.38 0.69,0 1.2,0.2 1.56,0.62 0.35,0.42 0.52,1.03 0.52,1.83 0,0.88 -0.06,1.61 -0.2,2.17 -0.14,0.56 -0.32,0.93 -0.55,1.12 -2.47,1.98 -4.48,3.46 -5.98,4.47 -1.52,1 -2.58,1.5 -3.19,1.5 -0.29,0 -0.53,-0.09 -0.69,-0.26 -0.18,-0.16 -0.26,-0.42 -0.26,-0.76 0,-0.57 0.47,-1.19 1.42,-1.87 0.95,-0.69 1.41,-1.21 1.39,-1.56l-0.29 -0.19c-0.09,0 -0.22,0.03 -0.35,0.1 -0.14,0.06 -0.28,0.14 -0.43,0.25 -1.84,1.5 -3.24,2.85 -4.18,4.03 -0.93,1.18 -1.4,2.23 -1.4,3.11 0,0.69 0.12,1.4 0.36,2.11 0.23,0.72 0.59,1.46 1.06,2.21 0.33,0.53 0.83,1.2 1.47,2 0.65,0.82 1.47,1.79 2.46,2.93 1.37,1.57 2.41,2.79 3.15,3.66 0.73,0.86 1.14,1.31 1.23,1.36 0.42,0.55 0.79,1.09 1.08,1.63 0.29,0.55 0.5,1.08 0.6,1.58 0.09,0.4 0.17,0.9 0.21,1.47 0.04,0.59 0.07,1.32 0.07,2.16 0,0.45 0.07,0.71 0.21,0.79 0.14,0.08 0.37,0.11 0.69,0.11 0.12,0 0.22,-0.02 0.29,-0.08 0.06,-0.05 0.15,-0.12 0.23,-0.2zm318.49 -56.16l-158.84 4.58 -131.65 0.11 -158.95 -4.68 159.08 -4.68 131.67 0.12 158.7 4.57z"/>
  <path class="fil2" d="M196.27 156.61c30.52,0 61.04,0 91.56,0 23.46,-2.15 45.63,-11.09 65.82,-30.68 -9.75,23.71 -25.93,38.77 -50.18,42.96 -12.91,2.23 -27.56,0.8 -40.83,1.14 -16.84,0.43 -32.24,3.2 -47.9,19.56 15.38,0.1 25.15,-10.87 46.15,0.29 -27.67,3.71 -53.47,29.9 -64.62,19.82l0 -53.1zm124.83 50.37c-8.55,23.98 -4.22,39.16 8.86,48.34 12.97,9.1 25.09,6.96 38.47,19.15 5.16,4.7 9.78,10.73 13.79,18.24 9.35,-0.41 16.61,-6.5 22.79,-15.54 -1.38,12.31 -6.89,20.28 -17.35,23.05 -0.28,11 -3.59,20.29 -11.14,27.19 -2.58,-21.99 -26.78,-34.11 -47.77,-53.15 -22.22,-20.16 -32.61,-42.53 -7.66,-67.29zm-48.16 24.09c-0.31,31.82 8.58,59.4 33.41,79.65 11.89,9.7 26.87,16.44 39.56,25.93 12.16,9.09 25.31,23.29 19.97,45.61 -8.78,-17.58 -27.43,-25.41 -48.79,-40.16 -17.75,-12.26 -34.31,-27.16 -44.07,-46.7 -10.06,-20.14 -10.73,-41.5 -0.07,-64.32zm-45.11 31.53c-1.3,89.47 85.64,83.21 97.73,151.41 -27.57,-41.74 -66.33,-45.48 -99.5,-68.22 -29.54,-20.48 -25.43,-49.06 1.76,-83.19zm-48.6 -63.44c4.93,22.42 19.41,32.35 42.3,31.28 -25.34,28.54 -38.78,59.29 -26.81,94.73 -19.59,-20.32 -23.6,-46.92 6.55,-87.29 -19.24,-6.79 -26.98,-19.5 -22.04,-38.73zm164.6 -42.56l45.4 0 0 103.27c-11.87,-9.42 -6.26,-14.06 -16.84,-29.56 -2.33,-3.42 -6.43,-3.61 -17.45,-6.69 -10.04,-2.81 -12.34,-15.67 -7.2,-19.82 5.55,-4.48 13.58,4.78 16.73,8.75l15.37 19.39c2.82,-34.22 -40.62,-45.05 -36.01,-75.35z"/>
  <g style="clip-path:url(#id0)">
   <g id="_2198848708160">
    <rect class="fil3" x="30.03" y="53.79" width="536.13" height="415.47"/>
   </g>
  </g>
  <path class="fil0" d="M196.27 156.61c30.52,0 61.04,0 91.56,0 23.46,-2.15 45.63,-11.09 65.82,-30.68 -9.75,23.71 -25.93,38.77 -50.18,42.96 -12.91,2.23 -27.56,0.8 -40.83,1.14 -16.84,0.43 -32.24,3.2 -47.9,19.56 15.38,0.1 25.15,-10.87 46.15,0.29 -27.67,3.71 -53.47,29.9 -64.62,19.82l0 -53.1zm124.83 50.37c-8.55,23.98 -4.22,39.16 8.86,48.34 12.97,9.1 25.09,6.96 38.47,19.15 5.16,4.7 9.78,10.73 13.79,18.24 9.35,-0.41 16.61,-6.5 22.79,-15.54 -1.38,12.31 -6.89,20.28 -17.35,23.05 -0.28,11 -3.59,20.29 -11.14,27.19 -2.58,-21.99 -26.78,-34.11 -47.77,-53.15 -22.22,-20.16 -32.61,-42.53 -7.66,-67.29zm-48.16 24.09c-0.31,31.82 8.58,59.4 33.41,79.65 11.89,9.7 26.87,16.44 39.56,25.93 12.16,9.09 25.31,23.29 19.97,45.61 -8.78,-17.58 -27.43,-25.41 -48.79,-40.16 -17.75,-12.26 -34.31,-27.16 -44.07,-46.7 -10.06,-20.14 -10.73,-41.5 -0.07,-64.32zm-45.11 31.53c-1.3,89.47 85.64,83.21 97.73,151.41 -27.57,-41.74 -66.33,-45.48 -99.5,-68.22 -29.54,-20.48 -25.43,-49.06 1.76,-83.19zm-48.6 -63.44c4.93,22.42 19.41,32.35 42.3,31.28 -25.34,28.54 -38.78,59.29 -26.81,94.73 -19.59,-20.32 -23.6,-46.92 6.55,-87.29 -19.24,-6.79 -26.98,-19.5 -22.04,-38.73zm164.6 -42.56l45.4 0 0 103.27c-11.87,-9.42 -6.26,-14.06 -16.84,-29.56 -2.33,-3.42 -6.43,-3.61 -17.45,-6.69 -10.04,-2.81 -12.34,-15.67 -7.2,-19.82 5.55,-4.48 13.58,4.78 16.73,8.75l15.37 19.39c2.82,-34.22 -40.62,-45.05 -36.01,-75.35z"/>
 </g>
</svg>
