<svg width="89" height="27" viewBox="0 0 89 27" fill="none" xmlns="http://www.w3.org/2000/svg">
<path fill-rule="evenodd" clip-rule="evenodd" d="M36.7537 9.55225C36.714 9.31582 36.6479 9.10498 36.5555 8.92087C36.4489 8.70774 36.3061 8.52783 36.1273 8.38154C35.9478 8.23296 35.7347 8.12219 35.4887 8.04809C35.2389 7.97284 34.9535 7.93541 34.6342 7.93541C34.3313 7.93541 34.0594 7.97208 33.8184 8.04465C33.5796 8.11646 33.3703 8.22417 33.1904 8.36703C33.012 8.51179 32.8592 8.6936 32.7332 8.9117C32.6255 9.0981 32.5365 9.31162 32.467 9.55225H36.7541H36.7537ZM38.8595 11.0484H32.3188C32.3478 11.3799 32.4127 11.6779 32.5132 11.9414C32.624 12.2321 32.7783 12.4819 32.9761 12.6901C33.1725 12.8971 33.4013 13.0526 33.6637 13.1561C33.9276 13.2603 34.2263 13.3131 34.5586 13.3131C34.6323 13.3131 34.7011 13.3111 34.7641 13.3081C34.8313 13.3043 34.8974 13.2993 34.9619 13.2924L35.0826 13.2794V15.2588L34.7905 15.2737L34.5975 15.2771C33.9157 15.2771 33.3027 15.1724 32.7588 14.9643C32.2122 14.7553 31.7355 14.4414 31.3287 14.0231C30.9231 13.6037 30.6187 13.1152 30.4158 12.5579C30.2138 12.0022 30.1122 11.3788 30.1122 10.6871C30.1122 10.0202 30.2168 9.41207 30.4258 8.86319C30.6351 8.31317 30.9498 7.82235 31.37 7.38997C31.7886 6.95873 32.268 6.63559 32.8069 6.41978C33.3451 6.20474 33.9421 6.09703 34.5972 6.09703C35.2805 6.09703 35.8901 6.19519 36.4256 6.39228C36.9634 6.58938 37.426 6.88616 37.8125 7.28187C38.1979 7.67568 38.4875 8.14931 38.6803 8.70162C38.8725 9.25127 38.9683 9.87769 38.9683 10.5793V11.0488H38.8591L38.8595 11.0484ZM42.7368 6.49427V11.1913C42.7368 11.5908 42.7784 11.9342 42.8609 12.2199C42.9427 12.5037 43.0645 12.7317 43.2265 12.9017C43.3884 13.0724 43.6012 13.2011 43.8655 13.2867C44.1313 13.3734 44.4491 13.4166 44.8189 13.4166C45.189 13.4166 45.5072 13.373 45.7726 13.2867C46.0366 13.2008 46.2497 13.0724 46.4113 12.9017C46.5732 12.7317 46.695 12.5037 46.7768 12.2199C46.8593 11.9338 46.9009 11.59 46.9009 11.1913V6.45301H48.8917V10.6183C48.8917 11.4181 48.8115 12.1095 48.6515 12.6916C48.4903 13.2764 48.2481 13.7515 47.9242 14.1159C47.6003 14.4811 47.1798 14.755 46.6641 14.9368C46.15 15.1186 45.5404 15.2091 44.8372 15.2091C44.1222 15.2091 43.5038 15.119 42.9835 14.9391C42.4614 14.7584 42.0378 14.4872 41.7135 14.1247C41.39 13.763 41.1478 13.2886 40.9866 12.7027C40.8262 12.1187 40.7464 11.4235 40.7464 10.6179V6.45263H42.7372V6.49427H42.7368ZM53.4371 7.31243C53.4871 7.21808 53.5394 7.12871 53.5948 7.04544C53.7365 6.83192 53.8962 6.65507 54.073 6.51604C54.2537 6.37586 54.4542 6.27082 54.6754 6.2013C54.8954 6.13178 55.136 6.09703 55.3969 6.09703C55.5352 6.09703 55.6719 6.10543 55.8087 6.12185C55.9427 6.13828 56.0779 6.16272 56.2135 6.19519L56.2976 6.21543V8.34258L56.1303 8.23716C56.0646 8.19553 55.9966 8.15886 55.9275 8.12792C55.8591 8.09736 55.7888 8.07139 55.7158 8.05076L55.7143 8.05038C55.6234 8.02326 55.5275 8.00302 55.4282 7.99041C55.3285 7.97743 55.2212 7.97131 55.1066 7.97131C54.8075 7.97131 54.5524 8.02975 54.3427 8.14663C54.1341 8.26237 53.9657 8.43807 53.8377 8.6726C53.706 8.91476 53.6059 9.24325 53.5394 9.65653C53.4714 10.0748 53.4378 10.5801 53.4378 11.1733V14.9352H51.3114V6.36669H53.4378V7.31243H53.4371ZM57.4874 10.825C57.4874 10.2337 57.5951 9.67639 57.8113 9.15119C58.0302 8.62905 58.3449 8.16115 58.762 7.75054C59.1787 7.33955 59.6497 7.02787 60.1779 6.81473C60.7054 6.60198 61.2665 6.49389 61.8662 6.49389C62.4514 6.49389 63.006 6.60198 63.5312 6.81779C64.0556 7.03704 64.5296 7.35177 64.9582 7.76887C65.3753 8.17375 65.6904 8.63555 65.9093 9.15998C66.1255 9.68479 66.2332 10.2402 66.2332 10.825C66.2332 11.4128 66.1255 11.9647 65.9093 12.4834C65.6904 13.0025 65.3757 13.4643 64.9582 13.8661C64.5296 14.289 64.0526 14.6098 63.522 14.8348C62.9911 15.0571 62.4391 15.1679 61.8662 15.1679C61.2723 15.1679 60.7115 15.0571 60.181 14.8382C59.6501 14.619 59.1791 14.3042 58.762 13.8929C58.3453 13.4704 58.0302 13.0025 57.8113 12.4865C57.5951 11.9705 57.4874 11.4189 57.4874 10.825ZM58.9453 10.8311C58.9453 11.6794 59.2299 12.3994 59.7967 12.9872C60.3662 13.5785 61.0564 13.8719 61.8635 13.8719C62.6672 13.8719 63.3513 13.5781 63.9147 12.9872C64.4754 12.3994 64.7576 11.6794 64.7576 10.8311C64.7576 9.98234 64.4758 9.26273 63.9147 8.67451C63.3513 8.08361 62.6672 7.79026 61.8635 7.79026C61.0507 7.79026 60.3609 8.08399 59.7937 8.67451C59.2268 9.26273 58.9453 9.98234 58.9453 10.8311ZM68.5872 7.91593H67.1121V6.78188H68.5872V3.54285H69.9909V6.78188H71.4664V7.91593H69.9909V14.8256H68.5872V7.91593ZM80.2092 11.011H73.8392V11.134C73.8392 11.9949 74.0848 12.6905 74.5771 13.2214C75.0691 13.7519 75.7108 14.0162 76.503 14.0162C76.5438 14.0162 76.5847 14.0155 76.6252 14.0136V15.1644C76.561 15.1667 76.4965 15.1679 76.4308 15.1679C75.207 15.1679 74.2173 14.763 73.461 13.9567C72.7055 13.1469 72.3274 12.085 72.3274 10.7742C72.3274 9.51444 72.7025 8.48276 73.4523 7.67911C74.2017 6.87776 75.1646 6.47632 76.3437 6.47632C77.5312 6.47632 78.4731 6.85713 79.1691 7.61876C79.862 8.38078 80.2095 9.42124 80.2095 10.7375V11.0106L80.2092 11.011ZM78.7336 9.89526C78.6855 9.18748 78.4521 8.64166 78.0259 8.2574C77.6034 7.87353 77.0213 7.6814 76.2833 7.6814C75.6149 7.6814 75.0565 7.88232 74.6127 8.28452C74.1654 8.68291 73.9079 9.21995 73.8388 9.89487H78.7333L78.7336 9.89526ZM80.878 14.8256L83.97 10.6687L80.9647 6.78188H82.677L84.7614 9.655L86.8698 6.78188H88.5821L85.5497 10.6687L88.6688 14.8256H86.9565L84.761 11.7122L82.5895 14.8256H80.8772H80.878ZM68.9936 20.4825C69.0188 20.4825 69.0475 20.4874 69.0826 20.497C69.117 20.5058 69.1552 20.5199 69.1979 20.539C69.2488 20.5665 69.2858 20.5925 69.3114 20.6154C69.3362 20.6391 69.3485 20.6631 69.3485 20.6868C69.3485 20.7055 69.345 20.7327 69.3381 20.7678C69.3305 20.8029 69.3183 20.8469 69.3019 20.8992C69.29 20.9305 69.2755 20.9962 69.2552 21.0948C69.2361 21.1937 69.2102 21.3224 69.1789 21.4805C69.1426 21.6459 69.1177 21.7758 69.1013 21.8694C69.0853 21.9626 69.078 22.018 69.078 22.0367C69.078 22.0623 69.0838 22.0814 69.0933 22.0936C69.1036 22.1062 69.12 22.1115 69.1429 22.1115C69.1869 22.1115 69.2545 22.0898 69.3427 22.0458C69.4329 22.0019 69.4925 21.9801 69.5219 21.9801C69.5475 21.9801 69.5677 21.9908 69.5799 22.0126C69.5933 22.0336 69.5998 22.0661 69.5998 22.1085C69.5998 22.1242 69.5998 22.1383 69.5986 22.1536C69.5979 22.1688 69.596 22.1811 69.594 22.1925C69.5665 22.2116 69.5352 22.2338 69.499 22.2605C69.4638 22.2857 69.4195 22.3163 69.3676 22.3518C69.3229 22.382 69.2774 22.4095 69.2285 22.4343C69.1796 22.4603 69.1323 22.487 69.0857 22.5176C69.0582 22.5374 69.0318 22.5691 69.0081 22.6115C68.9856 22.6547 68.9654 22.7066 68.9482 22.7681C68.9409 22.7987 68.934 22.8239 68.9294 22.8464C68.9241 22.869 68.9218 22.8862 68.9241 22.8999V22.9637C68.9161 23.037 68.9031 23.1283 68.8848 23.2387C68.866 23.3495 68.8416 23.4797 68.8114 23.6283L68.8397 23.7123C68.8339 23.7379 68.7938 23.783 68.7186 23.8457C68.6441 23.9094 68.5937 23.9408 68.5677 23.9408C68.5425 23.9408 68.5204 23.9262 68.5043 23.8991C68.4867 23.8712 68.4787 23.8273 68.4787 23.7677C68.4787 23.6772 68.4887 23.5454 68.5055 23.3751C68.5234 23.2036 68.5318 23.0729 68.5318 22.9836C68.5318 22.9637 68.5368 22.9297 68.5475 22.8854C68.5578 22.8396 68.5628 22.8063 68.5628 22.7865C68.5628 22.7616 68.5559 22.7433 68.544 22.7303C68.5303 22.717 68.5093 22.7105 68.4791 22.7105C68.4333 22.7105 68.3542 22.7212 68.245 22.7403C68.1346 22.7597 68.054 22.7693 68.0039 22.7693C67.7935 22.7693 67.6331 22.7326 67.5246 22.6589C67.4157 22.5856 67.3607 22.4759 67.3588 22.3312C67.3588 22.3083 67.3569 22.2827 67.3523 22.251C67.3474 22.2208 67.3424 22.1864 67.3367 22.1494C67.3424 22.11 67.3462 22.0642 67.3485 22.013C67.3504 21.9603 67.3512 21.9015 67.3512 21.8339C67.3512 21.5627 67.3729 21.3079 67.4157 21.0707C67.46 20.8324 67.5246 20.6116 67.6094 20.4061C67.6247 20.3713 67.6354 20.3408 67.6418 20.3133C67.6487 20.2865 67.6514 20.2636 67.6514 20.2457C67.6373 20.2132 67.6212 20.1914 67.6048 20.1781L67.596 20.1593C67.5998 20.1181 67.6228 20.0325 67.6655 19.9038C67.7087 19.7743 67.737 19.7017 67.7515 19.6865C67.8726 19.5845 67.978 19.5073 68.0677 19.4565C68.1575 19.4053 68.2335 19.3794 68.2946 19.3794C68.3317 19.3794 68.3592 19.3912 68.3787 19.413C68.3966 19.4355 68.4061 19.4707 68.4061 19.5184L68.2358 19.9844C68.1926 20.099 68.1445 20.2464 68.088 20.4248C68.0318 20.6028 67.9677 20.8102 67.8955 21.047C67.8894 21.0764 67.8817 21.1135 67.8718 21.1574C67.8607 21.2002 67.847 21.2506 67.8286 21.306C67.7859 21.4404 67.7534 21.5608 67.7324 21.6666C67.7106 21.772 67.7003 21.8637 67.7003 21.9393C67.7003 21.9958 67.7156 22.0424 67.748 22.0798C67.7793 22.1165 67.8271 22.1444 67.8897 22.1639C67.9497 22.1711 68.0062 22.1811 68.0586 22.1921C68.112 22.2047 68.1663 22.2139 68.222 22.2215C68.2404 22.2158 68.2698 22.2112 68.3099 22.2082C68.35 22.2044 68.4004 22.2021 68.4615 22.2021C68.5043 22.1967 68.5406 22.1906 68.5719 22.1849C68.5857 22.183 68.5948 22.1761 68.5998 22.1643C68.6052 22.1517 68.6082 22.1337 68.6082 22.11C68.6139 22.0355 68.6208 21.9645 68.6292 21.8965C68.638 21.8289 68.6472 21.7682 68.6556 21.7139C68.6594 21.6528 68.6651 21.5776 68.6731 21.4905C68.6808 21.403 68.6919 21.298 68.7071 21.1773C68.7262 21.0696 68.7408 20.9794 68.7511 20.9068C68.7618 20.8343 68.7667 20.7793 68.7667 20.7422C68.7667 20.6926 68.7923 20.6364 68.8446 20.5757C68.8973 20.5138 68.9466 20.4832 68.9951 20.4832L68.9936 20.4825ZM65.5838 22.9267C65.6194 22.9381 65.6518 22.9454 65.6801 22.9503C65.7087 22.9549 65.7362 22.9568 65.7622 22.9568C65.7775 22.9568 65.7981 22.9542 65.8268 22.9473C65.8546 22.9408 65.8894 22.9309 65.9326 22.9179C66.059 22.8808 66.1537 22.8228 66.2164 22.7425C66.2802 22.6623 66.3115 22.5607 66.3115 22.4374C66.3115 22.3747 66.2832 22.2983 66.2248 22.2086C66.1679 22.1192 66.1106 22.0619 66.0556 22.0352C66.038 22.0352 66.0132 22.0531 65.9811 22.0879C65.9486 22.1222 65.9054 22.1749 65.8546 22.2452C65.7897 22.335 65.721 22.4263 65.6507 22.5187C65.5999 22.571 65.5636 22.6215 65.5418 22.6704C65.5204 22.7181 65.5086 22.7636 65.5086 22.8063C65.5086 22.8235 65.5143 22.8415 65.5265 22.8602C65.5392 22.8804 65.5579 22.9026 65.5834 22.9263L65.5838 22.9267ZM66.3699 21.7258C66.3737 21.7353 66.3795 21.7456 66.3871 21.7571C66.394 21.7678 66.4035 21.7789 66.415 21.7903C66.512 21.9022 66.5846 22.0115 66.6331 22.1184C66.682 22.225 66.7053 22.3258 66.7053 22.4217C66.7053 22.4939 66.6957 22.5615 66.6759 22.6234C66.6571 22.686 66.6254 22.7445 66.5827 22.7975C66.5571 22.8331 66.5181 22.8732 66.4673 22.9179C66.4157 22.9626 66.3558 23.013 66.2874 23.0695C66.1942 23.1455 66.1044 23.2009 66.0196 23.236C65.9337 23.2712 65.8527 23.2895 65.7764 23.2895C65.7099 23.2834 65.6423 23.2788 65.5758 23.275C65.4899 23.2662 65.4181 23.2551 65.3623 23.2418C65.3054 23.2292 65.2622 23.2112 65.2328 23.1894C65.2026 23.1684 65.174 23.1329 65.1461 23.0825C65.1186 23.0317 65.0919 22.9683 65.0678 22.89C65.0678 22.9014 65.0667 22.8888 65.0659 22.8526C65.0651 22.8155 65.0651 22.7574 65.0651 22.6776C65.0651 22.529 65.2783 22.1879 65.7042 21.6532C65.648 21.594 65.5919 21.5405 65.5365 21.4935C65.4681 21.4366 65.4089 21.3824 65.3592 21.3335C65.31 21.2838 65.2672 21.2395 65.2301 21.1983C65.174 21.1345 65.1331 21.0722 65.1049 21.0103C65.0785 20.9496 65.0651 20.8912 65.0651 20.8381C65.0651 20.7804 65.0747 20.7151 65.0923 20.6425C65.1113 20.5696 65.1392 20.4909 65.1763 20.4084C65.2202 20.3094 65.2653 20.235 65.3107 20.1865C65.3554 20.1368 65.4005 20.1124 65.4448 20.1124C65.4639 20.1124 65.4799 20.1169 65.4956 20.1276C65.5101 20.1379 65.5231 20.154 65.5346 20.1761L65.4593 20.403C65.4654 20.4936 65.475 20.5734 65.488 20.641C65.5021 20.7086 65.5204 20.7678 65.543 20.8155C65.5575 20.8438 65.585 20.8881 65.6251 20.9477C65.6652 21.0084 65.7183 21.0829 65.7836 21.17C65.8023 21.1983 65.8264 21.2258 65.8577 21.2537C65.8883 21.2823 65.9223 21.3098 65.9597 21.3377L65.9814 21.3262C65.9986 21.3194 66.0147 21.3083 66.0323 21.293C66.0483 21.2785 66.067 21.2613 66.0873 21.2422C66.1006 21.2223 66.1155 21.1952 66.135 21.162C66.153 21.1276 66.1759 21.0879 66.2015 21.0421C66.4005 20.7789 66.5502 20.5505 66.6514 20.3549C66.753 20.1593 66.8038 20.0027 66.8038 19.8832C66.8038 19.8156 66.7744 19.7652 66.7141 19.73C66.6552 19.6937 66.5662 19.6762 66.449 19.6762C66.3443 19.6762 66.2481 19.6842 66.1587 19.6998C66.0685 19.7155 65.9841 19.7369 65.9039 19.7655C65.8172 19.8064 65.7267 19.8469 65.6335 19.8859C65.5414 19.9248 65.4467 19.9642 65.3516 20.0031C65.3107 20.0031 65.279 19.9924 65.2553 19.9737C65.2328 19.9538 65.2213 19.9229 65.2213 19.8805C65.2213 19.8618 65.2301 19.8354 65.2469 19.8033C65.2649 19.7709 65.2928 19.7327 65.3298 19.6895C65.3868 19.6135 65.4425 19.5486 65.4925 19.4943C65.5445 19.4405 65.5857 19.4 65.6201 19.3721C65.6808 19.3213 65.7454 19.282 65.8126 19.2518C65.8795 19.2216 65.9471 19.2033 66.0166 19.196C66.0231 19.1918 66.0345 19.1903 66.0479 19.1892C66.0624 19.188 66.0766 19.1853 66.0918 19.1815L66.1369 19.1395C66.1434 19.1357 66.1549 19.1338 66.1702 19.1319C66.1786 19.1319 66.1908 19.1326 66.2045 19.1364C66.2187 19.1406 66.2358 19.146 66.2568 19.154C66.2733 19.1521 66.2931 19.1471 66.3157 19.1387C66.3393 19.13 66.3665 19.1219 66.3959 19.1151C66.5189 19.1502 66.6232 19.1892 66.7083 19.2323C66.7943 19.2751 66.855 19.3225 66.8932 19.374C66.9482 19.4474 66.994 19.5073 67.0284 19.5543C67.0628 19.6017 67.0884 19.638 67.1048 19.662C67.1361 19.7159 67.1587 19.7713 67.1713 19.8282C67.185 19.8847 67.1911 19.9401 67.1911 19.9939C67.1911 20.0104 67.1911 20.0264 67.1911 20.0398C67.1911 20.0543 67.19 20.0692 67.1881 20.0864C67.1766 20.1865 67.1644 20.2888 67.1491 20.3935C67.1346 20.497 67.1102 20.602 67.0769 20.7055C67.0552 20.7598 67.012 20.835 66.9474 20.9317C66.8836 21.0287 66.7958 21.1471 66.6843 21.2861C66.5804 21.4164 66.5032 21.5195 66.4516 21.5936C66.4008 21.6681 66.3733 21.712 66.3695 21.7239L66.3699 21.7258ZM64.0231 19.1391C64.0995 19.1571 64.1641 19.1735 64.2168 19.1869C64.2695 19.1995 64.3066 19.2117 64.3283 19.2231C64.3864 19.2506 64.4292 19.2846 64.4559 19.3248C64.4823 19.3652 64.4968 19.4107 64.4968 19.463C64.4968 19.4905 64.4823 19.5157 64.4559 19.5364C64.4292 19.5581 64.3864 19.5757 64.3283 19.5879C64.2932 19.5937 64.2481 19.6128 64.1958 19.6448C64.1423 19.6773 64.0804 19.7201 64.009 19.7724C63.8826 19.8706 63.7603 19.9714 63.6423 20.0768C63.5251 20.1803 63.4112 20.2881 63.3039 20.3996C63.158 20.5635 63.0438 20.7113 62.962 20.8415C62.8799 20.9729 62.8326 21.0894 62.8192 21.1925L62.8276 21.2113L62.8467 21.2139C62.9028 21.1945 62.959 21.1692 63.0132 21.1417C63.0682 21.1139 63.1236 21.0799 63.1798 21.039C63.2306 21.0016 63.2818 20.9653 63.3341 20.9294C63.3868 20.8939 63.438 20.8576 63.4876 20.8205C63.5869 20.7541 63.6935 20.6673 63.807 20.5604C63.9212 20.4531 64.0419 20.3263 64.1717 20.1796C64.2237 20.1166 64.2729 20.0688 64.3188 20.0375C64.3646 20.0062 64.4036 19.9897 64.4349 19.9897C64.491 19.9897 64.5342 20.0024 64.5636 20.0279C64.593 20.0524 64.6083 20.0898 64.6083 20.1402C64.6083 20.2021 64.6007 20.2758 64.5854 20.3614C64.5713 20.4473 64.5483 20.5436 64.5189 20.6521C64.4983 20.7407 64.4712 20.8511 64.4391 20.9828C64.4062 21.1139 64.3711 21.2693 64.3341 21.4477C64.3153 21.4828 64.2951 21.5287 64.2733 21.5829C64.2523 21.6379 64.2282 21.7032 64.2019 21.7773C64.195 21.8167 64.182 21.8724 64.1645 21.9458C64.1465 22.0203 64.1228 22.1096 64.093 22.2158C64.0778 22.2403 64.0609 22.2785 64.0422 22.33C64.0235 22.3827 64.0037 22.4503 63.9804 22.534C63.9788 22.5626 63.9708 22.5917 63.9578 22.623C63.9456 22.6532 63.9277 22.6845 63.9055 22.7162C63.8807 22.759 63.8604 22.7941 63.8463 22.8216C63.831 22.8503 63.8218 22.8724 63.8176 22.8892C63.7588 23.0302 63.6977 23.1703 63.6358 23.3086C63.6206 23.3483 63.6026 23.3808 63.5816 23.4026C63.5598 23.4255 63.535 23.4385 63.5071 23.4446C63.483 23.4484 63.454 23.4541 63.4215 23.4622C63.3891 23.4687 63.349 23.4782 63.3024 23.4893C63.2867 23.4836 63.2768 23.4767 63.2699 23.4687C63.263 23.4599 63.2604 23.4469 63.2604 23.4274C63.2604 23.4095 63.2707 23.3797 63.2909 23.3388C63.3115 23.2968 63.3425 23.2456 63.3841 23.1814C63.3841 23.1719 63.3879 23.1512 63.3963 23.1176C63.4051 23.0844 63.4162 23.0393 63.4288 22.9836C63.4632 22.8621 63.4945 22.7483 63.5251 22.6421C63.5556 22.5355 63.5827 22.4431 63.6099 22.3621C63.6286 22.3014 63.6538 22.2028 63.684 22.0688C63.7157 21.9343 63.7519 21.7636 63.7928 21.5539C63.7947 21.5283 63.8024 21.4962 63.8138 21.4572C63.8264 21.4179 63.8402 21.3759 63.8578 21.3312C63.8654 21.2628 63.8723 21.196 63.8795 21.1307C63.8868 21.0993 63.8967 21.06 63.9078 21.013C63.9185 20.9664 63.9276 20.9126 63.9353 20.8484L63.9238 20.835C63.9074 20.8476 63.8864 20.8644 63.8631 20.8847C63.8383 20.9057 63.8123 20.9286 63.7848 20.9553C63.7286 21.0031 63.6496 21.0669 63.5476 21.1459C63.446 21.225 63.3207 21.3171 63.174 21.424C63.0969 21.4794 63.0216 21.518 62.9483 21.5413C62.8738 21.563 62.8043 21.5749 62.7394 21.5749C62.6064 21.5749 62.5079 21.5482 62.4422 21.4954C62.3765 21.442 62.344 21.3614 62.344 21.2506C62.344 21.238 62.3459 21.222 62.3501 21.204C62.3536 21.1853 62.3616 21.1612 62.3719 21.1307L62.3639 21.0363C62.4032 20.9248 62.4689 20.7888 62.5618 20.6284C62.6553 20.4691 62.7745 20.2816 62.92 20.0684C62.9338 20.0528 62.9498 20.0321 62.9689 20.0058C62.9888 19.979 63.0128 19.9473 63.0403 19.9122C63.061 19.8923 63.0881 19.8675 63.1213 19.8396C63.1557 19.8125 63.1912 19.7762 63.2283 19.7342C63.2825 19.6762 63.3261 19.6292 63.3597 19.594C63.3929 19.5589 63.4166 19.5352 63.43 19.5215C63.4693 19.4848 63.5071 19.4516 63.5442 19.4229C63.5816 19.3943 63.6179 19.3687 63.653 19.3465C63.6706 19.3347 63.6901 19.3236 63.7118 19.3133C63.7348 19.3015 63.7607 19.2877 63.7901 19.2713C63.8654 19.2262 63.9425 19.1823 64.0228 19.1399L64.0231 19.1391ZM60.2505 21.5772C60.2455 21.5592 60.2406 21.5321 60.2367 21.4981C60.2329 21.4637 60.231 21.4217 60.231 21.374C60.231 21.3476 60.2455 21.3071 60.273 21.2517C60.3005 21.1979 60.3422 21.1318 60.3991 21.0554C60.4457 20.9848 60.4904 20.9259 60.5324 20.879C60.5752 20.8331 60.6122 20.7972 60.6447 20.7705C60.6836 20.7097 60.7306 20.6421 60.7837 20.5677C60.838 20.4924 60.9048 20.4122 60.9846 20.3247C61.0874 20.2155 61.1695 20.125 61.2314 20.0524C61.294 19.9813 61.3368 19.9275 61.3616 19.8923C61.3796 19.8748 61.4029 19.853 61.4296 19.824C61.4567 19.7953 61.4873 19.7621 61.5205 19.7247C61.5518 19.6933 61.5805 19.6689 61.6072 19.6513C61.6332 19.6334 61.6592 19.625 61.6855 19.625C61.7191 19.6326 61.7505 19.6414 61.7799 19.6494C61.8601 19.6685 61.9208 19.7002 61.9628 19.7445C62.0048 19.7896 62.0255 19.8454 62.0255 19.9141C62.0255 19.9817 62.0217 20.0474 62.014 20.1112C62.0064 20.1754 61.9961 20.2392 61.9808 20.3022C61.9751 20.3247 61.9709 20.3564 61.9682 20.3954C61.9651 20.4355 61.9632 20.4821 61.9632 20.5337C61.9632 20.5489 61.9632 20.5638 61.9625 20.5803C61.9613 20.5955 61.9586 20.6127 61.9556 20.6318C61.9498 20.6517 61.946 20.67 61.9441 20.6861C61.9422 20.7021 61.9411 20.7143 61.9411 20.7231V20.8155C61.9411 20.8392 61.9384 20.8679 61.9327 20.9003C61.9265 20.9336 61.9193 20.968 61.9109 21.0054C61.9029 21.0592 61.8952 21.1024 61.8899 21.1337C61.8834 21.165 61.8784 21.1861 61.8765 21.1975C61.8677 21.2288 61.8574 21.2659 61.8471 21.309C61.8376 21.3518 61.8242 21.4042 61.807 21.4653L61.8402 21.5661C61.8364 21.586 61.8261 21.6413 61.8097 21.73C61.7925 21.8197 61.7707 21.9431 61.7424 22.1016C61.7226 22.2151 61.7016 22.314 61.6813 22.3976C61.6607 22.4832 61.6386 22.5504 61.6137 22.6008C61.6015 22.636 61.5881 22.6868 61.5767 22.7513C61.5641 22.8159 61.5518 22.898 61.5385 22.9973C61.5198 23.0389 61.4984 23.0894 61.4739 23.1459C61.4502 23.2028 61.4231 23.267 61.3956 23.3403C61.3739 23.3659 61.3486 23.3946 61.323 23.4255C61.2967 23.4557 61.2669 23.4889 61.2333 23.524C61.1993 23.5748 61.1661 23.6123 61.1305 23.636C61.0965 23.6596 61.0622 23.6722 61.0286 23.6722C61.0033 23.6722 60.9827 23.6661 60.9709 23.6547C60.9575 23.644 60.951 23.6264 60.951 23.6023C60.951 23.5813 60.9529 23.5561 60.9579 23.5248C60.9625 23.4946 60.9732 23.4583 60.9873 23.4152C61.006 23.3571 61.0251 23.296 61.0461 23.2303C61.0679 23.1436 61.0859 23.0645 61.1 22.9943C61.1145 22.9228 61.1267 22.8629 61.1382 22.8124C61.1401 22.7827 61.1431 22.7467 61.1477 22.7036C61.1527 22.6604 61.1577 22.6112 61.1634 22.5531C61.1653 22.5397 61.1729 22.5157 61.184 22.4805C61.1966 22.4454 61.202 22.4179 61.202 22.3969C61.202 22.3461 61.2127 22.2586 61.2314 22.1314C61.2516 22.005 61.2822 21.8411 61.3227 21.6383C61.3246 21.6245 61.3265 21.6085 61.3295 21.5875C61.3326 21.5676 61.3383 21.5417 61.3475 21.5122C61.3357 21.4886 61.3276 21.4664 61.32 21.4485C61.3238 21.4259 61.3276 21.3969 61.3326 21.3614C61.3372 21.3262 61.3391 21.2865 61.3391 21.2414C61.3391 21.1776 61.3505 21.0852 61.3716 20.9622C61.3933 20.8392 61.4037 20.7483 61.4037 20.6891C61.4037 20.6502 61.4002 20.6196 61.3926 20.5978C61.3846 20.5768 61.3742 20.5665 61.3589 20.5665L61.3257 20.5768C61.2142 20.6857 61.1237 20.7697 61.0553 20.8304C60.9869 20.8904 60.9369 20.9263 60.9075 20.937C60.8762 20.9859 60.8353 21.0382 60.7864 21.0955C60.7367 21.1524 60.6779 21.2128 60.6092 21.2785C60.5549 21.3308 60.5014 21.3824 60.4491 21.4347C60.3956 21.4874 60.3426 21.5386 60.2879 21.5913L60.249 21.5768L60.2505 21.5772ZM58.0676 21.4485C58.0267 21.4485 57.9713 21.5023 57.9018 21.6096C57.8323 21.7174 57.7979 21.7968 57.7979 21.8472C57.7979 21.8575 57.7998 21.8659 57.8048 21.8705C57.8098 21.8755 57.8201 21.8774 57.8342 21.8774C57.8548 21.8774 57.8724 21.8667 57.885 21.8449C57.8984 21.8243 57.9106 21.8041 57.9221 21.7853C57.9419 21.7663 57.9622 21.746 57.982 21.7254C58.0019 21.7036 58.021 21.6822 58.0389 21.6616C58.0619 21.6356 58.079 21.6096 58.0897 21.5833C58.1012 21.5577 58.1069 21.5306 58.1069 21.505C58.1069 21.4878 58.1039 21.4748 58.0974 21.4641C58.0905 21.4534 58.081 21.4485 58.068 21.4485H58.0676ZM57.175 22.3522C57.1975 22.314 57.2265 22.2746 57.2628 22.2357C57.2979 22.1956 57.3438 22.1555 57.398 22.1135C57.4037 22.0764 57.4095 22.039 57.4152 22.0031C57.4198 21.9668 57.424 21.9293 57.4259 21.8927C57.4316 21.8667 57.4404 21.8361 57.4526 21.801C57.4648 21.7659 57.4778 21.7277 57.4923 21.6868C57.5095 21.6456 57.5325 21.5944 57.5611 21.5333C57.5894 21.4714 57.6276 21.403 57.6745 21.3266C57.7135 21.2835 57.7536 21.2369 57.7964 21.1857C57.8395 21.1349 57.8823 21.0825 57.9251 21.031C57.945 21.0138 57.9679 20.9989 57.9916 20.9836C58.0153 20.968 58.0401 20.9519 58.0638 20.9328C58.0859 20.9252 58.1119 20.9191 58.1394 20.9137C58.1669 20.908 58.1975 20.9053 58.2314 20.9053C58.2773 20.9053 58.3155 20.9099 58.3441 20.9194C58.3724 20.9282 58.3968 20.9443 58.4156 20.9664C58.4282 20.9821 58.4404 21.0035 58.4526 21.034C58.4652 21.0634 58.4763 21.0997 58.4881 21.1425C58.4927 21.1799 58.4996 21.2208 58.5068 21.2659C58.5068 21.254 58.5038 21.259 58.4973 21.2792C58.4904 21.2999 58.4809 21.3327 58.4675 21.377L58.4431 21.466C58.4167 21.5558 58.3579 21.6585 58.2677 21.7754C58.1765 21.8931 58.0535 22.0271 57.8988 22.1776C57.8862 22.191 57.8755 22.207 57.8659 22.2261C57.8571 22.2464 57.8522 22.2674 57.8522 22.2892C57.8522 22.3285 57.859 22.3625 57.8732 22.3919C57.8877 22.4225 57.9072 22.4446 57.9331 22.4599C57.948 22.4702 57.9717 22.4813 58.0042 22.4931C58.0378 22.5034 58.0756 22.5138 58.1207 22.5233C58.194 22.5176 58.2609 22.5053 58.3197 22.487C58.3796 22.4683 58.4331 22.4454 58.4797 22.4186C58.4893 22.4125 58.5046 22.4041 58.5248 22.3938C58.5454 22.3835 58.5657 22.3694 58.5867 22.3522C58.6104 22.406 58.6325 22.4549 58.6505 22.4977C58.6692 22.5409 58.6837 22.5779 58.6952 22.6092C58.5893 22.7139 58.4923 22.7941 58.4056 22.8472C58.3185 22.9007 58.2399 22.9274 58.1665 22.9274C58.1371 22.9461 58.1027 22.9599 58.0649 22.9687C58.0267 22.9771 57.9817 22.9809 57.9293 22.9809C57.861 22.9809 57.7998 22.9702 57.7464 22.9507C57.6929 22.9297 57.6493 22.8988 57.6131 22.8602C57.5951 22.8415 57.576 22.8136 57.5581 22.7773C57.5393 22.7403 57.5199 22.6971 57.4992 22.6459C57.4828 22.6047 57.4668 22.5745 57.4511 22.5558C57.437 22.5355 57.4198 22.526 57.4007 22.526C57.3862 22.526 57.3694 22.5328 57.351 22.547C57.3319 22.5615 57.3121 22.5821 57.2891 22.6096C57.2815 22.5821 57.2685 22.547 57.2494 22.5061C57.2303 22.4649 57.2051 22.4144 57.175 22.3526V22.3522ZM55.4129 22.3522L55.4389 22.33C55.4408 22.3094 55.4534 22.2853 55.4779 22.2575C55.5016 22.2303 55.5367 22.1979 55.5818 22.1608C55.6093 22.1406 55.6387 22.1207 55.6704 22.1028C55.701 22.0848 55.7304 22.0638 55.7594 22.042C55.8767 21.9408 55.989 21.8438 56.0986 21.7502C56.1624 21.6952 56.225 21.6463 56.2884 21.6066C56.3518 21.5661 56.411 21.534 56.4664 21.5103C56.5054 21.4595 56.5787 21.4084 56.6857 21.3556C56.7922 21.3033 56.8793 21.2773 56.9458 21.2773C56.9725 21.2773 56.9935 21.2854 57.0084 21.2995C57.0252 21.3148 57.0344 21.3339 57.0378 21.3553V21.51C57.0378 21.5638 57.0225 21.6116 56.992 21.654C56.9607 21.6956 56.9152 21.7349 56.8541 21.7701C56.8128 21.788 56.772 21.809 56.7311 21.8319C56.6902 21.8537 56.649 21.8747 56.6089 21.8931C56.5936 21.9118 56.5546 21.9462 56.4897 21.9977C56.4259 22.0493 56.3392 22.1177 56.2296 22.2032C56.1788 22.2426 56.1371 22.2777 56.1035 22.3079C56.0703 22.3392 56.0474 22.364 56.034 22.3824C56.0161 22.4175 56.0016 22.4568 55.9912 22.4996C55.9805 22.5435 55.9756 22.5917 55.9756 22.6482C55.9756 22.6914 55.9825 22.7284 55.9947 22.759C56.008 22.7903 56.0268 22.814 56.0527 22.8335C56.0714 22.8468 56.0974 22.859 56.1299 22.8724C56.1624 22.8858 56.2021 22.8988 56.251 22.9114C56.2785 22.8999 56.3148 22.8896 56.3606 22.8789C56.4053 22.8686 56.4557 22.8552 56.5122 22.8388C56.5749 22.801 56.6387 22.7616 56.7055 22.7208C56.7712 22.6788 56.8358 22.6367 56.9011 22.5943C56.9106 22.5886 56.9217 22.5825 56.9362 22.576C56.95 22.5695 56.9637 22.5588 56.9794 22.547C56.9973 22.5222 57.0229 22.4943 57.0558 22.4618C57.0879 22.4305 57.1272 22.3934 57.1738 22.3526C57.2498 22.5145 57.288 22.6001 57.288 22.6096C57.2196 22.6658 57.1501 22.7231 57.0798 22.7819C57.0092 22.8411 56.9282 22.8896 56.8365 22.927C56.8075 22.9515 56.7827 22.9736 56.7617 22.9943C56.6692 23.0875 56.5608 23.1589 56.4374 23.207C56.3136 23.2548 56.1727 23.2784 56.0157 23.2784C55.9802 23.2784 55.9489 23.2754 55.9202 23.2697C55.8927 23.2639 55.8698 23.2563 55.8511 23.2479C55.7961 23.2097 55.7479 23.1776 55.709 23.149C55.6681 23.1195 55.6333 23.0909 55.6062 23.063C55.5783 23.0367 55.5573 23.0103 55.5451 22.9859C55.5279 22.9603 55.5165 22.9278 55.51 22.8907C55.5031 22.8533 55.5004 22.8067 55.5004 22.7525C55.5004 22.738 55.505 22.7135 55.5138 22.6803C55.5233 22.6459 55.5283 22.6234 55.5283 22.6096C55.5149 22.5684 55.4989 22.5267 55.4794 22.484C55.4607 22.4408 55.4385 22.3969 55.4137 22.3526L55.4129 22.3522ZM52.7442 22.3522C52.7518 22.3384 52.7617 22.3243 52.7736 22.309C52.7862 22.2926 52.8003 22.2739 52.8168 22.2521C52.8355 22.2376 52.8595 22.2158 52.8901 22.1883C52.9195 22.1608 52.9531 22.1284 52.9898 22.0913C53.0234 22.0539 53.0654 22.0084 53.1132 21.9538C53.162 21.8988 53.2209 21.8331 53.2892 21.7552C53.3198 21.7239 53.3568 21.6837 53.4019 21.6349C53.4466 21.5852 53.4989 21.5264 53.5612 21.458C53.6135 21.3969 53.6689 21.3518 53.7289 21.3224C53.7885 21.293 53.8515 21.2773 53.9195 21.2773C53.9859 21.2773 54.0356 21.2983 54.0669 21.3404C54.0982 21.3824 54.1147 21.4423 54.1147 21.5226C54.1147 21.5653 54.0982 21.6475 54.0669 21.767C54.0356 21.8885 53.9859 22.0474 53.9195 22.2468C53.9019 22.2838 53.8859 22.3193 53.8717 22.3526C53.8603 22.3759 53.8526 22.3984 53.8488 22.416C53.845 22.4347 53.8438 22.4492 53.8438 22.458C53.8438 22.4698 53.8496 22.484 53.8629 22.5C53.8725 22.4943 53.8809 22.4874 53.8893 22.4782C53.8981 22.4687 53.9073 22.4576 53.9191 22.445C53.9336 22.4164 53.9562 22.3881 53.9867 22.356C54.018 22.3258 54.0539 22.2915 54.0971 22.2544C54.1143 22.2231 54.1353 22.1914 54.1628 22.1612C54.1891 22.1306 54.2197 22.102 54.2529 22.076C54.261 22.0684 54.2705 22.0565 54.2827 22.0397C54.2942 22.0225 54.3083 22.0057 54.3255 21.9866C54.3492 21.963 54.379 21.9366 54.4126 21.911C54.4458 21.8854 54.4848 21.8575 54.5299 21.83C54.5795 21.8044 54.625 21.7834 54.6647 21.7682C54.7048 21.7536 54.7392 21.7464 54.7693 21.7464C54.8266 21.7464 54.8782 21.7609 54.9233 21.7884C54.9672 21.8159 55.0054 21.8598 55.0375 21.9187C55.0745 22.0344 55.11 22.1406 55.1433 22.2387C55.1631 22.2968 55.1861 22.3396 55.2117 22.3675C55.2365 22.395 55.2651 22.4095 55.2968 22.4095C55.3205 22.4095 55.3415 22.4045 55.3602 22.395C55.3793 22.3854 55.3977 22.3713 55.4141 22.3522L55.5283 22.6092C55.497 22.6348 55.4649 22.6627 55.4317 22.6902C55.3969 22.7189 55.3648 22.7452 55.3335 22.7716C55.2907 22.8105 55.2502 22.838 55.2132 22.8545C55.1761 22.8709 55.1387 22.8781 55.1017 22.8781C55.0589 22.8781 55.018 22.8686 54.9787 22.8506C54.9393 22.8315 54.9061 22.8037 54.8786 22.7666C54.8633 22.7521 54.8454 22.7246 54.8224 22.6845C54.8007 22.6444 54.7747 22.5947 54.7445 22.5348C54.7208 22.5111 54.693 22.4798 54.6624 22.4397C54.6318 22.3999 54.5956 22.3529 54.5547 22.2987L54.5302 22.2903C54.4947 22.3018 54.4596 22.3189 54.4252 22.3407C54.3912 22.3625 54.3538 22.3923 54.3156 22.4274C54.2315 22.5019 54.1708 22.5477 54.1338 22.5665C54.0967 22.5848 54.0719 22.6066 54.0585 22.6302C54.0329 22.6753 53.9879 22.7334 53.9252 22.8037C53.8622 22.8743 53.7831 22.9584 53.688 23.0542C53.6643 23.0791 53.6403 23.102 53.6154 23.1257C53.5917 23.1486 53.5669 23.1715 53.5433 23.1944C53.5192 23.2143 53.4917 23.2284 53.4611 23.2376C53.4306 23.246 53.3966 23.2498 53.3591 23.2498C53.285 23.2498 53.2438 23.2242 53.2381 23.1726C53.2316 23.1207 53.2247 23.0699 53.2194 23.0172C53.248 22.9389 53.2793 22.8419 53.3144 22.7234C53.3496 22.6062 53.3905 22.4702 53.4363 22.3128C53.4363 22.3044 53.4401 22.2922 53.447 22.2758C53.4527 22.2594 53.4615 22.2384 53.4699 22.2128C53.4795 22.1891 53.4859 22.1681 53.4898 22.1501C53.4936 22.1326 53.4951 22.1165 53.4951 22.1043C53.4951 22.0909 53.4905 22.0806 53.481 22.073C53.4714 22.0661 53.4573 22.0623 53.4359 22.0623C53.418 22.0623 53.3931 22.073 53.363 22.0955C53.3313 22.1173 53.295 22.1524 53.2522 22.2013C53.1995 22.2571 53.1579 22.3014 53.1262 22.3327C53.0948 22.364 53.0727 22.3835 53.0624 22.3885C53.0436 22.4015 53.0215 22.4202 52.997 22.4439C52.9722 22.4687 52.9432 22.4954 52.9119 22.5248C52.908 22.5325 52.9023 22.5435 52.8943 22.5581C52.8867 22.5737 52.8756 22.5894 52.8584 22.6089C52.8507 22.5814 52.8374 22.5462 52.8183 22.5053C52.7996 22.4641 52.7744 22.4137 52.7438 22.3518L52.7442 22.3522ZM52.3107 20.1509C52.3576 20.1509 52.392 20.1605 52.4126 20.1784C52.4344 20.1975 52.4451 20.2243 52.4451 20.2598C52.4333 20.3121 52.4241 20.3557 52.4176 20.3912C52.3989 20.4576 52.3821 20.513 52.368 20.5558C52.3542 20.5986 52.3439 20.6292 52.3366 20.6479C52.3191 20.688 52.2961 20.7239 52.2679 20.7544C52.2392 20.785 52.2041 20.8125 52.1632 20.8377C52.1201 20.8671 52.0849 20.8885 52.0551 20.9003C52.0269 20.9122 52.0066 20.9175 51.9955 20.9156C51.9642 20.9122 51.9337 20.908 51.905 20.9053C51.8767 20.903 51.8481 20.9011 51.8202 20.9011C51.7958 20.8881 51.7763 20.8633 51.7633 20.8259C51.7488 20.7888 51.7423 20.738 51.7423 20.6754C51.7423 20.6192 51.7755 20.5489 51.8443 20.4649C51.9119 20.3801 51.9719 20.3347 52.0242 20.3285C52.0555 20.29 52.0929 20.2457 52.1361 20.1952C52.154 20.1819 52.1789 20.1719 52.2083 20.1632C52.2377 20.1544 52.2721 20.1506 52.311 20.1506L52.3107 20.1509ZM51.1472 22.3522L51.1648 22.3331L51.1724 22.3048C51.2228 22.2361 51.3111 22.1463 51.4382 22.0355C51.5647 21.9251 51.6518 21.8358 51.7007 21.7666C51.7194 21.7376 51.7404 21.7155 51.7652 21.7021C51.7889 21.6899 51.813 21.6834 51.8374 21.6834C51.902 21.6834 51.9577 21.6998 52.002 21.7319C52.0471 21.7643 52.0765 21.814 52.091 21.8789C52.1048 21.9366 52.1166 21.995 52.1273 22.0531C52.1388 22.1119 52.1479 22.1711 52.1556 22.2303C52.1682 22.2674 52.1842 22.3235 52.2026 22.3984C52.2217 22.474 52.2347 22.5168 52.2446 22.5283C52.2534 22.5462 52.2675 22.5596 52.2854 22.568C52.3045 22.5772 52.3275 22.5806 52.355 22.5806C52.3882 22.5806 52.4226 22.5749 52.4581 22.5626C52.4921 22.5508 52.5284 22.5298 52.5654 22.4996C52.5929 22.4759 52.6223 22.4507 52.6533 22.4263C52.6838 22.4007 52.7132 22.3755 52.743 22.3522L52.8576 22.6092C52.8282 22.6387 52.7877 22.673 52.7392 22.7112C52.6896 22.7494 52.6307 22.7941 52.5624 22.8445C52.486 22.8995 52.421 22.9415 52.3676 22.9687C52.3137 22.9962 52.2732 23.0095 52.2446 23.0095C52.0761 23.0095 51.9665 22.9897 51.9157 22.9507C51.866 22.9114 51.8099 22.8029 51.7492 22.6245C51.7415 22.6085 51.7312 22.5913 51.7156 22.5707C51.7014 22.5508 51.6846 22.5256 51.6659 22.4981C51.6434 22.4553 51.6243 22.4228 51.6071 22.4022C51.591 22.3801 51.5769 22.3698 51.5651 22.3698C51.536 22.3698 51.4956 22.3892 51.4459 22.4297C51.3955 22.4698 51.3344 22.5298 51.2622 22.6096C51.2522 22.5859 51.2415 22.5561 51.227 22.5229C51.2125 22.4893 51.1972 22.4503 51.182 22.4057C51.1781 22.3938 51.1732 22.3839 51.1674 22.3743C51.1617 22.3655 51.1552 22.3575 51.1476 22.3526L51.1472 22.3522ZM51.1491 22.3522L51.2637 22.6092C51.2381 22.6299 51.1808 22.6474 51.0922 22.6627C51.0032 22.6784 50.8894 22.6914 50.7477 22.7021C50.5846 22.864 50.4207 22.9973 50.2588 23.1039C50.096 23.2108 49.9337 23.2888 49.7748 23.3392C49.7366 23.3506 49.6946 23.3621 49.6461 23.3755C49.6167 23.3755 49.5834 23.3693 49.5483 23.3575C49.5128 23.3453 49.4738 23.3281 49.431 23.3059C49.3871 23.2784 49.352 23.2509 49.3283 23.2246C49.3042 23.1994 49.292 23.1711 49.292 23.1436C49.292 23.0875 49.3184 23.034 49.373 22.9817C49.4268 22.9289 49.5059 22.8797 49.6102 22.8338C49.8187 22.7368 50.0242 22.6383 50.2282 22.5405C50.258 22.5405 50.279 22.5462 50.292 22.5584C50.3057 22.571 50.3119 22.5863 50.3119 22.6043C50.3119 22.6551 50.276 22.6975 50.2041 22.7322C50.132 22.7662 50.0964 22.7911 50.0964 22.8052C50.109 22.8239 50.1205 22.8338 50.13 22.8338C50.1537 22.8338 50.2083 22.7968 50.2912 22.7242C50.3741 22.6516 50.4142 22.6058 50.4123 22.5882L50.3989 22.5233L50.4039 22.5126C50.4524 22.4698 50.4887 22.4316 50.5116 22.3976C50.5349 22.364 50.5464 22.3377 50.5464 22.3163C50.5464 22.2697 50.5238 22.2078 50.4769 22.1295C50.4303 22.0512 50.3607 21.9572 50.2675 21.8476C50.1969 21.7617 50.1254 21.6849 50.0552 21.6169C49.9845 21.5489 49.9161 21.4893 49.8512 21.4366C49.826 21.4141 49.8027 21.3927 49.7847 21.3713C49.766 21.3503 49.7504 21.3301 49.7397 21.3113C49.719 21.2739 49.7026 21.2437 49.69 21.2189C49.6785 21.1952 49.6675 21.1788 49.6587 21.1712C49.6491 21.1608 49.6369 21.1475 49.6205 21.131C49.6041 21.1146 49.5854 21.0967 49.5636 21.0772C49.5246 21.0359 49.4941 20.979 49.4734 20.9065C49.4513 20.8339 49.441 20.7437 49.441 20.636C49.441 20.5646 49.4505 20.497 49.4704 20.4305C49.4891 20.3648 49.5181 20.3052 49.5556 20.2533C49.5609 20.2415 49.567 20.2292 49.5728 20.2143C49.5777 20.1987 49.5842 20.1826 49.5915 20.1635C49.6346 20.0757 49.7068 19.9817 49.8088 19.8805C49.9116 19.7789 50.0449 19.6712 50.211 19.5574C50.2328 19.5463 50.2607 19.5322 50.292 19.5127C50.3233 19.4947 50.3588 19.4699 50.3978 19.4401C50.4203 19.4214 50.4444 19.4053 50.4723 19.3897C50.4986 19.3752 50.5311 19.361 50.5681 19.3477C50.6186 19.3278 50.6751 19.3049 50.7377 19.2812C50.8309 19.2323 50.9081 19.1972 50.9696 19.1754C51.0311 19.1525 51.0777 19.1422 51.1094 19.1422C51.1701 19.1422 51.2159 19.1601 51.2473 19.1972C51.2778 19.2342 51.2931 19.2885 51.2931 19.3591C51.2931 19.4374 51.2878 19.5012 51.2752 19.5509C51.2625 19.6005 51.2465 19.633 51.2263 19.6498C51.0074 19.8251 50.8302 19.9561 50.6969 20.0451C50.5624 20.1337 50.4688 20.1777 50.4146 20.1777C50.389 20.1777 50.368 20.1697 50.3539 20.1548C50.3382 20.1402 50.3309 20.1177 50.3309 20.0879C50.3309 20.0375 50.373 19.9825 50.457 19.9225C50.541 19.8614 50.5819 19.8156 50.58 19.7843L50.5544 19.7671C50.546 19.7671 50.5349 19.7697 50.5231 19.7758C50.5105 19.7816 50.4986 19.7885 50.4849 19.7976C50.3222 19.9298 50.198 20.0493 50.1151 20.154C50.033 20.2586 49.9914 20.3511 49.9914 20.429C49.9914 20.4901 50.0017 20.5531 50.0235 20.6158C50.0441 20.6796 50.0758 20.7445 50.1167 20.8113C50.1461 20.8579 50.19 20.9172 50.2461 20.9886C50.3031 21.0611 50.3756 21.1471 50.4635 21.2479C50.5846 21.3866 50.6766 21.4943 50.7423 21.5718C50.8073 21.6478 50.8435 21.688 50.8512 21.6922C50.8882 21.7407 50.9207 21.788 50.9463 21.8365C50.9719 21.8854 50.9902 21.932 50.9998 21.9767C51.0082 22.0119 51.015 22.0562 51.0185 22.107C51.0223 22.1597 51.0246 22.2235 51.0246 22.2979C51.0246 22.338 51.0311 22.3606 51.0433 22.3675C51.0559 22.3743 51.0758 22.377 51.104 22.377C51.1147 22.377 51.1231 22.3751 51.1296 22.3701C51.1354 22.3655 51.1434 22.3598 51.1495 22.3522H51.1491ZM79.328 17.3836L65.2741 17.7885L53.6261 17.798L39.5631 17.384L53.638 16.97L65.2871 16.9803L79.328 17.3844V17.3836Z" fill="#3C543F"/>
<path fill-rule="evenodd" clip-rule="evenodd" d="M2.44629 3.71251C5.14676 3.71251 7.84723 3.71251 10.5473 3.71251C12.6225 3.52191 14.5847 2.73087 16.3703 0.998291C15.5079 3.09641 14.0767 4.42869 11.9308 4.79919C10.7887 4.99705 9.49272 4.87024 8.31857 4.89965C6.82815 4.93747 5.46569 5.18268 4.08032 6.6307C5.44125 6.63949 6.30525 5.66892 8.16388 6.65668C5.7155 6.98516 3.4329 9.30253 2.44629 8.41026V3.71213V3.71251ZM13.4907 8.16924C12.7344 10.291 13.1172 11.634 14.2749 12.4461C15.4227 13.2516 16.4945 13.0622 17.6782 14.1401C18.135 14.5556 18.5433 15.0896 18.8985 15.7542C19.7259 15.7176 20.3683 15.1794 20.9149 14.3792C20.7927 15.4685 20.3053 16.1733 19.3798 16.4185C19.355 17.3913 19.062 18.2133 18.3943 18.8245C18.1659 16.8791 16.0246 15.8062 14.1675 14.1221C12.2016 12.3387 11.2822 10.3594 13.4903 8.16886L13.4907 8.16924ZM9.22955 10.301C9.20243 13.116 9.9885 15.5568 12.1852 17.3478C13.2375 18.2057 14.5621 18.8027 15.6851 19.6422C16.7611 20.447 17.9241 21.7025 17.4524 23.6773C16.6755 22.1216 15.0251 21.4291 13.1355 20.1239C11.5652 19.0391 10.1 17.7213 9.23604 15.9918C8.34645 14.21 8.28687 12.3204 9.22955 10.301ZM5.23805 13.0904C5.1227 21.0066 12.8154 20.4528 13.8853 26.487C11.4457 22.7946 8.01644 22.463 5.0822 20.4512C2.46844 18.6392 2.83244 16.111 5.23842 13.0904H5.23805ZM0.937917 7.47789C1.37412 9.46142 2.65522 10.3399 4.68038 10.2456C2.43788 12.7707 1.24959 15.4911 2.30839 18.627C0.574667 16.8291 0.220213 14.4754 2.88822 10.9045C1.18543 10.3036 0.500953 9.17915 0.937917 7.47789ZM15.5006 3.71289H19.5169V12.8494C18.4665 12.0156 18.9631 11.6054 18.0269 10.2345C17.8206 9.932 17.4582 9.91558 16.483 9.64247C15.5949 9.3942 15.391 8.25595 15.8463 7.88927C16.3371 7.49317 17.0479 8.3121 17.3264 8.6635L18.6862 10.3789C18.936 7.35108 15.0927 6.39312 15.5002 3.71251L15.5006 3.71289Z" fill="#D7B56D"/>
<mask id="mask0_311_2" style="mask-type:luminance" maskUnits="userSpaceOnUse" x="0" y="0" width="21" height="27">
<path d="M2.44629 3.71251C5.14676 3.71251 7.84723 3.71251 10.5473 3.71251C12.6225 3.52191 14.5847 2.73087 16.3703 0.998291C15.5079 3.09641 14.0767 4.42869 11.9308 4.79919C10.7887 4.99705 9.49272 4.87024 8.31857 4.89965C6.82815 4.93747 5.46569 5.18268 4.08032 6.6307C5.44125 6.63949 6.30525 5.66892 8.16388 6.65668C5.7155 6.98516 3.4329 9.30253 2.44629 8.41026V3.71213V3.71251ZM13.4907 8.16924C12.7344 10.291 13.1172 11.634 14.2749 12.4461C15.4227 13.2516 16.4945 13.0622 17.6782 14.1401C18.135 14.5556 18.5433 15.0896 18.8985 15.7542C19.7259 15.7176 20.3683 15.1794 20.9149 14.3792C20.7927 15.4685 20.3053 16.1733 19.3798 16.4185C19.355 17.3913 19.062 18.2133 18.3943 18.8245C18.1659 16.8791 16.0246 15.8062 14.1675 14.1221C12.2016 12.3387 11.2822 10.3594 13.4903 8.16886L13.4907 8.16924ZM9.22955 10.301C9.20243 13.116 9.9885 15.5568 12.1852 17.3478C13.2375 18.2057 14.5621 18.8027 15.6851 19.6422C16.7611 20.447 17.9241 21.7025 17.4524 23.6773C16.6755 22.1216 15.0251 21.4291 13.1355 20.1239C11.5652 19.0391 10.1 17.7213 9.23604 15.9918C8.34645 14.21 8.28687 12.3204 9.22955 10.301ZM5.23805 13.0904C5.1227 21.0066 12.8154 20.4528 13.8853 26.487C11.4457 22.7946 8.01644 22.463 5.0822 20.4512C2.46844 18.6392 2.83244 16.111 5.23842 13.0904H5.23805ZM0.937917 7.47789C1.37412 9.46142 2.65522 10.3399 4.68038 10.2456C2.43788 12.7707 1.24959 15.4911 2.30839 18.627C0.574667 16.8291 0.220213 14.4754 2.88822 10.9045C1.18543 10.3036 0.500953 9.17915 0.937917 7.47789ZM15.5006 3.71289H19.5169V12.8494C18.4665 12.0156 18.9631 11.6054 18.0269 10.2345C17.8206 9.932 17.4582 9.91558 16.483 9.64247C15.5949 9.3942 15.391 8.25595 15.8463 7.88927C16.3371 7.49317 17.0479 8.3121 17.3264 8.6635L18.6862 10.3789C18.936 7.35108 15.0927 6.39312 15.5002 3.71251L15.5006 3.71289Z" fill="white"/>
</mask>
<g mask="url(#mask0_311_2)">
<path d="M35.1728 -5.38501H-12.2619V31.3739H35.1728V-5.38501Z" fill="url(#paint0_linear_311_2)"/>
</g>
<defs>
<linearGradient id="paint0_linear_311_2" x1="-12.2615" y1="12.9946" x2="35.1732" y2="12.9946" gradientUnits="userSpaceOnUse">
<stop stop-color="#A06E2F"/>
<stop offset="0.219608" stop-color="#FBDB5B"/>
<stop offset="0.431373" stop-color="#9E6E2E"/>
<stop offset="0.690196" stop-color="#ECC954"/>
<stop offset="1" stop-color="#E5C152"/>
</linearGradient>
</defs>
</svg>
