<svg width="89" height="23" viewBox="0 0 89 23" fill="none" xmlns="http://www.w3.org/2000/svg">
<path d="M33.8967 9.95668L35.6785 9.77984C35.7858 10.3757 36.0005 10.8119 36.3271 11.0923C36.6533 11.3722 37.0937 11.5109 37.6472 11.5109C38.2327 11.5109 38.6746 11.3867 38.9714 11.1381C39.2686 10.8898 39.4179 10.5991 39.4179 10.2661C39.4179 10.0514 39.3549 9.87036 39.2308 9.71872C39.1062 9.56899 38.8874 9.43874 38.5757 9.32912C38.3629 9.25349 37.8786 9.12286 37.1204 8.93341C36.1453 8.68895 35.4612 8.38988 35.0674 8.03427C34.5132 7.53504 34.2378 6.92658 34.2378 6.20849C34.2378 5.74746 34.368 5.31355 34.627 4.91135C34.8882 4.50914 35.2629 4.20396 35.7538 3.99349C36.2442 3.78303 36.834 3.67761 37.5291 3.67761C38.6601 3.67761 39.5127 3.92818 40.0833 4.4316C40.6563 4.93465 40.9553 5.60423 40.9847 6.44454L39.1525 6.50757C39.0745 6.04005 38.9084 5.70545 38.6536 5.5011C38.3988 5.29713 38.0157 5.194 37.5062 5.194C36.9798 5.194 36.5669 5.30324 36.2698 5.52249C36.078 5.66343 35.9814 5.85098 35.9814 6.08665C35.9814 6.30131 36.0716 6.48465 36.253 6.63629C36.4825 6.83224 37.0402 7.03429 37.9268 7.24475C38.8129 7.45331 39.468 7.67217 39.8912 7.89562C40.3167 8.12098 40.6494 8.42616 40.8892 8.81576C41.1291 9.20498 41.2494 9.68549 41.2494 10.2561C41.2494 10.7741 41.1062 11.2603 40.8178 11.7133C40.529 12.166 40.1227 12.5028 39.5963 12.7221C39.07 12.9432 38.413 13.0529 37.6277 13.0529C36.4841 13.0529 35.6059 12.7893 34.9933 12.2611C34.3802 11.7347 34.0162 10.9658 33.8959 9.95707L33.8967 9.95668ZM50.9532 12.8882H48.9803L48.1992 10.8287H44.571L43.8193 12.8882H41.882L45.3941 3.84186H47.3291L50.9532 12.8882ZM47.6049 9.30009L46.3479 5.95181L45.1267 9.30009H47.6049ZM51.9279 12.8882V3.84186H55.7751C56.7418 3.84186 57.4454 3.92398 57.8831 4.08593C58.3231 4.24788 58.6726 4.53626 58.9358 4.95146C59.1993 5.36818 59.3319 5.84219 59.3319 6.37694C59.3319 7.05721 59.134 7.61755 58.736 8.05948C58.338 8.50179 57.7444 8.77948 56.9526 8.89521C57.3464 9.12515 57.6707 9.37763 57.9255 9.65341C58.1825 9.92918 58.5275 10.42 58.9614 11.1232L60.0649 12.8879H57.8812L56.5711 10.9127C56.1016 10.2115 55.7796 9.76952 55.6047 9.58618C55.4321 9.40513 55.2491 9.2787 55.0551 9.21109C54.8591 9.14387 54.5516 9.11026 54.1307 9.11026H53.7602V12.8879H51.9279V12.8882ZM53.7602 7.67026H55.1116C55.9878 7.67026 56.5332 7.63245 56.7521 7.55873C56.9687 7.48501 57.1414 7.35667 57.2636 7.17562C57.3881 6.99419 57.4492 6.76692 57.4492 6.49535C57.4492 6.18978 57.3671 5.9457 57.2048 5.75625C57.0428 5.56871 56.8132 5.45068 56.5183 5.40255C56.369 5.38193 55.9244 5.37123 55.1853 5.37123H53.7602V7.67064V7.67026ZM61.0775 12.8882V3.84186H62.9093V7.84902L66.6006 3.84186H69.0562L65.6426 7.36469L69.2331 12.8882H66.8703L64.3814 8.64082L62.9093 10.153V12.8882H61.0775ZM69.7973 8.41967C69.7973 7.49761 69.9363 6.72261 70.2121 6.09505C70.4161 5.63402 70.6983 5.21921 71.0547 4.85291C71.4103 4.48661 71.7999 4.21503 72.2235 4.03589C72.7876 3.79831 73.4385 3.67799 74.1757 3.67799C75.5107 3.67799 76.5759 4.0928 77.3784 4.92013C78.1786 5.75014 78.579 6.90175 78.579 8.37803C78.579 9.84133 78.181 10.9872 77.3869 11.8126C76.5931 12.6403 75.5298 13.0533 74.2009 13.0533C72.8553 13.0533 71.7835 12.6423 70.9897 11.8191C70.1956 10.9979 69.7976 9.86463 69.7976 8.42005L69.7973 8.41967ZM71.68 8.35894C71.68 9.3845 71.9179 10.1614 72.3919 10.692C72.8656 11.2202 73.4679 11.4857 74.1963 11.4857C74.9274 11.4857 75.5252 11.2225 75.9946 10.6985C76.4621 10.1721 76.6963 9.38451 76.6963 8.33373C76.6963 7.29556 76.4686 6.52056 76.0118 6.01102C75.5569 5.49957 74.9522 5.24442 74.1963 5.24442C73.4427 5.24442 72.8342 5.50377 72.3728 6.01942C71.9118 6.53736 71.68 7.31656 71.68 8.35894ZM80.004 12.8882V3.84186H83.8512C84.8179 3.84186 85.5215 3.92398 85.9592 4.08593C86.3992 4.24788 86.7487 4.53626 87.0119 4.95146C87.2754 5.36818 87.408 5.84219 87.408 6.37694C87.408 7.05721 87.2101 7.61755 86.8121 8.05948C86.4141 8.50179 85.8206 8.77948 85.0287 8.89521C85.4226 9.12515 85.7469 9.37763 86.0016 9.65341C86.2587 9.92918 86.6036 10.42 87.0375 11.1232L88.141 12.8879H85.9573L84.6472 10.9127C84.1778 10.2115 83.8557 9.76952 83.6808 9.58618C83.5082 9.40513 83.3252 9.2787 83.1312 9.21109C82.9352 9.14387 82.6277 9.11026 82.2068 9.11026H81.8363V12.8879H80.004V12.8882ZM81.8363 7.67026H83.1877C84.0639 7.67026 84.6094 7.63245 84.8282 7.55873C85.0448 7.48501 85.2175 7.35667 85.3397 7.17562C85.4642 6.99419 85.5253 6.76692 85.5253 6.49535C85.5253 6.18978 85.4432 5.9457 85.2809 5.75625C85.1189 5.56871 84.8894 5.45068 84.5945 5.40255C84.4451 5.38193 84.0005 5.37123 83.2614 5.37123H81.8363V7.67064V7.67026ZM34.1331 20.1967V15.6739H34.6629L36.6919 19.0921H36.4077L38.4107 15.6739H38.9405L38.947 20.1967H38.3263L38.3198 16.6494H38.4684L36.6854 19.6478H36.3882L34.5918 16.6494H34.7534V20.1967H34.1331ZM40.8919 17.625H43.2177V18.1742H40.8919V17.625ZM40.95 19.6345H43.5863V20.1963H40.3037V15.6735H43.4958V16.2354H40.95V19.6345ZM44.6328 20.1963V15.6735H46.6618C47.1832 15.6735 47.5835 15.7778 47.8639 15.9867C48.1438 16.1957 48.2836 16.481 48.2836 16.8427C48.2836 17.0883 48.229 17.2949 48.119 17.463C48.0094 17.6311 47.8616 17.7605 47.6763 17.8507C47.4911 17.9408 47.2909 17.9863 47.0755 17.9863L47.192 17.7923C47.4506 17.7923 47.6786 17.8377 47.8769 17.9278C48.0751 18.0184 48.2325 18.1509 48.3486 18.3255C48.4651 18.4996 48.5231 18.7162 48.5231 18.9748C48.5231 19.3625 48.3776 19.6631 48.0869 19.8762C47.7963 20.0894 47.3642 20.1959 46.7913 20.1959H44.6332L44.6328 20.1963ZM45.2791 19.673H46.7653C47.1229 19.673 47.396 19.6131 47.5858 19.4924C47.7753 19.3713 47.87 19.1822 47.87 18.9236C47.87 18.6608 47.7753 18.4695 47.5858 18.3488C47.396 18.2277 47.1229 18.1677 46.7653 18.1677H45.2211V17.6444H46.6038C46.9315 17.6444 47.1855 17.5845 47.3666 17.4634C47.5472 17.3427 47.6377 17.162 47.6377 16.9206C47.6377 16.6796 47.5472 16.4985 47.3666 16.3778C47.1855 16.2571 46.9315 16.1972 46.6038 16.1972H45.2795V19.673H45.2791ZM50.1125 17.625H52.4383V18.1742H50.1125V17.625ZM50.1705 19.6345H52.8068V20.1963H49.5243V15.6735H52.7163V16.2354H50.1705V19.6345ZM53.8534 20.1963V15.6735H54.4997V19.6345H56.9485V20.1963H53.8534Z" fill="#0A622F"/>
<path fill-rule="evenodd" clip-rule="evenodd" d="M0.847388 9.26007C0.847388 18.8637 15.8035 20.8236 15.8035 14.1912C15.8035 9.24173 8.32582 11.8112 8.32582 9.45754C8.32582 6.73912 18.7557 7.87889 18.7557 14.7832C18.7557 17.7763 14.9491 20.5031 11.8678 20.5031C8.79031 20.5031 6.654 20.2625 4.29195 17.892C4.00929 17.6082 3.70639 17.3473 3.40579 17.3473C3.05438 17.3473 2.37983 17.9623 1.63463 18.1361C1.74883 19.5138 4.45657 21.4072 7.03901 22.3262C9.16769 23.0837 12.7142 23.1123 14.8005 22.3931C15.7764 22.0569 16.8008 21.484 18.1709 20.5092C18.7438 20.1017 19.455 19.2388 20.0349 18.2618C21.1662 16.3554 21.3294 14.9639 20.9394 12.8203C20.6116 11.0224 19.7587 9.59925 17.8042 8.04352C15.5094 6.21583 10.0252 4.44582 7.28766 6.83957C4.60056 9.1894 5.81634 11.9032 8.55616 12.776C9.78073 13.1664 13.4415 12.8471 13.4415 14.1912C13.4415 15.1484 11.7219 15.8508 10.5485 15.7255C-0.0563163 14.5953 1.75302 3.34271 10.8834 3.34271C14.8845 3.34271 15.7657 4.56117 17.771 5.90682C18.0586 5.69598 17.9478 5.76168 18.185 5.53288L19.3458 4.13185C18.1702 3.34271 17.0247 2.08033 14.9407 1.41648C12.6279 0.679673 8.81587 0.860342 6.6089 1.77399C5.74299 2.13228 4.90653 2.63723 3.99097 3.33813C2.5758 4.42061 0.847015 6.78724 0.847015 9.25968L0.847388 9.26007Z" fill="#A37D52"/>
<path fill-rule="evenodd" clip-rule="evenodd" d="M26.8598 1.32397H28.7891V22.5496H26.8598V1.32397Z" fill="#B2B3B3"/>
</svg>
