<?xml version="1.0" encoding="UTF-8"?>
<!DOCTYPE svg PUBLIC "-//W3C//DTD SVG 1.1//EN" "http://www.w3.org/Graphics/SVG/1.1/DTD/svg11.dtd">
<!-- Creator: CorelDRAW -->
<svg xmlns="http://www.w3.org/2000/svg" xml:space="preserve" width="32.0762mm" height="12.1762mm" version="1.1" style="shape-rendering:geometricPrecision; text-rendering:geometricPrecision; image-rendering:optimizeQuality; fill-rule:evenodd; clip-rule:evenodd"
viewBox="0 0 666.03 252.83"
 xmlns:xlink="http://www.w3.org/1999/xlink"
 xmlns:xodm="http://www.corel.com/coreldraw/odm/2003">
 <defs>
  <style type="text/css">
   <![CDATA[
    .str0 {stroke:#2B2A29;stroke-width:1.58;stroke-miterlimit:22.9256}
    .fil0 {fill:none}
    .fil2 {fill:#2B2A29;fill-rule:nonzero}
    .fil3 {fill:#D7B56D;fill-rule:nonzero}
    .fil1 {fill:#D7B56D;fill-rule:nonzero}
   ]]>
  </style>
 </defs>
 <g id="Слой_x0020_1">
  <metadata id="CorelCorpID_0Corel-Layer"/>
  <rect class="fil0 str0" x="0.79" y="0.79" width="664.45" height="251.24"/>
  <g id="_2233689009504">
   <g>
    <path class="fil1" d="M146.33 115.83c-2.39,-2.39 -2.39,-6.26 0,-8.65l58.37 -58.37c1.59,-1.59 4.32,-0.47 4.32,1.79l-0 121.81c0,2.25 -2.73,3.38 -4.32,1.79l-8.37 -8.37c-2.76,-2.76 -4.32,-6.53 -4.32,-10.43l0 -79.35c0,-1.13 -1.36,-1.69 -2.16,-0.89l-28.72 28.72c-1.38,1.38 -2.16,3.26 -2.16,5.22l0 4.83c0,1.95 0.78,3.84 2.16,5.22l3.69 3.69c0.8,0.8 2.16,0.23 2.16,-0.9l0 -6.45c0,-3.91 1.56,-7.67 4.32,-10.44l8.37 -8.37c1.59,-1.59 4.32,-0.47 4.32,1.79l0 48.9c0,2.25 -2.73,3.39 -4.32,1.79l-33.34 -33.34z"/>
    <path class="fil1" d="M278.52 107.18c2.39,2.39 2.39,6.26 0,8.65l-58.37 58.37c-1.59,1.59 -4.33,0.46 -4.32,-1.79l0 -121.81c0,-2.26 2.73,-3.39 4.32,-1.79l8.37 8.37c2.76,2.76 4.32,6.53 4.32,10.44l0 79.35c0,1.13 1.37,1.69 2.16,0.89l28.72 -28.72c1.38,-1.38 2.16,-3.27 2.16,-5.22l0 -4.83c0,-1.95 -0.78,-3.84 -2.16,-5.22l-3.69 -3.69c-0.8,-0.8 -2.16,-0.23 -2.16,0.9l0 6.45c0,3.91 -1.56,7.67 -4.32,10.43l-8.37 8.37c-1.59,1.59 -4.32,0.47 -4.32,-1.79l0 -48.9c0,-2.25 2.73,-3.38 4.32,-1.79l33.34 33.34z"/>
   </g>
   <path class="fil2" d="M296.14 159.11l0 -8.03 3.47 0c0.89,0 1.59,0.18 2.08,0.54 0.49,0.36 0.74,0.87 0.74,1.53 0,0.44 -0.1,0.8 -0.3,1.1 -0.2,0.3 -0.48,0.53 -0.83,0.68 -0.35,0.15 -0.73,0.23 -1.14,0.23l0.2 -0.28c0.51,0 0.95,0.08 1.32,0.24 0.37,0.16 0.66,0.39 0.87,0.7 0.21,0.31 0.31,0.7 0.31,1.15 0,0.68 -0.25,1.21 -0.75,1.58 -0.5,0.38 -1.26,0.56 -2.27,0.56l-3.69 0zm0.85 -0.7l2.83 0c0.7,0 1.24,-0.12 1.62,-0.36 0.37,-0.24 0.56,-0.62 0.56,-1.15 0,-0.52 -0.19,-0.9 -0.56,-1.14 -0.38,-0.24 -0.91,-0.36 -1.62,-0.36l-2.93 0 0 -0.7 2.65 0c0.64,0 1.14,-0.12 1.5,-0.37 0.36,-0.25 0.53,-0.61 0.53,-1.09 0,-0.49 -0.18,-0.86 -0.53,-1.1 -0.36,-0.24 -0.85,-0.36 -1.5,-0.36l-2.56 0 0 6.63zm15.87 -3.74l4.25 0 0 0.72 -4.25 0 0 -0.72zm0.09 3.7l4.83 0 0 0.74 -5.68 0 0 -8.03 5.51 0 0 0.74 -4.66 0 0 6.56zm19.36 0.8c-0.6,0 -1.17,-0.1 -1.72,-0.29 -0.55,-0.2 -0.97,-0.44 -1.27,-0.75l0.33 -0.65c0.28,0.27 0.66,0.5 1.14,0.69 0.48,0.19 0.98,0.28 1.51,0.28 0.51,0 0.92,-0.06 1.24,-0.19 0.32,-0.13 0.55,-0.3 0.7,-0.51 0.15,-0.21 0.22,-0.45 0.22,-0.71 0,-0.31 -0.09,-0.56 -0.27,-0.76 -0.18,-0.19 -0.42,-0.34 -0.71,-0.45 -0.29,-0.11 -0.61,-0.21 -0.97,-0.29 -0.35,-0.09 -0.7,-0.17 -1.05,-0.27 -0.35,-0.1 -0.67,-0.22 -0.97,-0.38 -0.29,-0.16 -0.53,-0.37 -0.71,-0.64 -0.18,-0.26 -0.27,-0.61 -0.27,-1.04 0,-0.4 0.11,-0.76 0.32,-1.1 0.21,-0.33 0.53,-0.6 0.97,-0.8 0.44,-0.2 0.99,-0.3 1.67,-0.3 0.45,0 0.9,0.06 1.34,0.19 0.44,0.13 0.83,0.3 1.15,0.52l-0.29 0.68c-0.34,-0.23 -0.71,-0.4 -1.09,-0.51 -0.39,-0.11 -0.76,-0.16 -1.12,-0.16 -0.48,0 -0.88,0.06 -1.19,0.2 -0.31,0.13 -0.54,0.3 -0.69,0.52 -0.15,0.22 -0.22,0.47 -0.22,0.74 0,0.31 0.09,0.56 0.27,0.76 0.18,0.19 0.42,0.34 0.71,0.45 0.29,0.11 0.62,0.2 0.97,0.29 0.35,0.09 0.7,0.18 1.05,0.28 0.35,0.1 0.67,0.23 0.96,0.38 0.29,0.16 0.53,0.37 0.71,0.62 0.18,0.26 0.27,0.6 0.27,1.02 0,0.39 -0.11,0.75 -0.32,1.08 -0.21,0.33 -0.54,0.6 -0.98,0.8 -0.44,0.2 -1,0.3 -1.69,0.3zm13.6 -0.07l0 -7.3 -2.82 0 0 -0.74 6.49 0 0 0.74 -2.82 0 0 7.3 -0.85 0zm14.2 0l0 -2.98 0.2 0.53 -3.41 -5.58 0.91 0 2.99 4.9 -0.48 0 2.99 -4.9 0.85 0 -3.41 5.58 0.2 -0.53 0 2.98 -0.84 0zm12.51 0l0 -8.03 0.85 0 0 7.3 4.5 0 0 0.74 -5.35 0zm14.83 -4.44l4.24 0 0 0.72 -4.24 0 0 -0.72zm0.09 3.7l4.83 0 0 0.74 -5.68 0 0 -8.03 5.51 0 0 0.74 -4.66 0 0 6.56zm17.15 0.74l0 -8.03 3.47 0c0.89,0 1.59,0.18 2.08,0.54 0.49,0.36 0.74,0.87 0.74,1.53 0,0.44 -0.1,0.8 -0.31,1.1 -0.2,0.3 -0.48,0.53 -0.83,0.68 -0.35,0.15 -0.73,0.23 -1.14,0.23l0.2 -0.28c0.51,0 0.96,0.08 1.32,0.24 0.37,0.16 0.66,0.39 0.87,0.7 0.21,0.31 0.31,0.7 0.31,1.15 0,0.68 -0.25,1.21 -0.75,1.58 -0.5,0.38 -1.26,0.56 -2.27,0.56l-3.7 0zm0.85 -0.7l2.83 0c0.7,0 1.24,-0.12 1.62,-0.36 0.38,-0.24 0.56,-0.62 0.56,-1.15 0,-0.52 -0.19,-0.9 -0.56,-1.14 -0.37,-0.24 -0.91,-0.36 -1.62,-0.36l-2.93 0 0 -0.7 2.65 0c0.64,0 1.14,-0.12 1.5,-0.37 0.36,-0.25 0.53,-0.61 0.53,-1.09 0,-0.49 -0.18,-0.86 -0.53,-1.1 -0.36,-0.24 -0.85,-0.36 -1.5,-0.36l-2.56 0 0 6.63zm15.87 -3.74l4.24 0 0 0.72 -4.24 0 0 -0.72zm0.09 3.7l4.83 0 0 0.74 -5.68 0 0 -8.03 5.51 0 0 0.74 -4.66 0 0 6.56zm19.06 0.74l0 -2.98 0.2 0.53 -3.41 -5.58 0.91 0 2.99 4.9 -0.48 0 2.99 -4.9 0.85 0 -3.41 5.58 0.2 -0.53 0 2.98 -0.84 0zm15.85 0.07c-0.6,0 -1.16,-0.1 -1.68,-0.3 -0.52,-0.2 -0.97,-0.49 -1.34,-0.86 -0.38,-0.37 -0.67,-0.8 -0.88,-1.3 -0.21,-0.49 -0.32,-1.03 -0.32,-1.62 0,-0.59 0.1,-1.13 0.32,-1.62 0.21,-0.49 0.5,-0.92 0.88,-1.3 0.38,-0.37 0.82,-0.66 1.34,-0.86 0.51,-0.2 1.07,-0.3 1.69,-0.3 0.6,0 1.16,0.1 1.68,0.3 0.51,0.2 0.96,0.49 1.34,0.86 0.38,0.37 0.67,0.8 0.88,1.3 0.21,0.5 0.32,1.04 0.32,1.63 0,0.59 -0.11,1.13 -0.32,1.63 -0.21,0.5 -0.5,0.93 -0.88,1.3 -0.38,0.37 -0.82,0.65 -1.34,0.86 -0.51,0.2 -1.07,0.3 -1.68,0.3zm0 -0.76c0.48,0 0.93,-0.08 1.34,-0.25 0.41,-0.17 0.76,-0.4 1.07,-0.7 0.3,-0.3 0.54,-0.65 0.71,-1.06 0.17,-0.4 0.25,-0.84 0.25,-1.32 0,-0.48 -0.09,-0.92 -0.25,-1.32 -0.17,-0.4 -0.4,-0.75 -0.71,-1.05 -0.3,-0.3 -0.66,-0.54 -1.07,-0.7 -0.41,-0.16 -0.86,-0.25 -1.34,-0.25 -0.48,0 -0.93,0.08 -1.34,0.25 -0.41,0.17 -0.77,0.4 -1.07,0.7 -0.3,0.3 -0.54,0.65 -0.71,1.05 -0.17,0.4 -0.26,0.84 -0.26,1.32 0,0.48 0.09,0.91 0.26,1.32 0.17,0.41 0.41,0.76 0.71,1.06 0.3,0.3 0.66,0.53 1.07,0.7 0.41,0.16 0.86,0.25 1.34,0.25zm16.67 0.76c-1.03,0 -1.83,-0.29 -2.42,-0.88 -0.59,-0.59 -0.88,-1.46 -0.88,-2.62l0 -4.6 0.85 0 0 4.57c0,0.95 0.21,1.65 0.64,2.1 0.43,0.45 1.03,0.67 1.81,0.67 0.79,0 1.4,-0.22 1.83,-0.67 0.43,-0.45 0.64,-1.15 0.64,-2.1l0 -4.57 0.83 0 0 4.6c0,1.15 -0.29,2.03 -0.88,2.62 -0.59,0.59 -1.39,0.88 -2.41,0.88z"/>
   <path class="fil3" d="M403.1 83.43c-0.54,0 -0.98,-0.44 -0.98,-0.98 0,-0.54 0.44,-0.98 0.98,-0.98 0.54,0 0.98,0.44 0.98,0.98 0,0.54 -0.44,0.98 -0.98,0.98zm-7.32 -0.57c-0.86,0 -1.55,-0.7 -1.55,-1.55 0,-0.86 0.7,-1.55 1.55,-1.55 0.86,0 1.55,0.7 1.55,1.55 0,0.86 -0.69,1.55 -1.55,1.55zm-7.32 0.57c-0.54,0 -0.98,-0.44 -0.98,-0.98 0,-0.54 0.44,-0.98 0.98,-0.98 0.54,0 0.98,0.44 0.98,0.98 0,0.54 -0.44,0.98 -0.98,0.98zm23.82 -5.15c-1.12,2.41 -3.2,2.53 -4.75,2.03 -2.12,-0.69 -2.05,-2.84 -1.97,-3.28 0.24,-1.25 1.18,-1.59 1.84,-2.13 0.8,-0.66 1.59,-1.81 0.83,-3.06 -0.48,-0.79 -1.43,-1.37 -2.58,-1.11 -1.71,0.39 -1.72,2.11 -1.47,3.08 0.23,0.88 0.34,1.44 0.1,2.25 -0.64,2.12 -3.11,3.02 -5.52,1.72 -1.37,-0.74 -2.21,-2.95 -0.78,-4.73 1.43,-1.78 2.78,-3.97 0.47,-6.28 -1.18,-1.18 -2.23,-2.14 -2.69,-2.93 -0.46,0.78 -1.51,1.74 -2.69,2.93 -2.31,2.32 -0.96,4.5 0.47,6.28 1.43,1.78 0.59,3.99 -0.78,4.73 -2.41,1.3 -4.88,0.4 -5.52,-1.72 -0.25,-0.82 -0.13,-1.38 0.1,-2.25 0.25,-0.97 0.24,-2.69 -1.47,-3.08 -1.15,-0.26 -2.09,0.32 -2.58,1.11 -0.76,1.25 0.03,2.4 0.83,3.06 0.66,0.55 1.61,0.89 1.84,2.13 0.09,0.44 0.16,2.59 -1.97,3.28 -1.54,0.5 -3.63,0.38 -4.75,-2.03 -1.23,-2.66 -0.71,-6.63 -8.27,-2.02 0,0 6.04,6.39 8.59,14.51 2.1,-1.73 4.39,-3.08 6.87,-4.06 3.12,-1.23 6.18,-1.85 9.18,-1.85 4.1,0 7.77,0.74 11.03,2.21 1.99,0.9 3.79,1.99 5.41,3.27 2.62,-7.92 8.46,-14.09 8.46,-14.09 -7.56,-4.6 -7.05,-0.63 -8.27,2.02zm-23 11.43c2.1,-0.66 4.28,-1.15 6.5,-1.15 1.76,0 3.49,0.31 5.17,0.76 -1.62,-0.62 -3.42,-0.93 -5.38,-0.93 -2.38,0 -4.47,0.44 -6.3,1.32z"/>
   <path class="fil2" d="M395.66 86.79c4.1,0 7.77,0.74 11.03,2.21 3.25,1.48 6.01,3.46 8.28,5.94 2.27,2.49 4.02,5.34 5.25,8.57 1.23,3.22 1.84,6.56 1.84,10 0,4.54 -0.81,8.55 -2.42,12.05 -1.61,3.5 -3.69,6.45 -6.23,8.86 -2.54,2.4 -5.38,4.24 -8.53,5.49 -3.14,1.26 -6.22,1.89 -9.22,1.89 -4.04,0 -7.68,-0.74 -10.91,-2.21 -3.22,-1.48 -5.96,-3.46 -8.2,-5.94 -2.24,-2.49 -3.98,-5.34 -5.21,-8.57 -1.23,-3.22 -1.85,-6.59 -1.85,-10.08 0,-4.54 0.79,-8.55 2.38,-12.05 1.59,-3.5 3.64,-6.45 6.15,-8.86 2.51,-2.4 5.33,-4.22 8.44,-5.45 3.12,-1.23 6.18,-1.84 9.18,-1.84zm-0.08 51.41c2.9,0 5.4,-0.67 7.5,-2.01 2.11,-1.34 3.84,-3.14 5.21,-5.41 1.37,-2.27 2.38,-4.89 3.03,-7.87 0.66,-2.98 0.98,-6.11 0.98,-9.39 0,-3.06 -0.34,-6 -1.03,-8.81 -0.68,-2.82 -1.72,-5.29 -3.12,-7.42 -1.39,-2.13 -3.14,-3.82 -5.25,-5.08 -2.1,-1.26 -4.55,-1.89 -7.34,-1.89 -2.9,0 -5.38,0.66 -7.46,1.97 -2.08,1.31 -3.79,3.09 -5.12,5.33 -1.34,2.24 -2.32,4.84 -2.95,7.79 -0.63,2.95 -0.94,6.07 -0.94,9.35 0,3.12 0.33,6.08 0.98,8.9 0.66,2.82 1.67,5.3 3.03,7.46 1.37,2.16 3.09,3.88 5.17,5.16 2.08,1.29 4.51,1.93 7.3,1.93z"/>
   <path class="fil2" d="M310.02 131.91c0.05,0.55 0.11,1.12 0.16,1.72 0.05,0.6 0.26,1.16 0.61,1.68 0.36,0.52 0.92,0.94 1.68,1.27 0.77,0.33 1.86,0.47 3.28,0.41l7.38 0c1.42,-0.05 2.58,-0.23 3.48,-0.53 0.9,-0.3 1.65,-0.82 2.25,-1.56 0.6,-0.74 1.12,-1.71 1.56,-2.91 0.44,-1.2 0.93,-2.71 1.47,-4.51 0.22,-0.55 0.59,-0.9 1.11,-1.07 0.52,-0.16 1.08,-0.19 1.68,-0.08 0.44,0.11 0.89,0.31 1.35,0.61 0.47,0.3 0.67,0.72 0.61,1.27l-1.64 10.33c-0.16,0.77 -0.42,1.24 -0.78,1.43 -0.36,0.19 -0.89,0.29 -1.6,0.29l-26.89 0c-1.64,0 -3.24,0.01 -4.8,0.04 -1.56,0.03 -3.24,0.1 -5.04,0.21 -0.49,0 -0.85,-0.19 -1.07,-0.58 -0.22,-0.38 -0.33,-0.79 -0.33,-1.23 0.05,-0.82 0.26,-1.31 0.61,-1.47 0.36,-0.17 0.83,-0.25 1.43,-0.25 1.31,0 2.32,-0.18 3.03,-0.53 0.71,-0.36 1.23,-0.83 1.56,-1.43 0.33,-0.6 0.53,-1.28 0.61,-2.05 0.08,-0.76 0.12,-1.53 0.12,-2.3l0 -32.55c0,-0.77 -0.04,-1.53 -0.12,-2.3 -0.08,-0.76 -0.29,-1.45 -0.61,-2.05 -0.33,-0.6 -0.85,-1.08 -1.56,-1.43 -0.71,-0.36 -1.72,-0.53 -3.03,-0.53 -0.6,0 -1.08,-0.07 -1.43,-0.2 -0.36,-0.14 -0.56,-0.64 -0.61,-1.52 0,-0.55 0.11,-0.98 0.33,-1.31 0.22,-0.33 0.58,-0.49 1.07,-0.49 1.8,0.11 3.47,0.18 5,0.2 1.53,0.03 3.11,0.04 4.75,0.04 3.28,0 6.7,-0.08 10.25,-0.25 0.55,0 0.93,0.19 1.15,0.57 0.22,0.38 0.33,0.79 0.33,1.23 -0.05,0.93 -0.27,1.45 -0.65,1.56 -0.38,0.11 -0.85,0.16 -1.4,0.16 -1.31,0 -2.32,0.18 -3.03,0.53 -0.71,0.36 -1.23,0.83 -1.56,1.43 -0.33,0.6 -0.53,1.29 -0.61,2.05 -0.08,0.77 -0.12,1.53 -0.12,2.3l0 33.78zm46.73 -1.23c0,0.77 0.04,1.53 0.12,2.3 0.08,0.77 0.29,1.45 0.61,2.05 0.33,0.6 0.85,1.08 1.56,1.43 0.71,0.36 1.72,0.53 3.03,0.53 0.6,0 1.08,0.06 1.43,0.16 0.36,0.11 0.59,0.63 0.7,1.56 0,0.44 -0.12,0.85 -0.37,1.23 -0.25,0.38 -0.61,0.58 -1.11,0.58 -3.55,-0.16 -6.94,-0.25 -10.17,-0.25 -1.64,0 -3.25,0.01 -4.84,0.04 -1.59,0.03 -3.25,0.1 -5,0.21 -0.55,0 -0.93,-0.19 -1.15,-0.58 -0.22,-0.38 -0.33,-0.79 -0.33,-1.23 0.05,-0.93 0.27,-1.45 0.66,-1.56 0.38,-0.11 0.85,-0.16 1.39,-0.16 1.31,0 2.32,-0.18 3.03,-0.53 0.71,-0.36 1.23,-0.83 1.56,-1.43 0.33,-0.6 0.53,-1.28 0.61,-2.05 0.08,-0.76 0.15,-1.53 0.21,-2.3l0 -32.55c-0.06,-0.77 -0.12,-1.53 -0.21,-2.3 -0.08,-0.76 -0.29,-1.45 -0.61,-2.05 -0.33,-0.6 -0.85,-1.08 -1.56,-1.43 -0.71,-0.36 -1.72,-0.53 -3.03,-0.53 -0.55,0 -1.01,-0.05 -1.39,-0.16 -0.38,-0.11 -0.6,-0.63 -0.66,-1.56 0,-0.44 0.11,-0.85 0.33,-1.23 0.22,-0.38 0.6,-0.57 1.15,-0.57 1.75,0.11 3.4,0.18 4.96,0.2 1.56,0.03 3.16,0.04 4.8,0.04 3.28,0 6.7,-0.08 10.25,-0.25 0.49,0 0.86,0.19 1.11,0.57 0.25,0.38 0.37,0.79 0.37,1.23 -0.11,0.93 -0.34,1.45 -0.7,1.56 -0.36,0.11 -0.83,0.16 -1.43,0.16 -1.31,0 -2.32,0.18 -3.03,0.53 -0.71,0.36 -1.23,0.83 -1.56,1.43 -0.33,0.6 -0.53,1.29 -0.61,2.05 -0.08,0.77 -0.12,1.53 -0.12,2.3l0 32.55zm80.67 -32.55l-0.25 0 0.16 32.55c0,0.77 0.03,1.53 0.08,2.3 0.05,0.77 0.25,1.45 0.57,2.05 0.33,0.6 0.83,1.08 1.52,1.43 0.68,0.36 1.68,0.53 2.99,0.53 0.6,0 1.09,0.06 1.48,0.16 0.38,0.11 0.6,0.63 0.66,1.56 0,0.44 -0.12,0.85 -0.37,1.23 -0.25,0.38 -0.61,0.58 -1.11,0.58 -0.87,-0.05 -1.63,-0.1 -2.25,-0.12 -0.63,-0.03 -1.23,-0.06 -1.8,-0.08 -0.57,-0.03 -1.16,-0.04 -1.76,-0.04 -0.6,0 -1.31,0 -2.13,0 -0.82,0 -1.52,0 -2.09,0 -0.57,0 -1.12,0.01 -1.64,0.04 -0.52,0.03 -1.08,0.05 -1.68,0.08 -0.6,0.03 -1.34,0.07 -2.21,0.12 -0.55,0 -0.93,-0.19 -1.15,-0.58 -0.22,-0.38 -0.33,-0.79 -0.33,-1.23 0.06,-0.93 0.26,-1.45 0.61,-1.56 0.36,-0.11 0.83,-0.16 1.43,-0.16 1.31,0 2.31,-0.18 2.99,-0.53 0.68,-0.36 1.19,-0.83 1.52,-1.43 0.33,-0.6 0.52,-1.28 0.57,-2.05 0.06,-0.76 0.08,-1.53 0.08,-2.3l0.16 -32.55c0,-1.26 -0.11,-2.28 -0.33,-3.08 -0.22,-0.79 -0.55,-1.41 -0.98,-1.84 -0.44,-0.44 -1,-0.78 -1.68,-1.03 -0.68,-0.25 -1.52,-0.45 -2.5,-0.61 -0.82,-0.16 -1.37,-0.31 -1.64,-0.45 -0.27,-0.14 -0.41,-0.61 -0.41,-1.43 0,-0.93 0.32,-1.43 0.94,-1.52 0.63,-0.08 1.41,-0.12 2.34,-0.12 2.29,0 4.23,0.14 5.82,0.41 1.59,0.27 3.01,0.74 4.26,1.39 1.26,0.66 2.43,1.54 3.53,2.66 1.09,1.12 2.27,2.53 3.53,4.22l22.46 29.52 0.25 0 -0.16 -28.12c0,-0.77 -0.03,-1.53 -0.08,-2.3 -0.05,-0.76 -0.25,-1.45 -0.58,-2.05 -0.33,-0.6 -0.83,-1.08 -1.52,-1.43 -0.68,-0.36 -1.68,-0.53 -2.99,-0.53 -0.6,0 -1.08,-0.05 -1.43,-0.16 -0.36,-0.11 -0.59,-0.63 -0.7,-1.56 0,-0.44 0.12,-0.85 0.37,-1.23 0.25,-0.38 0.61,-0.57 1.11,-0.57 0.87,0.05 1.63,0.1 2.25,0.12 0.63,0.03 1.22,0.05 1.76,0.08 0.55,0.03 1.12,0.04 1.72,0.04 0.6,0 1.31,0 2.13,0 0.82,0 1.52,0 2.09,0 0.58,0 1.14,-0.01 1.68,-0.04 0.55,-0.03 1.12,-0.05 1.72,-0.08 0.6,-0.03 1.34,-0.07 2.21,-0.12 0.55,0 0.93,0.19 1.15,0.57 0.22,0.38 0.33,0.79 0.33,1.23 -0.06,0.93 -0.26,1.45 -0.61,1.56 -0.36,0.11 -0.83,0.16 -1.43,0.16 -1.31,0 -2.31,0.18 -2.99,0.53 -0.68,0.36 -1.19,0.83 -1.52,1.43 -0.33,0.6 -0.52,1.29 -0.58,2.05 -0.05,0.77 -0.08,1.53 -0.08,2.3l-0.16 41.32c-0.05,0.44 -0.31,0.72 -0.78,0.86 -0.47,0.14 -0.89,0.21 -1.27,0.21 -1.04,0 -1.83,-0.36 -2.38,-1.07l-30.91 -41.32z"/>
  </g>
 </g>
</svg>
