<svg width="122" height="46" viewBox="0 0 122 46" fill="none" xmlns="http://www.w3.org/2000/svg">
<path d="M26.6358 21.0835C26.2008 20.6485 26.2008 19.944 26.6358 19.509L37.2604 8.88446C37.5498 8.59505 38.0467 8.79891 38.0467 9.21028V31.3822C38.0467 31.7918 37.5498 31.9974 37.2604 31.708L35.7369 30.1845C35.2345 29.6821 34.9505 28.9959 34.9505 28.286V13.8427C34.9505 13.637 34.703 13.5351 34.5574 13.6807L29.3297 18.9083C29.0786 19.1595 28.9366 19.5017 28.9366 19.8585V20.7376C28.9366 21.0926 29.0786 21.4366 29.3297 21.6878L30.0014 22.3595C30.147 22.5051 30.3946 22.4013 30.3946 22.1956V21.0216C30.3946 20.3099 30.6785 19.6255 31.1809 19.1213L32.7044 17.5978C32.9938 17.3084 33.4907 17.5122 33.4907 17.9236V26.8244C33.4907 27.234 32.9938 27.4415 32.7044 27.1502L26.6358 21.0817V21.0835Z" fill="#D7B56D"/>
<path d="M50.6973 19.509C51.1323 19.944 51.1323 20.6484 50.6973 21.0834L40.0727 31.708C39.7833 31.9974 39.2846 31.7917 39.2864 31.3822V9.21023C39.2864 8.79887 39.7833 8.59318 40.0727 8.88442L41.5962 10.4079C42.0986 10.9103 42.3826 11.5965 42.3826 12.3082V26.7516C42.3826 26.9572 42.6319 27.0592 42.7757 26.9136L48.0034 21.6859C48.2545 21.4347 48.3965 21.0907 48.3965 20.7358V19.8566C48.3965 19.5017 48.2545 19.1577 48.0034 18.9065L47.3317 18.2348C47.1861 18.0892 46.9385 18.193 46.9385 18.3986V19.5727C46.9385 20.2844 46.6546 20.9688 46.1522 21.4711L44.6287 22.9947C44.3393 23.2841 43.8424 23.0802 43.8424 22.6688V13.768C43.8424 13.3585 44.3393 13.1528 44.6287 13.4422L50.6973 19.5108V19.509Z" fill="#D7B56D"/>
<path d="M53.9043 28.9613V27.4997H54.5359C54.6979 27.4997 54.8253 27.5324 54.9145 27.598C55.0037 27.6635 55.0492 27.7563 55.0492 27.8765C55.0492 27.9566 55.031 28.0221 54.9946 28.0767C54.9582 28.1313 54.9072 28.1732 54.8435 28.2005C54.7798 28.2278 54.7106 28.2423 54.636 28.2423L54.6724 28.1914C54.7652 28.1914 54.8453 28.2059 54.9127 28.235C54.98 28.2642 55.0328 28.306 55.071 28.3625C55.1093 28.4189 55.1275 28.4899 55.1275 28.5718C55.1275 28.6956 55.082 28.792 54.991 28.8594C54.8999 28.9285 54.7616 28.9613 54.5778 28.9613H53.9061H53.9043ZM54.059 28.8339H54.5741C54.7015 28.8339 54.7998 28.8121 54.869 28.7684C54.9364 28.7247 54.9709 28.6555 54.9709 28.559C54.9709 28.4644 54.9364 28.3952 54.869 28.3515C54.7998 28.3079 54.7034 28.286 54.5741 28.286H54.0408V28.1586H54.5232C54.6397 28.1586 54.7307 28.1368 54.7962 28.0912C54.8617 28.0457 54.8927 27.9802 54.8927 27.8928C54.8927 27.8037 54.8599 27.7363 54.7962 27.6926C54.7307 27.6489 54.6415 27.6271 54.5232 27.6271H54.0572V28.8339H54.059ZM56.9477 28.1531H57.7213V28.2842H56.9477V28.1531ZM56.9641 28.8266H57.8432V28.9613H56.8093V27.4997H57.8123V27.6344H56.9641V28.8284V28.8266ZM60.488 28.9722C60.3788 28.9722 60.275 28.954 60.1749 28.9194C60.0748 28.883 59.9983 28.8394 59.9437 28.7829L60.0038 28.6646C60.0548 28.7138 60.1239 28.7556 60.2113 28.7902C60.2987 28.8248 60.3897 28.8412 60.4862 28.8412C60.579 28.8412 60.6536 28.8303 60.7119 28.8066C60.7701 28.7829 60.812 28.752 60.8393 28.7138C60.8666 28.6755 60.8793 28.6318 60.8793 28.5845C60.8793 28.5281 60.8629 28.4826 60.8302 28.4462C60.7974 28.4116 60.7537 28.3843 60.7009 28.3643C60.6482 28.3443 60.5899 28.3261 60.5244 28.3115C60.4607 28.2951 60.397 28.2806 60.3333 28.2623C60.2696 28.2441 60.2113 28.2223 60.1567 28.1932C60.1039 28.1641 60.0602 28.1258 60.0275 28.0767C59.9947 28.0294 59.9783 27.9657 59.9783 27.8874C59.9783 27.8146 59.9983 27.749 60.0366 27.6872C60.0748 27.6271 60.133 27.5779 60.2131 27.5415C60.2932 27.5051 60.3933 27.4869 60.5171 27.4869C60.599 27.4869 60.6809 27.4979 60.761 27.5215C60.8411 27.5452 60.9121 27.5761 60.9703 27.6162L60.9176 27.7399C60.8557 27.6981 60.7883 27.6671 60.7191 27.6471C60.6482 27.6271 60.5808 27.618 60.5153 27.618C60.4279 27.618 60.3551 27.6289 60.2987 27.6544C60.2423 27.6781 60.2004 27.709 60.1731 27.749C60.1458 27.7891 60.133 27.8346 60.133 27.8837C60.133 27.9402 60.1494 27.9857 60.1822 28.0221C60.215 28.0567 60.2586 28.084 60.3114 28.104C60.3642 28.124 60.4243 28.1404 60.488 28.1568C60.5517 28.1732 60.6154 28.1895 60.6791 28.2077C60.7428 28.2259 60.8011 28.2496 60.8538 28.2769C60.9066 28.306 60.9503 28.3443 60.9831 28.3898C61.0158 28.4371 61.0322 28.499 61.0322 28.5754C61.0322 28.6464 61.0122 28.7119 60.974 28.772C60.9358 28.8321 60.8757 28.8812 60.7956 28.9176C60.7155 28.954 60.6136 28.9722 60.488 28.9722ZM62.9635 28.9595V27.6307H62.4502V27.496H63.6315V27.6307H63.1182V28.9595H62.9635ZM65.5482 28.9595V28.4171L65.5846 28.5135L64.9639 27.4979H65.1295L65.6737 28.3898H65.5864L66.1306 27.4979H66.2853L65.6646 28.5135L65.7011 28.4171V28.9595H65.5482ZM67.8252 28.9595V27.4979H67.98V28.8266H68.799V28.9613H67.8252V28.9595ZM70.5246 28.1513H71.2964V28.2824H70.5246V28.1513ZM70.541 28.8248H71.4201V28.9595H70.3863V27.4979H71.3892V27.6326H70.541V28.8266V28.8248ZM73.6626 28.9595V27.4979H74.2943C74.4562 27.4979 74.5837 27.5306 74.6728 27.5962C74.762 27.6617 74.8075 27.7545 74.8075 27.8746C74.8075 27.9547 74.7893 28.0203 74.7511 28.0749C74.7147 28.1295 74.6637 28.1713 74.6 28.1986C74.5363 28.2259 74.4672 28.2405 74.3925 28.2405L74.4289 28.1895C74.5218 28.1895 74.6037 28.2041 74.6692 28.2332C74.7366 28.2623 74.7893 28.3042 74.8276 28.3606C74.8658 28.4171 74.884 28.4881 74.884 28.57C74.884 28.6937 74.8385 28.7902 74.7475 28.8576C74.6565 28.9267 74.5181 28.9595 74.3343 28.9595H73.6608H73.6626ZM73.8174 28.8321H74.3325C74.4599 28.8321 74.5582 28.8102 74.6273 28.7665C74.6965 28.7229 74.7293 28.6537 74.7293 28.5572C74.7293 28.4626 74.6947 28.3934 74.6273 28.3497C74.56 28.306 74.4617 28.2842 74.3325 28.2842H73.7992V28.1568H74.2815C74.398 28.1568 74.489 28.1349 74.5545 28.0894C74.6201 28.0439 74.651 27.9784 74.651 27.891C74.651 27.8018 74.6182 27.7345 74.5545 27.6908C74.489 27.6471 74.3998 27.6253 74.2815 27.6253H73.8155V28.8321H73.8174ZM76.706 28.1513H77.4778V28.2824H76.706V28.1513ZM76.7224 28.8248H77.6016V28.9595H76.5677V27.4979H77.5706V27.6326H76.7224V28.8266V28.8248ZM80.1917 28.9595V28.4171L80.2281 28.5135L79.6074 27.4979H79.7731L80.3173 28.3898H80.2299L80.7742 27.4979H80.9289L80.3082 28.5135L80.3446 28.4171V28.9595H80.1917ZM83.0767 28.9722C82.9675 28.9722 82.8656 28.954 82.771 28.9176C82.6763 28.8812 82.5944 28.8284 82.527 28.7611C82.4579 28.6937 82.4051 28.6155 82.3669 28.5245C82.3286 28.4353 82.3086 28.337 82.3086 28.2296C82.3086 28.1222 82.3268 28.0239 82.3669 27.9347C82.4051 27.8455 82.4579 27.7673 82.527 27.6981C82.5962 27.6307 82.6763 27.5779 82.771 27.5415C82.8638 27.5051 82.9657 27.4869 83.0786 27.4869C83.1878 27.4869 83.2897 27.5051 83.3844 27.5415C83.4772 27.5779 83.5591 27.6307 83.6283 27.6981C83.6974 27.7654 83.7502 27.8437 83.7884 27.9347C83.8267 28.0257 83.8467 28.124 83.8467 28.2314C83.8467 28.3388 83.8267 28.4371 83.7884 28.5281C83.7502 28.6191 83.6974 28.6974 83.6283 28.7647C83.5591 28.8321 83.479 28.883 83.3844 28.9213C83.2915 28.9577 83.1896 28.9759 83.0786 28.9759L83.0767 28.9722ZM83.0767 28.8339C83.1641 28.8339 83.246 28.8193 83.3207 28.7884C83.3953 28.7574 83.459 28.7156 83.5154 28.661C83.57 28.6064 83.6137 28.5427 83.6446 28.468C83.6756 28.3952 83.6902 28.3151 83.6902 28.2278C83.6902 28.1404 83.6738 28.0603 83.6446 27.9875C83.6137 27.9147 83.5718 27.851 83.5154 27.7964C83.4608 27.7418 83.3953 27.6981 83.3207 27.669C83.246 27.6398 83.1641 27.6235 83.0767 27.6235C82.9894 27.6235 82.9075 27.638 82.8328 27.669C82.7582 27.6999 82.6927 27.7418 82.6381 27.7964C82.5835 27.851 82.5398 27.9147 82.5088 27.9875C82.4779 28.0603 82.4615 28.1404 82.4615 28.2278C82.4615 28.3151 82.4779 28.3934 82.5088 28.468C82.5398 28.5427 82.5835 28.6064 82.6381 28.661C82.6927 28.7156 82.7582 28.7574 82.8328 28.7884C82.9075 28.8175 82.9894 28.8339 83.0767 28.8339ZM86.111 28.9722C85.9235 28.9722 85.7779 28.9194 85.6705 28.812C85.5631 28.7047 85.5104 28.5463 85.5104 28.3352V27.4979H85.6651V28.3297C85.6651 28.5026 85.7033 28.63 85.7816 28.7119C85.8598 28.7938 85.9691 28.8339 86.111 28.8339C86.2548 28.8339 86.3659 28.7938 86.4441 28.7119C86.5224 28.63 86.5606 28.5026 86.5606 28.3297V27.4979H86.7117V28.3352C86.7117 28.5445 86.6589 28.7047 86.5515 28.812C86.4441 28.9194 86.2985 28.9722 86.1129 28.9722H86.111Z" fill="#2B2A29"/>
<path d="M73.3732 15.186C73.2749 15.186 73.1948 15.1059 73.1948 15.0076C73.1948 14.9094 73.2749 14.8293 73.3732 14.8293C73.4715 14.8293 73.5516 14.9094 73.5516 15.0076C73.5516 15.1059 73.4715 15.186 73.3732 15.186ZM72.0408 15.0823C71.8843 15.0823 71.7587 14.9549 71.7587 14.8001C71.7587 14.6436 71.8861 14.518 72.0408 14.518C72.1974 14.518 72.323 14.6454 72.323 14.8001C72.323 14.9567 72.1974 15.0823 72.0408 15.0823ZM70.7084 15.186C70.6102 15.186 70.5301 15.1059 70.5301 15.0076C70.5301 14.9094 70.6102 14.8293 70.7084 14.8293C70.8067 14.8293 70.8868 14.9094 70.8868 15.0076C70.8868 15.1059 70.8067 15.186 70.7084 15.186ZM75.0442 14.2486C74.8403 14.6873 74.4617 14.7091 74.1796 14.6181C73.7937 14.4925 73.8064 14.1012 73.821 14.0211C73.8647 13.7936 74.0358 13.7317 74.1559 13.6334C74.3015 13.5133 74.4453 13.3039 74.307 13.0764C74.2196 12.9326 74.0467 12.827 73.8374 12.8744C73.5261 12.9454 73.5243 13.2584 73.5698 13.435C73.6117 13.5952 73.6317 13.6971 73.588 13.8445C73.4715 14.2304 73.0219 14.3942 72.5833 14.1576C72.3339 14.0229 72.181 13.6206 72.4413 13.2967C72.7016 12.9727 72.9473 12.574 72.5268 12.1536C72.312 11.9388 72.1209 11.764 72.0372 11.6202C71.9535 11.7622 71.7623 11.937 71.5476 12.1536C71.1271 12.5758 71.3728 12.9727 71.6331 13.2967C71.8934 13.6206 71.7405 14.0229 71.4911 14.1576C71.0525 14.3942 70.6029 14.2304 70.4864 13.8445C70.4409 13.6953 70.4627 13.5933 70.5046 13.435C70.5501 13.2584 70.5483 12.9454 70.237 12.8744C70.0277 12.827 69.8566 12.9326 69.7674 13.0764C69.6291 13.3039 69.7729 13.5133 69.9185 13.6334C70.0386 13.7335 70.2115 13.7954 70.2534 14.0211C70.2698 14.1012 70.2825 14.4925 69.8948 14.6181C69.6145 14.7091 69.2341 14.6873 69.0302 14.2486C68.8063 13.7644 68.901 13.0418 67.5249 13.8809C67.5249 13.8809 68.6243 15.044 69.0885 16.5221C69.4707 16.2072 69.8875 15.9614 70.3389 15.7831C70.9068 15.5592 71.4638 15.4463 72.0099 15.4463C72.7562 15.4463 73.4242 15.581 74.0176 15.8486C74.3798 16.0124 74.7074 16.2108 75.0023 16.4438C75.4792 15.0022 76.5422 13.8791 76.5422 13.8791C75.1661 13.0418 75.259 13.7644 75.0369 14.2468L75.0442 14.2486ZM70.8577 16.3291C71.2399 16.209 71.6367 16.1198 72.0408 16.1198C72.3612 16.1198 72.6761 16.1762 72.9819 16.2581C72.687 16.1453 72.3594 16.0888 72.0026 16.0888C71.5694 16.0888 71.189 16.1689 70.8559 16.3291H70.8577Z" fill="#D7B56D"/>
<path d="M72.0191 15.7976C72.7654 15.7976 73.4334 15.9323 74.0268 16.1999C74.6184 16.4693 75.1207 16.8297 75.5339 17.2811C75.9471 17.7343 76.2656 18.2531 76.4895 18.841C76.7134 19.4271 76.8244 20.035 76.8244 20.6612C76.8244 21.4876 76.677 22.2175 76.384 22.8545C76.0909 23.4916 75.7123 24.0286 75.25 24.4673C74.7876 24.9041 74.2707 25.239 73.6973 25.4665C73.1258 25.6959 72.5652 25.8106 72.0191 25.8106C71.2837 25.8106 70.6212 25.6759 70.0333 25.4083C69.4471 25.1389 68.9484 24.7785 68.5407 24.3271C68.133 23.8739 67.8162 23.3551 67.5924 22.7672C67.3685 22.1811 67.2556 21.5677 67.2556 20.9324C67.2556 20.106 67.3994 19.3761 67.6888 18.7391C67.9782 18.102 68.3514 17.565 68.8083 17.1264C69.2651 16.6895 69.7784 16.3582 70.3445 16.1343C70.9124 15.9105 71.4694 15.7994 72.0155 15.7994L72.0191 15.7976ZM72.0045 25.1553C72.5324 25.1553 72.9874 25.0333 73.3697 24.7894C73.7538 24.5455 74.0687 24.2179 74.318 23.8047C74.5674 23.3915 74.7512 22.9146 74.8695 22.3722C74.9897 21.8298 75.0479 21.26 75.0479 20.663C75.0479 20.106 74.986 19.5709 74.8604 19.0594C74.7367 18.5461 74.5474 18.0965 74.2925 17.7088C74.0395 17.3211 73.721 17.0135 73.3369 16.7842C72.9547 16.5548 72.5087 16.4401 72.0009 16.4401C71.473 16.4401 71.0216 16.5603 70.643 16.7987C70.2644 17.0372 69.9532 17.3612 69.7111 17.7689C69.4672 18.1766 69.2888 18.6499 69.1741 19.1868C69.0594 19.7238 69.003 20.2917 69.003 20.8887C69.003 21.4566 69.0631 21.9954 69.1814 22.5087C69.3015 23.022 69.4854 23.4734 69.7329 23.8666C69.9823 24.2597 70.2954 24.5728 70.674 24.8058C71.0526 25.0406 71.4949 25.1571 72.0027 25.1571L72.0045 25.1553Z" fill="#2B2A29"/>
<path d="M56.4308 24.0103C56.4399 24.1104 56.4508 24.2141 56.4599 24.3234C56.469 24.4326 56.5072 24.5345 56.5709 24.6292C56.6365 24.7238 56.7384 24.8003 56.8767 24.8603C57.0169 24.9204 57.2153 24.9459 57.4738 24.9349H58.8171C59.0755 24.9258 59.2867 24.8931 59.4505 24.8385C59.6143 24.7839 59.7508 24.6892 59.8601 24.5545C59.9693 24.4198 60.0639 24.2433 60.144 24.0248C60.2241 23.8064 60.3133 23.5316 60.4116 23.2039C60.4516 23.1038 60.519 23.0401 60.6136 23.0092C60.7083 22.98 60.8102 22.9746 60.9194 22.9946C60.9995 23.0146 61.0814 23.051 61.1651 23.1056C61.2507 23.1602 61.2871 23.2367 61.2762 23.3368L60.9777 25.2171C60.9485 25.3572 60.9012 25.4428 60.8357 25.4774C60.7702 25.512 60.6737 25.5302 60.5445 25.5302H55.6499C55.3514 25.5302 55.0602 25.532 54.7762 25.5374C54.4923 25.5429 54.1865 25.5556 53.8588 25.5757C53.7696 25.5757 53.7041 25.5411 53.6641 25.4701C53.624 25.4009 53.604 25.3263 53.604 25.2462C53.6131 25.0969 53.6513 25.0078 53.715 24.9786C53.7806 24.9477 53.8661 24.9331 53.9753 24.9331C54.2138 24.9331 54.3976 24.9004 54.5268 24.8367C54.6561 24.7711 54.7507 24.6856 54.8108 24.5764C54.8709 24.4672 54.9073 24.3434 54.9218 24.2032C54.9364 24.0649 54.9437 23.9247 54.9437 23.7846V17.8598C54.9437 17.7196 54.9364 17.5813 54.9218 17.4412C54.9073 17.3028 54.869 17.1772 54.8108 17.068C54.7507 16.9588 54.6561 16.8714 54.5268 16.8077C54.3976 16.7422 54.2138 16.7113 53.9753 16.7113C53.8661 16.7113 53.7787 16.6985 53.715 16.6748C53.6495 16.6494 53.6131 16.5584 53.604 16.3982C53.604 16.2981 53.624 16.2198 53.6641 16.1597C53.7041 16.0997 53.7696 16.0705 53.8588 16.0705C54.1865 16.0906 54.4904 16.1033 54.7689 16.1069C55.0474 16.1124 55.335 16.1142 55.6335 16.1142C56.2306 16.1142 56.8531 16.0997 57.4993 16.0687C57.5994 16.0687 57.6685 16.1033 57.7086 16.1725C57.7486 16.2416 57.7686 16.3163 57.7686 16.3964C57.7595 16.5656 57.7195 16.6603 57.6503 16.6803C57.5812 16.7003 57.4956 16.7094 57.3955 16.7094C57.1571 16.7094 56.9732 16.7422 56.844 16.8059C56.7147 16.8714 56.6201 16.957 56.56 17.0662C56.5 17.1754 56.4635 17.301 56.449 17.4393C56.4344 17.5795 56.4271 17.7178 56.4271 17.858V24.0066L56.4308 24.0103ZM64.9366 23.7864C64.9366 23.9266 64.9439 24.0649 64.9585 24.205C64.973 24.3452 65.0112 24.469 65.0695 24.5782C65.1296 24.6874 65.2242 24.7748 65.3534 24.8385C65.4827 24.904 65.6665 24.9349 65.905 24.9349C66.0142 24.9349 66.1015 24.9459 66.1653 24.9641C66.2308 24.9841 66.2726 25.0787 66.2927 25.248C66.2927 25.3281 66.2708 25.4027 66.2253 25.4719C66.1798 25.5411 66.1143 25.5775 66.0233 25.5775C65.3771 25.5484 64.76 25.532 64.1721 25.532C63.8736 25.532 63.5806 25.5338 63.2911 25.5393C63.0017 25.5447 62.6996 25.5575 62.381 25.5775C62.2809 25.5775 62.2118 25.5429 62.1717 25.4719C62.1317 25.4027 62.1117 25.3281 62.1117 25.248C62.1208 25.0787 62.1608 24.9841 62.2318 24.9641C62.301 24.944 62.3865 24.9349 62.4848 24.9349C62.7232 24.9349 62.9071 24.9022 63.0363 24.8385C63.1656 24.7729 63.2602 24.6874 63.3203 24.5782C63.3803 24.469 63.4167 24.3452 63.4313 24.205C63.4459 24.0667 63.4586 23.9266 63.4695 23.7864V17.8616C63.4586 17.7215 63.4477 17.5831 63.4313 17.443C63.4167 17.3046 63.3785 17.179 63.3203 17.0698C63.2602 16.9606 63.1656 16.8733 63.0363 16.8095C62.9071 16.744 62.7232 16.7131 62.4848 16.7131C62.3847 16.7131 62.301 16.704 62.2318 16.684C62.1626 16.6639 62.1226 16.5693 62.1117 16.4C62.1117 16.3199 62.1317 16.2453 62.1717 16.1761C62.2118 16.1069 62.2809 16.0724 62.381 16.0724C62.6996 16.0924 62.9999 16.1051 63.2839 16.1088C63.5678 16.1142 63.859 16.116 64.1576 16.116C64.7546 16.116 65.3771 16.1015 66.0233 16.0705C66.1125 16.0705 66.1798 16.1051 66.2253 16.1743C66.2708 16.2435 66.2927 16.3181 66.2927 16.3982C66.2726 16.5675 66.2308 16.6621 66.1653 16.6821C66.0997 16.7022 66.0142 16.7113 65.905 16.7113C65.6665 16.7113 65.4827 16.744 65.3534 16.8077C65.2242 16.8733 65.1296 16.9588 65.0695 17.068C65.0094 17.1772 64.973 17.3028 64.9585 17.4412C64.9439 17.5813 64.9366 17.7196 64.9366 17.8598V23.7846V23.7864ZM79.6202 17.8616H79.5747L79.6038 23.7864C79.6038 23.9266 79.6093 24.0649 79.6184 24.205C79.6275 24.3452 79.6639 24.469 79.7222 24.5782C79.7822 24.6874 79.8732 24.7748 79.9988 24.8385C80.1226 24.904 80.3046 24.9349 80.5431 24.9349C80.6523 24.9349 80.7415 24.9459 80.8125 24.9641C80.8816 24.9841 80.9217 25.0787 80.9326 25.248C80.9326 25.3281 80.9107 25.4027 80.8652 25.4719C80.8197 25.5411 80.7542 25.5775 80.6632 25.5775C80.5048 25.5684 80.3665 25.5593 80.2537 25.5556C80.139 25.5502 80.0298 25.5447 79.926 25.5411C79.8223 25.5356 79.7149 25.5338 79.6057 25.5338C79.4964 25.5338 79.3672 25.5338 79.218 25.5338C79.0687 25.5338 78.9413 25.5338 78.8375 25.5338C78.7338 25.5338 78.6337 25.5356 78.539 25.5411C78.4444 25.5465 78.3424 25.5502 78.2332 25.5556C78.124 25.5611 77.9893 25.5684 77.831 25.5775C77.7308 25.5775 77.6617 25.5429 77.6216 25.4719C77.5816 25.4027 77.5616 25.3281 77.5616 25.248C77.5725 25.0787 77.6089 24.9841 77.6726 24.9641C77.7381 24.944 77.8237 24.9349 77.9329 24.9349C78.1713 24.9349 78.3534 24.9022 78.4771 24.8385C78.6009 24.7729 78.6937 24.6874 78.7538 24.5782C78.8139 24.469 78.8485 24.3452 78.8576 24.205C78.8685 24.0667 78.8721 23.9266 78.8721 23.7864L78.9012 17.8616C78.9012 17.6323 78.8812 17.4466 78.8412 17.301C78.8011 17.1572 78.7411 17.0444 78.6628 16.9661C78.5827 16.886 78.4808 16.8241 78.357 16.7786C78.2332 16.7331 78.0803 16.6967 77.9019 16.6676C77.7527 16.6384 77.6526 16.6111 77.6034 16.5857C77.5543 16.5602 77.5288 16.4746 77.5288 16.3254C77.5288 16.1561 77.587 16.0651 77.6999 16.0487C77.8146 16.0341 77.9565 16.0269 78.1258 16.0269C78.5427 16.0269 78.8958 16.0523 79.1852 16.1015C79.4746 16.1506 79.7331 16.2362 79.9606 16.3545C80.1899 16.4746 80.4029 16.6348 80.6031 16.8387C80.8015 17.0425 81.0163 17.2992 81.2457 17.6068L85.3338 22.98H85.3794L85.3502 17.8616C85.3502 17.7215 85.3448 17.5831 85.3357 17.443C85.3266 17.3046 85.2902 17.179 85.2301 17.0698C85.17 16.9606 85.079 16.8733 84.9534 16.8095C84.8297 16.744 84.6476 16.7131 84.4092 16.7131C84.3 16.7131 84.2126 16.704 84.1489 16.684C84.0834 16.6639 84.0415 16.5693 84.0215 16.4C84.0215 16.3199 84.0433 16.2453 84.0888 16.1761C84.1343 16.1069 84.1999 16.0724 84.2909 16.0724C84.4492 16.0815 84.5876 16.0906 84.7004 16.0942C84.8151 16.0997 84.9225 16.1033 85.0208 16.1088C85.1209 16.1142 85.2246 16.116 85.3338 16.116C85.4431 16.116 85.5723 16.116 85.7216 16.116C85.8708 16.116 85.9982 16.116 86.102 16.116C86.2075 16.116 86.3095 16.1142 86.4078 16.1088C86.5079 16.1033 86.6116 16.0997 86.7208 16.0942C86.8301 16.0887 86.9648 16.0815 87.1231 16.0724C87.2232 16.0724 87.2924 16.1069 87.3324 16.1761C87.3725 16.2453 87.3925 16.3199 87.3925 16.4C87.3816 16.5693 87.3452 16.6639 87.2815 16.684C87.2159 16.704 87.1304 16.7131 87.0212 16.7131C86.7827 16.7131 86.6007 16.7458 86.4769 16.8095C86.3532 16.8751 86.2603 16.9606 86.2003 17.0698C86.1402 17.179 86.1056 17.3046 86.0947 17.443C86.0856 17.5831 86.0801 17.7215 86.0801 17.8616L86.051 25.3827C86.0419 25.4628 85.9946 25.5138 85.909 25.5393C85.8235 25.5647 85.747 25.5775 85.6779 25.5775C85.4886 25.5775 85.3448 25.512 85.2447 25.3827L79.6184 17.8616H79.6202Z" fill="#2B2A29"/>
</svg>
