<svg width="122" height="46" viewBox="0 0 122 46" fill="none" xmlns="http://www.w3.org/2000/svg">
<path d="M78.3187 27.9108C76.8534 28.5778 75.1307 28.6806 73.5365 28.6035C71.2223 28.5007 68.8824 28.0902 66.569 27.8337C63.432 27.4746 58.0844 26.8332 55.4874 28.9883C55.2005 29.2146 54.9492 29.4826 54.7417 29.7835C58.0072 28.2694 63.2778 29.3984 66.5686 29.7578C69.6281 30.0912 74.9504 30.8093 77.5216 28.7056C77.8187 28.474 78.0863 28.2068 78.3187 27.9108Z" fill="#F7D417"/>
<path d="M80.3244 30.5277H85.2351V29.8606C84.6179 29.8349 83.8979 29.6297 83.8979 28.8601V25.6532L84.2067 25.7046C85.0295 25.8327 86.1608 25.679 86.9321 25.3456C89.0403 24.4729 89.6061 22.2925 89.5805 20.1884C89.5805 18.3156 89.1432 15.7244 87.2148 14.852C86.3663 14.4673 84.8753 14.4416 84.2838 15.2368L83.9754 15.6476L83.6409 14.5693L80.1441 15.3906V15.9549C80.7421 16.1053 81.1574 16.6473 81.1468 17.2634V28.86C81.1468 29.3472 80.7613 29.7323 80.3244 29.8348V30.5276V30.5277ZM42.528 11.4138C42.528 12.2861 43.0939 13.1588 44.0451 13.1588C44.9707 13.1588 45.5365 12.2866 45.5365 11.4138C45.5365 10.5672 44.945 9.66956 44.0451 9.66956C43.0938 9.66956 42.528 10.5672 42.528 11.4138ZM45.4594 14.5693L41.7051 15.3906V15.9549C42.271 16.1348 42.605 16.6734 42.605 17.2634V23.6005C42.605 24.0367 42.271 24.4471 41.8597 24.5756V25.4476H46.3592V24.601C45.8705 24.4986 45.4593 24.1648 45.4593 23.6005V14.5693H45.4594ZM33.5804 25.4476H39.854V24.6267H39.4432C38.6975 24.6267 38.0032 24.1395 38.0032 23.3696V10.8238H38.2606C40.0347 10.8238 40.8571 12.5427 40.9342 14.0821H41.6028V9.87466H31.6521V14.0821H32.3975C32.4746 12.5426 33.2974 10.8238 35.0715 10.8238H35.3285V23.3696C35.3285 24.3446 34.403 24.6523 33.5801 24.7037V25.4475H33.5805L33.5804 25.4476ZM47.3878 30.5277H52.2985V29.8606C51.6813 29.8349 50.9616 29.6297 50.9616 28.8601V25.6532L51.27 25.7046C52.1941 25.8188 53.1322 25.6952 53.9954 25.3456C56.1035 24.4729 56.6694 22.2925 56.6694 20.1884C56.6437 18.3156 56.2325 15.7244 54.2785 14.852C53.4557 14.4673 51.9643 14.4416 51.3471 15.2368L51.0387 15.6476L50.7042 14.5693L47.2078 15.3906V15.9549C47.8054 16.1053 48.2208 16.6473 48.2105 17.2634V28.86C48.2007 29.3381 47.8579 29.7448 47.3878 29.8348V30.5276V30.5277ZM53.9956 20.7784C53.9956 21.933 53.8413 23.652 53.0185 24.55C52.5559 25.0372 51.7846 25.2681 51.2701 24.7552C51.075 24.5666 50.9639 24.3081 50.9617 24.0371V16.1088L51.2187 16.0835C52.0673 16.032 52.7615 16.6477 53.1728 17.3148C53.79 18.3153 53.9956 19.6237 53.9956 20.7783V20.7784ZM62.532 25.4477H68.8052V24.6268H68.3944C67.6488 24.6268 66.9548 24.1396 66.9548 23.3697V10.8239H67.2118C68.9859 10.8239 69.8087 12.5428 69.8858 14.0822H70.5545V9.87476H60.6033V14.0822H61.349C61.4261 12.5427 62.2489 10.8239 64.023 10.8239H64.2804V23.3697C64.2804 24.3447 63.3548 24.6524 62.5316 24.7038V25.4476H62.532V25.4477ZM61.9662 21.0607L62.3002 18.9824H58.8034L58.4694 21.0604H61.9662V21.0608V21.0607ZM69.6541 20.0089C69.6541 22.6512 71.2997 25.7815 74.2307 25.7815C77.1875 25.7815 78.833 22.6512 78.833 20.0089C78.833 17.4177 77.1874 14.2107 74.2307 14.2618C71.2996 14.3132 69.6541 17.3663 69.6541 20.0089ZM74.2307 24.8577C72.8936 24.8577 72.7393 20.8556 72.7393 20.0089C72.7393 19.1623 72.8678 15.1598 74.2307 15.1598C75.6189 15.1598 75.7474 19.1623 75.7474 20.0089C75.7474 20.8551 75.5675 24.8577 74.2307 24.8577ZM86.9318 20.7785C86.9318 21.9331 86.7776 23.6521 85.9291 24.5501C85.4665 25.0373 84.7208 25.2682 84.1807 24.7553C84.0027 24.558 83.9025 24.3029 83.8979 24.0372V16.1088L84.1292 16.0836C85.0034 16.0321 85.672 16.6478 86.1089 17.3149C86.7261 18.3154 86.9317 19.6238 86.9317 20.7784L86.9318 20.7785Z" fill="#3C543F"/>
<path d="M53.339 36.3504C53.1413 36.3504 52.9867 36.1939 52.9867 35.994V34.5654C52.9867 34.5284 52.9867 34.5159 52.9686 34.4838C52.9576 34.4698 52.9084 34.3961 52.9084 34.2872V34.0881L53.0967 33.9788L53.2671 33.8712L53.3812 33.8639C53.4463 33.8639 53.5093 33.8821 53.5653 33.9157C53.645 33.885 53.7365 33.8632 53.8371 33.8632C53.9633 33.8632 54.5915 33.9104 54.5915 34.844C54.5915 35.5508 54.2112 35.8198 53.8398 35.8392V35.9552C53.8398 36.1227 53.7324 36.2629 53.5726 36.3038L53.407 36.3454L53.339 36.3506V36.3504Z" fill="#144D29"/>
<path d="M53.3144 34.5655C53.3144 34.5111 53.3144 34.4302 53.2542 34.3236C53.244 34.308 53.2361 34.2975 53.2361 34.2872C53.2361 34.274 53.244 34.2717 53.2494 34.2687L53.3612 34.1988C53.3741 34.1909 53.3873 34.1859 53.4055 34.2037C53.4364 34.235 53.4626 34.2921 53.4754 34.3443L53.4965 34.3287C53.5691 34.274 53.6916 34.1908 53.8371 34.1908C53.9675 34.1908 54.2642 34.2558 54.2642 34.8439C54.2642 35.4373 53.9596 35.5125 53.7955 35.5125C53.6499 35.5125 53.5434 35.4449 53.512 35.4245V35.9552C53.512 35.9604 53.512 35.9808 53.4912 35.9861L53.3661 36.0174C53.348 36.0227 53.3144 36.033 53.3144 35.994V34.5654V34.5655ZM53.5121 35.2526C53.5797 35.2941 53.6916 35.3384 53.7853 35.3384C54.0378 35.3384 54.0507 35.0938 54.0507 34.8387C54.0507 34.6048 54.0325 34.3655 53.7933 34.3655C53.6917 34.3655 53.5798 34.4407 53.5122 34.4929V35.2527L53.5121 35.2526Z" fill="#F7D417"/>
<path d="M54.6607 35.804C54.4563 35.804 54.302 35.6494 54.302 35.4449V34.5525C54.302 34.5231 54.2982 34.5136 54.2895 34.4958L54.274 34.4649C54.2661 34.4513 54.229 34.3855 54.229 34.2898V34.116L54.3832 33.9976L54.4936 33.9258L54.5711 33.8672L54.7094 33.863L54.734 33.8653C54.7756 33.8705 54.8259 33.8838 54.8765 33.9144C54.9446 33.8834 55.024 33.8629 55.1162 33.8629C55.1903 33.8629 55.2625 33.8773 55.3369 33.9071L55.465 33.9586L55.5399 34.1018C55.5625 34.1562 55.5906 34.2666 55.5266 34.3947L55.4771 34.508L55.4072 34.7185L55.1552 34.734V35.4445C55.1552 35.649 55.0009 35.8036 54.7961 35.8036H54.6608L54.6607 35.804Z" fill="#144D29"/>
<path d="M54.8353 34.3677C54.8977 34.2952 54.9809 34.1908 55.1162 34.1908C55.1555 34.1908 55.1891 34.2013 55.2152 34.2116C55.2461 34.2221 55.2386 34.2377 55.2333 34.2483L55.1709 34.3911C55.1683 34.399 55.163 34.4066 55.1554 34.4066C55.1475 34.4066 55.1449 34.4018 55.1267 34.3938C55.1108 34.3858 55.0954 34.3832 55.0799 34.3832C54.9989 34.3832 54.9185 34.4769 54.869 34.5371L54.8274 34.5888V35.4449C54.8274 35.4608 54.8248 35.4762 54.7961 35.4762H54.6608C54.6324 35.4762 54.6298 35.4607 54.6298 35.4449V34.5525C54.6298 34.4667 54.6113 34.4093 54.5856 34.3548L54.5674 34.3185C54.5622 34.3079 54.5569 34.3026 54.5569 34.2898C54.5569 34.2792 54.5595 34.2739 54.5674 34.2686L54.6714 34.2013C54.6816 34.1961 54.6843 34.1908 54.6896 34.1908C54.6922 34.1908 54.6922 34.1908 54.6948 34.1908C54.7156 34.1934 54.7311 34.2195 54.739 34.2324C54.7704 34.2898 54.7908 34.3602 54.7988 34.4093L54.8355 34.3677H54.8353Z" fill="#F7D417"/>
<path d="M55.9409 35.8402C55.4953 35.8402 55.0459 35.5349 55.0459 34.8519C55.0459 34.2699 55.3947 33.8632 55.8941 33.8632C56.0808 33.8632 56.69 33.9335 56.69 34.836C56.69 34.9588 56.6476 35.0525 56.5842 35.1168L56.5894 35.1342L56.6563 35.3013L56.6586 35.3799C56.6586 35.6044 56.4685 35.6959 56.377 35.7401C56.2262 35.8077 56.0822 35.8402 55.9408 35.8402H55.9409Z" fill="#144D29"/>
<path d="M56.3282 35.3644C56.3308 35.3696 56.3308 35.3746 56.3308 35.3799C56.3308 35.3904 56.3153 35.4059 56.2345 35.4449C56.1593 35.4789 56.0576 35.5126 55.9408 35.5126C55.6857 35.5126 55.3735 35.3644 55.3735 34.8519C55.3735 34.4301 55.5973 34.1909 55.894 34.1909C56.1125 34.1909 56.3623 34.3028 56.3623 34.8361V34.8494C56.3623 34.8857 56.3517 34.8936 56.3336 34.8936H55.5867V34.9065C55.5867 35.2085 55.7716 35.3385 55.9462 35.3385C56.0528 35.3385 56.1465 35.2969 56.2323 35.2474C56.2426 35.2421 56.2531 35.2372 56.2633 35.2345C56.2659 35.2345 56.2659 35.2345 56.2686 35.2345C56.2712 35.2345 56.2791 35.2372 56.2814 35.2474L56.3283 35.3646L56.3282 35.3644ZM56.1491 34.732C56.1491 34.7139 56.1491 34.6096 56.1071 34.5109C56.0553 34.3859 55.9615 34.3522 55.8758 34.3522C55.7379 34.3522 55.5919 34.4535 55.5866 34.732H56.1491Z" fill="#F7D417"/>
<path d="M57.989 35.8039C57.8937 35.8039 57.8099 35.7706 57.7467 35.7147C57.6839 35.7706 57.6001 35.8039 57.5048 35.8039H57.3695C57.2746 35.8039 57.1903 35.7706 57.1276 35.7147C57.0648 35.7706 56.9806 35.8039 56.8857 35.8039H56.7504C56.5459 35.8039 56.3913 35.6494 56.3913 35.4449V34.5525C56.3913 34.4689 56.3849 34.4418 56.3845 34.441C56.3709 34.4172 56.3418 34.3594 56.3418 34.2792V34.074L56.5395 33.969L56.7148 33.8711L56.8206 33.8632C56.8811 33.8632 56.939 33.8787 56.9899 33.9074C57.0663 33.8801 57.1535 33.8632 57.2553 33.8632C57.3641 33.8632 57.4635 33.8882 57.5489 33.935C57.6438 33.8923 57.7492 33.8632 57.8664 33.8632C58.0112 33.8632 58.4828 33.9149 58.4828 34.5813V35.4449C58.4828 35.6493 58.3286 35.8039 58.1241 35.8039H57.9888H57.989Z" fill="#144D29"/>
<path d="M56.7189 34.5525C56.7189 34.3782 56.6955 34.3314 56.6773 34.2974C56.6721 34.2872 56.6694 34.2819 56.6694 34.2792C56.6694 34.2717 56.6773 34.2664 56.6827 34.2637L56.7999 34.1987C56.8127 34.1908 56.8308 34.1802 56.8467 34.2142C56.8596 34.2403 56.883 34.3106 56.8883 34.3469C56.9975 34.2585 57.0965 34.1908 57.2553 34.1908C57.3694 34.1908 57.4503 34.2377 57.4972 34.3469C57.6559 34.2324 57.7599 34.1908 57.8664 34.1908C58.1397 34.1908 58.1552 34.4251 58.1552 34.5812V35.4448C58.1552 35.4735 58.1397 35.4761 58.1242 35.4761H57.9889C57.973 35.4761 57.9576 35.4735 57.9576 35.4448V34.5758C57.9576 34.5055 57.9501 34.3654 57.7886 34.3654C57.6794 34.3654 57.5724 34.4459 57.5569 34.456L57.5361 34.472V35.4448C57.5361 35.4735 57.5202 35.4761 57.5048 35.4761H57.3695C57.354 35.4761 57.3386 35.4735 57.3386 35.4448V34.5758C57.3386 34.5029 57.3306 34.3654 57.1693 34.3654C57.0707 34.3654 56.9976 34.4066 56.9168 34.472V35.4448C56.9168 35.4607 56.9146 35.4761 56.8859 35.4761H56.7506C56.735 35.4761 56.7192 35.4735 56.7192 35.4448V34.5524L56.7189 34.5525Z" fill="#F7D417"/>
<path d="M58.7226 35.804C58.5182 35.804 58.3639 35.6494 58.3639 35.4449V34.6958C58.2244 34.6474 58.1296 34.5179 58.1296 34.3576V34.2586C58.1296 34.1164 58.2041 33.9989 58.3179 33.9399C58.2989 33.887 58.2884 33.8296 58.2884 33.7691C58.2884 33.4951 58.5034 33.2804 58.7775 33.2804C59.0519 33.2804 59.2666 33.4951 59.2666 33.7691C59.2666 33.8848 59.2284 33.9894 59.1642 34.0726C59.1978 34.1282 59.2171 34.1946 59.2171 34.2665V35.4449C59.2171 35.6493 59.0628 35.804 58.8584 35.804H58.7227H58.7226Z" fill="#144D29"/>
<path d="M58.8892 35.445C58.8892 35.4737 58.8736 35.4763 58.8582 35.4763H58.7225C58.707 35.4763 58.6916 35.4737 58.6916 35.445V34.389H58.4886C58.4731 34.389 58.4573 34.3859 58.4573 34.3576V34.2586C58.4573 34.2299 58.4732 34.2273 58.4886 34.2273H58.8552C58.8865 34.2273 58.8892 34.2534 58.8892 34.2666V35.4451V35.445ZM58.7773 33.9309C58.6862 33.9309 58.6159 33.8606 58.6159 33.7691C58.6159 33.6784 58.6862 33.6082 58.7773 33.6082C58.8684 33.6082 58.9387 33.6784 58.9387 33.7691C58.9387 33.8606 58.8684 33.9309 58.7773 33.9309Z" fill="#F7D417"/>
<path d="M59.6801 35.8402C59.4745 35.8402 58.9961 35.7703 58.9961 35.1224V34.2585C58.9961 34.0884 59.1038 33.9478 59.2645 33.9089L59.4436 33.8658L59.5003 33.8636C59.6134 33.8636 59.7158 33.9146 59.7819 34.0034L59.7921 34.0169C59.8382 33.9648 59.8998 33.9262 59.972 33.9089L60.1512 33.8658L60.2101 33.8628C60.2257 33.8628 60.2411 33.864 60.2562 33.8658H60.5491L60.5529 34.1191L60.5541 34.1213L60.5567 34.2142V35.1981L60.6334 35.3168L60.6349 35.4188C60.6349 35.4683 60.6206 35.6369 60.4364 35.731L60.2758 35.8327L60.1625 35.8399C60.1247 35.8399 60.0533 35.8327 59.9792 35.7884C59.8847 35.8236 59.7865 35.8402 59.6802 35.8402H59.6801Z" fill="#144D29"/>
<path d="M60.0653 35.3591C59.9194 35.4789 59.8049 35.5126 59.6802 35.5126C59.3548 35.5126 59.3237 35.3021 59.3237 35.1226V34.2586C59.3237 34.2378 59.3312 34.2299 59.3419 34.2273L59.4825 34.1936C59.4954 34.1909 59.5112 34.1883 59.5188 34.1988C59.5214 34.2037 59.5214 34.2091 59.5214 34.2144V35.1278C59.5214 35.2915 59.6228 35.3383 59.7217 35.3383C59.8336 35.3383 59.9557 35.2628 60.0313 35.2056V34.2585C60.0313 34.2377 60.0392 34.2298 60.0495 34.2272L60.1901 34.1935C60.2108 34.1882 60.2188 34.1908 60.2214 34.1935C60.2236 34.1935 60.2267 34.1961 60.2267 34.1987C60.2289 34.2036 60.2289 34.209 60.2289 34.2143V35.1981C60.2289 35.2291 60.2368 35.2654 60.2501 35.3021C60.263 35.3384 60.281 35.3671 60.289 35.3826C60.2969 35.3982 60.3072 35.4087 60.3072 35.419C60.3072 35.4295 60.2969 35.4345 60.2864 35.4401L60.182 35.5048C60.1692 35.5127 60.1484 35.5259 60.117 35.4715C60.0913 35.4246 60.0781 35.3959 60.0728 35.38L60.0653 35.3592V35.3591Z" fill="#F7D417"/>
<path d="M61.9608 35.8039C61.8659 35.8039 61.7816 35.7706 61.7189 35.7147C61.6557 35.7706 61.5719 35.8039 61.477 35.8039H61.3413C61.2464 35.8039 61.1625 35.7706 61.0993 35.7147C61.0366 35.7706 60.9523 35.8039 60.8574 35.8039H60.7221C60.5173 35.8039 60.3635 35.6494 60.3635 35.4449V34.5525C60.3635 34.4693 60.357 34.4422 60.3566 34.441C60.3411 34.4134 60.314 34.3578 60.314 34.2792V34.0718L60.5143 33.9674L60.6866 33.8711L60.7924 33.8632C60.8528 33.8632 60.9111 33.8787 60.9617 33.9074C61.0384 33.8801 61.1257 33.8632 61.227 33.8632C61.3359 33.8632 61.4353 33.8882 61.5203 33.935C61.6156 33.8923 61.721 33.8632 61.8382 33.8632C61.9829 33.8632 62.4546 33.9149 62.4546 34.5813V35.4449C62.4546 35.6493 62.3007 35.8039 62.0959 35.8039H61.9606H61.9608Z" fill="#144D29"/>
<path d="M60.6912 34.5525C60.6912 34.3782 60.6678 34.3314 60.6493 34.2974C60.6444 34.2872 60.6414 34.2819 60.6414 34.2792C60.6414 34.2717 60.6493 34.2664 60.6546 34.2637L60.7718 34.1987C60.7847 34.1908 60.8027 34.1802 60.8186 34.2142C60.8315 34.2403 60.855 34.3106 60.8602 34.3469C60.9695 34.2585 61.0681 34.1908 61.2272 34.1908C61.3413 34.1908 61.4222 34.2377 61.4691 34.3469C61.6278 34.2324 61.7318 34.1908 61.8383 34.1908C62.1116 34.1908 62.1271 34.4251 62.1271 34.5812V35.4448C62.1271 35.4735 62.1116 35.4761 62.0962 35.4761H61.9608C61.9453 35.4761 61.9299 35.4735 61.9299 35.4448V34.5758C61.9299 34.5055 61.922 34.3654 61.7606 34.3654C61.651 34.3654 61.5444 34.4459 61.529 34.456L61.5082 34.472V35.4448C61.5082 35.4735 61.4926 35.4761 61.4772 35.4761H61.3415C61.326 35.4761 61.3106 35.4735 61.3106 35.4448V34.5758C61.3106 34.5029 61.3027 34.3654 61.1413 34.3654C61.0427 34.3654 60.9697 34.4066 60.8888 34.472V35.4448C60.8888 35.4607 60.8866 35.4761 60.8579 35.4761H60.7226C60.7071 35.4761 60.6916 35.4735 60.6916 35.4448V34.5524L60.6912 34.5525Z" fill="#F7D417"/>
<path d="M63.0682 36.3505C62.861 36.3505 62.7049 36.2877 62.6305 36.2507C62.4506 36.1619 62.3712 35.9642 62.4431 35.7813L62.5867 35.4635L62.8183 35.4502C62.8569 35.4502 62.8898 35.4559 62.9173 35.4638V34.6965C62.7768 34.6489 62.6807 34.5186 62.6807 34.3575V34.2585C62.6807 34.1157 62.7559 33.9973 62.8712 33.9388C62.8522 33.8863 62.8421 33.8291 62.8421 33.7691C62.8421 33.4951 63.0567 33.2804 63.3308 33.2804C63.6052 33.2804 63.8199 33.4951 63.8199 33.7691C63.8199 33.8848 63.7821 33.9894 63.7179 34.0722C63.7515 34.1282 63.7708 34.1946 63.7708 34.2665V35.6143C63.7708 36.0614 63.4949 36.3506 63.0682 36.3506V36.3505Z" fill="#144D29"/>
<path d="M63.4431 35.6142C63.4431 35.734 63.4144 36.0228 63.0681 36.0228C62.9279 36.0228 62.8235 35.9808 62.7767 35.9574C62.7351 35.937 62.743 35.9135 62.748 35.9002L62.7979 35.791C62.8001 35.7857 62.8027 35.7777 62.8183 35.7777H62.8213C62.8368 35.7777 62.8496 35.791 62.9018 35.8117C62.954 35.8325 63.0008 35.848 63.0654 35.848C63.2609 35.848 63.245 35.6844 63.245 35.5672V34.3887H63.0398C63.0242 34.3887 63.0084 34.3857 63.0084 34.3574V34.2584C63.0084 34.2297 63.0243 34.2271 63.0398 34.2271H63.409C63.4403 34.2271 63.443 34.2531 63.443 34.2664V35.6142H63.4431ZM63.3308 33.9308C63.2401 33.9308 63.1698 33.8605 63.1698 33.769C63.1698 33.6783 63.2401 33.608 63.3308 33.608C63.4223 33.608 63.4922 33.6783 63.4922 33.769C63.4922 33.8605 63.4223 33.9308 63.3308 33.9308Z" fill="#F7D417"/>
<path d="M64.2339 35.8402C64.0283 35.8402 63.5498 35.7703 63.5498 35.1225V34.2585C63.5498 34.0884 63.6575 33.9478 63.8186 33.9089L63.9977 33.8658L64.0544 33.8636C64.1659 33.8636 64.2683 33.9135 64.3341 34.0012L64.3462 34.0171C64.3919 33.9649 64.4536 33.9264 64.5261 33.909L64.7053 33.8659L64.7642 33.8629C64.7798 33.8629 64.7952 33.8641 64.8103 33.8659H65.1032L65.107 34.1192L65.1082 34.1214L65.1108 34.2144V35.1982L65.189 35.3192V35.4189C65.189 35.4684 65.1747 35.637 64.9905 35.7312L64.8299 35.8328L64.7162 35.84C64.6788 35.84 64.6074 35.8328 64.5333 35.7886C64.4384 35.8237 64.3406 35.8403 64.234 35.8403L64.2339 35.8402Z" fill="#144D29"/>
<path d="M64.6194 35.3591C64.4735 35.4789 64.359 35.5126 64.2339 35.5126C63.9089 35.5126 63.8774 35.3021 63.8774 35.1226V34.2586C63.8774 34.2378 63.8853 34.2299 63.896 34.2273L64.0366 34.1936C64.0495 34.1909 64.0649 34.1883 64.0729 34.1988C64.0751 34.2037 64.0751 34.2091 64.0751 34.2144V35.1278C64.0751 35.2915 64.1768 35.3383 64.2758 35.3383C64.3877 35.3383 64.5098 35.2628 64.5854 35.2056V34.2585C64.5854 34.2377 64.5929 34.2298 64.6036 34.2272L64.7442 34.1935C64.7649 34.1882 64.7729 34.1908 64.7755 34.1935C64.7777 34.1935 64.7804 34.1961 64.7804 34.1987C64.783 34.2036 64.783 34.209 64.783 34.2143V35.1981C64.783 35.2291 64.7909 35.2654 64.8038 35.3021C64.8167 35.3384 64.8351 35.3671 64.8427 35.3826C64.8507 35.3982 64.8613 35.4087 64.8613 35.419C64.8613 35.4295 64.8508 35.4345 64.8401 35.4401L64.7361 35.5048C64.7229 35.5127 64.7025 35.5259 64.6711 35.4715C64.6451 35.4246 64.6322 35.3959 64.6269 35.38L64.6194 35.3592V35.3591Z" fill="#F7D417"/>
<path d="M65.3654 35.804C65.161 35.804 65.0064 35.6494 65.0064 35.4449V34.6958C64.8669 34.6474 64.7725 34.5179 64.7725 34.3576V34.2586C64.7725 34.1168 64.8466 33.9989 64.9603 33.9399C64.9413 33.887 64.9308 33.8296 64.9308 33.7691C64.9308 33.4951 65.1455 33.2804 65.4199 33.2804C65.6943 33.2804 65.909 33.4951 65.909 33.7691C65.909 33.8848 65.8712 33.9894 65.8066 34.0722C65.8406 34.1282 65.8599 34.1946 65.8599 34.2665V35.4449C65.8599 35.6493 65.7054 35.804 65.5008 35.804H65.3655H65.3654Z" fill="#144D29"/>
<path d="M65.5321 35.445C65.5321 35.4737 65.5162 35.4763 65.5008 35.4763H65.3655C65.3496 35.4763 65.3342 35.4737 65.3342 35.445V34.389H65.1312C65.1157 34.389 65.0999 34.3859 65.0999 34.3576V34.2586C65.0999 34.2299 65.1158 34.2273 65.1312 34.2273H65.4982C65.5291 34.2273 65.5321 34.2534 65.5321 34.2666V35.4451V35.445ZM65.4199 33.9309C65.3288 33.9309 65.2585 33.8606 65.2585 33.7691C65.2585 33.6784 65.3288 33.6082 65.4199 33.6082C65.5113 33.6082 65.5816 33.6784 65.5816 33.7691C65.5816 33.8606 65.5113 33.9309 65.4199 33.9309Z" fill="#F7D417"/>
<path d="M66.4144 35.8402C66.0103 35.8402 65.5791 35.5874 65.5791 34.878C65.5791 34.1806 66.0187 33.8632 66.4273 33.8632C66.6132 33.8632 66.8003 33.9236 66.9534 34.034C67.1749 34.1913 67.1642 34.4002 67.0872 34.5314L66.9383 34.8099L66.7289 34.8205C66.6023 34.8205 66.5215 34.754 66.495 34.732C66.4811 34.7207 66.47 34.7128 66.4621 34.7067C66.4549 34.734 66.4478 34.7797 66.4478 34.8519C66.4478 34.9256 66.4526 34.9725 66.458 35.0019C66.4822 34.9936 66.5124 34.9797 66.5487 34.9596C66.5812 34.943 66.616 34.9267 66.6598 34.9161L66.6976 34.9067H66.9943L67.0631 35.1346L67.0986 35.2235L67.1296 35.2798L67.1322 35.3799C67.1322 35.6041 66.9421 35.696 66.8507 35.7402C66.6998 35.8078 66.5558 35.8403 66.4145 35.8403L66.4144 35.8402Z" fill="#144D29"/>
<path d="M66.7415 34.4822C66.7393 34.4875 66.7366 34.4928 66.7286 34.4928C66.7184 34.4928 66.7105 34.4849 66.6977 34.4746C66.6066 34.4017 66.5412 34.3654 66.4426 34.3654C66.1278 34.3654 66.1199 34.7373 66.1199 34.8518C66.1199 35.0469 66.1433 35.3383 66.4192 35.3383C66.5231 35.3383 66.6195 35.2941 66.7053 35.2472C66.7159 35.2419 66.7261 35.237 66.7366 35.2343C66.7393 35.2343 66.7393 35.2343 66.7415 35.2343C66.7442 35.2343 66.7521 35.237 66.7548 35.2472L66.8017 35.3644C66.8043 35.3696 66.8043 35.3746 66.8043 35.3799C66.8043 35.3904 66.7884 35.4059 66.7079 35.4449C66.6324 35.4789 66.531 35.5126 66.4143 35.5126C66.1774 35.5126 65.9067 35.3905 65.9067 34.878C65.9067 34.4044 66.1645 34.1909 66.4272 34.1909C66.5387 34.1909 66.6611 34.2272 66.7628 34.3002C66.8176 34.3391 66.8119 34.3523 66.8044 34.3656L66.7416 34.4823L66.7415 34.4822Z" fill="#F7D417"/>
<path d="M67.5886 35.8402C67.143 35.8402 66.6936 35.5349 66.6936 34.8519C66.6936 34.2699 67.0424 33.8632 67.5418 33.8632C67.7285 33.8632 68.3377 33.9335 68.3377 34.836C68.3377 34.9592 68.295 35.0529 68.2311 35.1171L68.2727 35.2237L68.3036 35.2797L68.3066 35.3799C68.3066 35.6036 68.1166 35.6959 68.0255 35.7401C67.874 35.8077 67.7296 35.8402 67.5886 35.8402Z" fill="#144D29"/>
<path d="M67.9759 35.3644C67.9789 35.3696 67.9789 35.3746 67.9789 35.3799C67.9789 35.3904 67.963 35.4059 67.8826 35.4449C67.807 35.4789 67.7057 35.5126 67.5885 35.5126C67.3334 35.5126 67.0212 35.3644 67.0212 34.8519C67.0212 34.4301 67.245 34.1909 67.5417 34.1909C67.7602 34.1909 68.01 34.3028 68.01 34.8361V34.8494C68.01 34.8857 67.9994 34.8936 67.9813 34.8936H67.2345V34.9065C67.2345 35.2085 67.4193 35.3385 67.5935 35.3385C67.7005 35.3385 67.7942 35.2969 67.8797 35.2474C67.8902 35.2421 67.9008 35.2372 67.911 35.2345C67.9136 35.2345 67.9136 35.2345 67.9163 35.2345C67.9189 35.2345 67.9265 35.2372 67.9295 35.2474L67.976 35.3646L67.9759 35.3644ZM67.7964 34.732C67.7964 34.7139 67.7964 34.6096 67.7548 34.5109C67.703 34.3859 67.6092 34.3522 67.5231 34.3522C67.3856 34.3522 67.24 34.4535 67.2344 34.732H67.7964Z" fill="#F7D417"/>
</svg>
