<?xml version="1.0" encoding="UTF-8"?>
<!DOCTYPE svg PUBLIC "-//W3C//DTD SVG 1.1//EN" "http://www.w3.org/Graphics/SVG/1.1/DTD/svg11.dtd">
<!-- Creator: CorelDRAW -->
<svg xmlns="http://www.w3.org/2000/svg" xml:space="preserve" width="32.0762mm" height="12.1762mm" version="1.1" style="shape-rendering:geometricPrecision; text-rendering:geometricPrecision; image-rendering:optimizeQuality; fill-rule:evenodd; clip-rule:evenodd"
viewBox="0 0 12418.32 4714.02"
 xmlns:xlink="http://www.w3.org/1999/xlink"
 xmlns:xodm="http://www.corel.com/coreldraw/odm/2003">
 <defs>
  <style type="text/css">
   <![CDATA[
    .str0 {stroke:#2B2A29;stroke-width:29.5;stroke-miterlimit:22.9256}
    .fil0 {fill:none}
    .fil2 {fill:#3C543F;fill-rule:nonzero}
    .fil1 {fill:#F7D417;fill-rule:nonzero}
    .fil3 {fill:#144D29;fill-rule:nonzero}
   ]]>
  </style>
 </defs>
 <g id="Слой_x0020_1">
  <metadata id="CorelCorpID_0Corel-Layer"/>
  <rect class="fil0 str0" x="14.75" y="14.75" width="12388.82" height="4684.52"/>
  <g id="_2198859442528">
   <path class="fil1" d="M8022.46 2858.99c-150.1,68.33 -326.56,78.86 -489.86,70.96 -237.05,-10.53 -476.74,-52.58 -713.71,-78.86 -321.33,-36.78 -869.11,-102.48 -1135.13,118.27 -29.38,23.19 -55.13,50.64 -76.38,81.46 334.5,-155.09 874.38,-39.45 1211.47,-2.63 313.4,34.15 858.58,107.71 1121.96,-107.78 30.43,-23.73 57.84,-51.1 81.65,-81.42l0 0z"/>
   <path class="fil2" d="M8227.92 3127.05l503.02 0 0 -68.33c-63.22,-2.63 -136.97,-23.65 -136.97,-102.48l0 -328.5 31.63 5.27c84.28,13.12 200.16,-2.63 279.17,-36.78 215.95,-89.39 273.91,-312.74 271.28,-528.27 0,-191.83 -44.79,-457.26 -242.32,-546.62 -86.92,-39.41 -239.65,-42.04 -300.24,39.41l-31.59 42.08 -34.26 -110.45 -358.19 84.13 0 57.8c61.25,15.41 103.8,70.93 102.71,134.03l0 1187.89c0,49.9 -39.49,89.35 -84.24,99.85l0 70.96zm-3871.62 -1957.9l0 0c0,89.35 57.96,178.75 155.4,178.75 94.81,0 152.77,-89.35 152.77,-178.75 0,-86.72 -60.59,-178.67 -152.77,-178.67 -97.45,0 -155.4,91.95 -155.4,178.67zm300.27 323.23l0 0 -384.56 84.13 0 57.8c57.96,18.43 92.18,73.6 92.18,134.03l0 649.14c0,44.68 -34.22,86.72 -76.35,99.88l0 89.32 460.9 0 0 -86.72c-50.06,-10.49 -92.18,-44.68 -92.18,-102.48l0 -925.1 0 0zm-1216.81 1114.3l0 0 642.63 0 0 -84.09 -42.08 0c-76.38,0 -147.5,-49.9 -147.5,-128.77l0 -1285.11 26.36 0c181.73,0 265.97,176.08 273.87,333.76l68.49 0 0 -430.98 -1019.29 0 0 430.98 76.35 0c7.9,-157.69 92.18,-333.76 273.91,-333.76l26.33 0 0 1285.11c0,99.88 -94.81,131.4 -179.1,136.66l0 76.19 0.04 0zm1414.34 520.37l0 0 503.02 0 0 -68.33c-63.22,-2.63 -136.94,-23.65 -136.94,-102.48l0 -328.5 31.59 5.27c94.66,11.69 190.75,-0.97 279.17,-36.78 215.95,-89.39 273.91,-312.74 273.91,-528.27 -2.63,-191.83 -44.75,-457.26 -244.91,-546.62 -84.28,-39.41 -237.05,-42.04 -300.27,39.41l-31.59 42.08 -34.26 -110.45 -358.15 84.13 0 57.8c61.21,15.41 103.76,70.93 102.71,134.03l0 1187.89c-1.01,48.97 -36.12,90.63 -84.28,99.85l0 70.96 0 0zm676.86 -998.65l0 0c0,118.27 -15.8,294.35 -100.08,386.34 -47.39,49.9 -126.4,73.56 -179.1,21.02 -19.98,-19.32 -31.36,-45.8 -31.59,-73.56l0 -812.13 26.33 -2.59c86.92,-5.27 158.03,57.8 200.16,126.13 63.22,102.48 84.28,236.51 84.28,354.78zm874.42 478.29l0 0 642.59 0 0 -84.09 -42.08 0c-76.38,0 -147.47,-49.9 -147.47,-128.77l0 -1285.11 26.33 0c181.73,0 266.01,176.08 273.91,333.76l68.49 0 0 -430.98 -1019.33 0 0 430.98 76.38 0c7.9,-157.69 92.18,-333.76 273.91,-333.76l26.36 0 0 1285.11c0,99.88 -94.81,131.4 -179.13,136.66l0 76.19 0.04 0zm-57.96 -449.37l0 0 34.22 -212.89 -358.19 0 -34.22 212.86 358.19 0 0 0.04zm787.5 -107.74l0 0c0,270.66 168.57,591.3 468.8,591.3 302.87,0 471.43,-320.64 471.43,-591.3 0,-265.43 -168.57,-593.93 -471.43,-588.7 -300.24,5.27 -468.8,318.01 -468.8,588.7zm468.8 496.68l0 0c-136.97,0 -152.77,-409.95 -152.77,-496.68 0,-86.72 13.16,-496.71 152.77,-496.71 142.2,0 155.36,409.99 155.36,496.71 0,86.68 -18.43,496.68 -155.36,496.68zm1301.02 -417.85l0 0c0,118.27 -15.8,294.35 -102.71,386.34 -47.39,49.9 -123.77,73.56 -179.1,21.02 -18.23,-20.21 -28.49,-46.34 -28.96,-73.56l0 -812.13 23.69 -2.59c89.55,-5.27 158.03,57.8 202.79,126.13 63.22,102.48 84.28,236.51 84.28,354.78z"/>
   <g>
    <path class="fil3" d="M5463.7 3723.5c-20.25,0 -36.08,-16.03 -36.08,-36.51l0 -146.34c0,-3.79 0,-5.07 -1.86,-8.36 -1.12,-1.43 -6.16,-8.98 -6.16,-20.13l0 -20.4 19.28 -11.19 17.46 -11.03 11.69 -0.74c6.66,0 13.12,1.86 18.85,5.3 8.17,-3.14 17.54,-5.38 27.84,-5.38 12.93,0 77.28,4.84 77.28,100.47 0,72.4 -38.95,99.96 -77,101.94l0 11.89c0,17.15 -11,31.51 -27.37,35.7l-16.96 4.26 -6.97 0.54z"/>
    <path class="fil1" d="M5461.18 3540.65c0,-5.57 0,-13.86 -6.16,-24.78 -1.05,-1.59 -1.86,-2.67 -1.86,-3.72 0,-1.36 0.81,-1.59 1.36,-1.9l11.46 -7.16c1.32,-0.81 2.67,-1.32 4.53,0.5 3.17,3.21 5.85,9.06 7.16,14.4l2.17 -1.59c7.43,-5.61 19.98,-14.13 34.88,-14.13 13.36,0 43.75,6.66 43.75,66.9 0,60.78 -31.2,68.49 -48.01,68.49 -14.91,0 -25.82,-6.93 -29.04,-9.02l0 54.36c0,0.54 0,2.63 -2.13,3.17l-12.81 3.21c-1.86,0.54 -5.3,1.59 -5.3,-2.4l0 -146.34zm20.25 70.38l0 0c6.93,4.26 18.39,8.79 27.99,8.79 25.86,0 27.18,-25.05 27.18,-51.18 0,-23.96 -1.86,-48.47 -26.36,-48.47 -10.41,0 -21.87,7.7 -28.8,13.05l0 77.82z"/>
    <path class="fil3" d="M5599.09 3667.52c-20.94,0 -36.74,-15.83 -36.74,-36.78l0 -91.41c0,-3.02 -0.39,-3.99 -1.28,-5.81l-1.59 -3.17c-0.81,-1.39 -4.61,-8.13 -4.61,-17.93l0 -17.81 15.8 -12.12 11.3 -7.36 7.94 -6 14.17 -0.43 2.52 0.23c4.26,0.54 9.41,1.9 14.6,5.03 6.97,-3.17 15.1,-5.27 24.55,-5.27 7.59,0 14.98,1.47 22.61,4.53l13.12 5.27 7.67 14.67c2.32,5.57 5.19,16.88 -1.36,30l-5.07 11.61 -7.16 21.56c0,0 -25.82,1.59 -25.82,1.59l0 72.78c0,20.94 -15.8,36.78 -36.78,36.78l-13.86 0z"/>
    <path class="fil1" d="M5616.97 3520.4c6.39,-7.43 14.91,-18.12 28.77,-18.12 4.03,0 7.47,1.08 10.14,2.13 3.17,1.08 2.4,2.67 1.86,3.76l-6.39 14.63c-0.27,0.81 -0.81,1.59 -1.59,1.59 -0.81,0 -1.08,-0.5 -2.94,-1.32 -1.63,-0.81 -3.21,-1.08 -4.8,-1.08 -8.29,0 -16.53,9.6 -21.6,15.76l-4.26 5.3 0 87.69c0,1.63 -0.27,3.21 -3.21,3.21l-13.86 0c-2.9,0 -3.17,-1.59 -3.17,-3.21l0 -91.41c0,-8.79 -1.9,-14.67 -4.53,-20.25l-1.86 -3.72c-0.54,-1.08 -1.08,-1.63 -1.08,-2.94 0,-1.08 0.27,-1.63 1.08,-2.17l10.65 -6.89c1.05,-0.54 1.32,-1.08 1.86,-1.08 0.27,0 0.27,0 0.54,0 2.13,0.27 3.72,2.94 4.53,4.26 3.21,5.88 5.3,13.09 6.12,18.12l3.76 -4.26z"/>
    <path class="fil3" d="M5730.22 3671.23c-45.65,0 -91.68,-31.28 -91.68,-101.24 0,-59.62 35.73,-101.28 86.88,-101.28 19.13,0 81.53,7.2 81.53,99.65 0,12.58 -4.34,22.18 -10.84,28.77l0.54 1.78 6.85 17.11 0.23 8.05c0,23 -19.47,32.37 -28.84,36.9 -15.45,6.93 -30.2,10.26 -44.68,10.26z"/>
    <path class="fil1" d="M5769.9 3622.49c0.27,0.54 0.27,1.05 0.27,1.59 0,1.08 -1.59,2.67 -9.87,6.66 -7.7,3.48 -18.12,6.93 -30.08,6.93 -26.13,0 -58.11,-15.18 -58.11,-67.67 0,-43.21 22.92,-67.71 53.31,-67.71 22.38,0 47.97,11.46 47.97,66.09l0 1.36c0,3.72 -1.08,4.53 -2.94,4.53l-76.5 0 0 1.32c0,30.93 18.93,44.25 36.82,44.25 10.92,0 20.52,-4.26 29.31,-9.33 1.05,-0.54 2.13,-1.05 3.17,-1.32 0.27,0 0.27,0 0.54,0 0.27,0 1.08,0.27 1.32,1.32l4.8 12zm-18.35 -64.77l0 0c0,-1.86 0,-12.54 -4.3,-22.65 -5.3,-12.81 -14.91,-16.26 -23.69,-16.26 -14.13,0 -29.08,10.38 -29.62,38.91l57.61 0z"/>
    <path class="fil3" d="M5940.01 3667.52c-9.76,0 -18.35,-3.41 -24.82,-9.14 -6.43,5.73 -15.02,9.14 -24.78,9.14l-13.86 0c-9.72,0 -18.35,-3.41 -24.78,-9.14 -6.43,5.73 -15.06,9.14 -24.78,9.14l-13.86 0c-20.94,0 -36.78,-15.83 -36.78,-36.78l0 -91.41c0,-8.56 -0.66,-11.34 -0.7,-11.42 -1.39,-2.44 -4.37,-8.36 -4.37,-16.57l0 -21.02 20.25 -10.76 17.96 -10.03 10.84 -0.81c6.19,0 12.12,1.59 17.34,4.53 7.82,-2.79 16.76,-4.53 27.18,-4.53 11.15,0 21.33,2.56 30.08,7.36 9.72,-4.37 20.52,-7.36 32.52,-7.36 14.83,0 63.14,5.3 63.14,73.56l0 88.46c0,20.94 -15.8,36.78 -36.74,36.78l-13.86 0z"/>
    <path class="fil1" d="M5809.93 3539.33c0,-17.85 -2.4,-22.65 -4.26,-26.13 -0.54,-1.05 -0.81,-1.59 -0.81,-1.86 0,-0.77 0.81,-1.32 1.36,-1.59l12 -6.66c1.32,-0.81 3.17,-1.9 4.8,1.59 1.32,2.67 3.72,9.87 4.26,13.59 11.19,-9.06 21.33,-15.99 37.59,-15.99 11.69,0 19.98,4.8 24.78,15.99 16.26,-11.73 26.91,-15.99 37.82,-15.99 27.99,0 29.58,24 29.58,39.99l0 88.46c0,2.94 -1.59,3.21 -3.17,3.21l-13.86 0c-1.63,0 -3.21,-0.27 -3.21,-3.21l0 -89.01c0,-7.2 -0.77,-21.56 -17.31,-21.56 -11.19,0 -22.15,8.25 -23.73,9.29l-2.13 1.63 0 99.65c0,2.94 -1.63,3.21 -3.21,3.21l-13.86 0c-1.59,0 -3.17,-0.27 -3.17,-3.21l0 -89.01c0,-7.47 -0.81,-21.56 -17.34,-21.56 -10.1,0 -17.58,4.22 -25.86,10.92l0 99.65c0,1.63 -0.23,3.21 -3.17,3.21l-13.86 0c-1.59,0 -3.21,-0.27 -3.21,-3.21l0 -91.41z"/>
    <path class="fil3" d="M6015.16 3667.52c-20.94,0 -36.74,-15.83 -36.74,-36.78l0 -76.73c-14.29,-4.96 -24,-18.23 -24,-34.65l0 -10.14c0,-14.56 7.63,-26.6 19.28,-32.64 -1.94,-5.42 -3.02,-11.3 -3.02,-17.5 0,-28.07 22.03,-50.06 50.1,-50.06 28.11,0 50.1,21.99 50.1,50.06 0,11.85 -3.91,22.57 -10.49,31.09 3.45,5.69 5.42,12.5 5.42,19.86l0 120.71c0,20.94 -15.8,36.78 -36.74,36.78l-13.9 0z"/>
    <path class="fil1" d="M6032.23 3630.74c0,2.94 -1.59,3.21 -3.17,3.21l-13.9 0c-1.59,0 -3.17,-0.27 -3.17,-3.21l0 -108.17 -20.79 0c-1.59,0 -3.21,-0.31 -3.21,-3.21l0 -10.14c0,-2.94 1.63,-3.21 3.21,-3.21l37.55 0c3.21,0 3.48,2.67 3.48,4.03l0 120.71zm-11.46 -155.09l0 0c-9.33,0 -16.53,-7.2 -16.53,-16.57 0,-9.29 7.2,-16.49 16.53,-16.49 9.33,0 16.53,7.2 16.53,16.49 0,9.37 -7.2,16.57 -16.53,16.57z"/>
    <path class="fil3" d="M6113.26 3671.23c-21.06,0 -70.07,-7.16 -70.07,-73.52l0 -88.5c0,-17.42 11.03,-31.82 27.49,-35.81l18.35 -4.41 5.81 -0.23c11.58,0 22.07,5.23 28.84,14.32l1.05 1.39c4.72,-5.34 11.03,-9.29 18.43,-11.07l18.35 -4.41 6.04 -0.31c1.59,0 3.17,0.12 4.72,0.31l30 0 0.39 25.94 0.12 0.23 0.27 9.52 0 100.78 7.86 12.16 0.15 10.45c0,5.07 -1.47,22.34 -20.33,31.98l-16.45 10.41 -11.61 0.74c-3.87,0 -11.19,-0.74 -18.78,-5.27 -9.68,3.6 -19.74,5.3 -30.62,5.3z"/>
    <path class="fil1" d="M6152.71 3621.95c-14.94,12.27 -26.67,15.72 -39.45,15.72 -33.33,0 -36.51,-21.56 -36.51,-39.95l0 -88.5c0,-2.13 0.77,-2.94 1.86,-3.21l14.4 -3.45c1.32,-0.27 2.94,-0.54 3.72,0.54 0.27,0.5 0.27,1.05 0.27,1.59l0 93.57c0,16.76 10.38,21.56 20.52,21.56 11.46,0 23.96,-7.74 31.71,-13.59l0 -97.02c0,-2.13 0.81,-2.94 1.86,-3.21l14.4 -3.45c2.13,-0.54 2.94,-0.27 3.21,0 0.23,0 0.54,0.27 0.54,0.54 0.23,0.5 0.23,1.05 0.23,1.59l0 100.78c0,3.17 0.81,6.89 2.17,10.65 1.32,3.72 3.17,6.66 3.99,8.25 0.81,1.59 1.86,2.67 1.86,3.72 0,1.08 -1.05,1.59 -2.13,2.17l-10.69 6.62c-1.32,0.81 -3.45,2.17 -6.66,-3.41 -2.63,-4.8 -3.99,-7.74 -4.53,-9.37l-0.77 -2.13z"/>
    <path class="fil3" d="M6346.87 3667.52c-9.72,0 -18.35,-3.41 -24.78,-9.14 -6.47,5.73 -15.06,9.14 -24.78,9.14l-13.9 0c-9.72,0 -18.31,-3.41 -24.78,-9.14 -6.43,5.73 -15.06,9.14 -24.78,9.14l-13.86 0c-20.98,0 -36.74,-15.83 -36.74,-36.78l0 -91.41c0,-8.52 -0.66,-11.3 -0.7,-11.42 -1.59,-2.83 -4.37,-8.52 -4.37,-16.57l0 -21.25 20.52 -10.69 17.65 -9.87 10.84 -0.81c6.19,0 12.16,1.59 17.34,4.53 7.86,-2.79 16.8,-4.53 27.18,-4.53 11.15,0 21.33,2.56 30.04,7.36 9.76,-4.37 20.56,-7.36 32.56,-7.36 14.83,0 63.14,5.3 63.14,73.56l0 88.46c0,20.94 -15.76,36.78 -36.74,36.78l-13.86 0z"/>
    <path class="fil1" d="M6216.83 3539.33c0,-17.85 -2.4,-22.65 -4.3,-26.13 -0.5,-1.05 -0.81,-1.59 -0.81,-1.86 0,-0.77 0.81,-1.32 1.36,-1.59l12 -6.66c1.32,-0.81 3.17,-1.9 4.8,1.59 1.32,2.67 3.72,9.87 4.26,13.59 11.19,-9.06 21.29,-15.99 37.59,-15.99 11.69,0 19.98,4.8 24.78,15.99 16.26,-11.73 26.91,-15.99 37.82,-15.99 27.99,0 29.58,24 29.58,39.99l0 88.46c0,2.94 -1.59,3.21 -3.17,3.21l-13.86 0c-1.59,0 -3.17,-0.27 -3.17,-3.21l0 -89.01c0,-7.2 -0.81,-21.56 -17.34,-21.56 -11.23,0 -22.15,8.25 -23.73,9.29l-2.13 1.63 0 99.65c0,2.94 -1.59,3.21 -3.17,3.21l-13.9 0c-1.59,0 -3.17,-0.27 -3.17,-3.21l0 -89.01c0,-7.47 -0.81,-21.56 -17.34,-21.56 -10.1,0 -17.58,4.22 -25.86,10.92l0 99.65c0,1.63 -0.23,3.21 -3.17,3.21l-13.86 0c-1.59,0 -3.17,-0.27 -3.17,-3.21l0 -91.41z"/>
    <path class="fil3" d="M6460.3 3723.5c-21.22,0 -37.21,-6.43 -44.83,-10.22 -18.43,-9.1 -26.56,-29.35 -19.2,-48.08l14.71 -32.56 23.73 -1.36c3.95,0 7.32,0.58 10.14,1.39l0 -78.59c-14.4,-4.88 -24.24,-18.23 -24.24,-34.73l0 -10.14c0,-14.63 7.7,-26.75 19.51,-32.75 -1.94,-5.38 -2.98,-11.23 -2.98,-17.38 0,-28.07 21.99,-50.06 50.06,-50.06 28.11,0 50.1,21.99 50.1,50.06 0,11.85 -3.87,22.57 -10.45,31.05 3.45,5.73 5.42,12.54 5.42,19.9l0 138.06c0,45.8 -28.26,75.42 -71.97,75.42z"/>
    <path class="fil1" d="M6498.71 3648.08c0,12.27 -2.94,41.85 -38.41,41.85 -14.36,0 -25.05,-4.3 -29.85,-6.7 -4.26,-2.09 -3.45,-4.49 -2.94,-5.85l5.11 -11.19c0.23,-0.54 0.5,-1.36 2.09,-1.36l0.31 0c1.59,0 2.9,1.36 8.25,3.48 5.34,2.13 10.14,3.72 16.76,3.72 20.02,0 18.39,-16.76 18.39,-28.77l0 -120.71 -21.02 0c-1.59,0 -3.21,-0.31 -3.21,-3.21l0 -10.14c0,-2.94 1.63,-3.21 3.21,-3.21l37.82 0c3.21,0 3.48,2.67 3.48,4.03l0 138.06zm-11.5 -172.44l0 0c-9.29,0 -16.49,-7.2 -16.49,-16.57 0,-9.29 7.2,-16.49 16.49,-16.49 9.37,0 16.53,7.2 16.53,16.49 0,9.37 -7.16,16.57 -16.53,16.57z"/>
    <path class="fil3" d="M6579.7 3671.23c-21.06,0 -70.07,-7.16 -70.07,-73.52l0 -88.5c0,-17.42 11.03,-31.82 27.53,-35.81l18.35 -4.41 5.81 -0.23c11.42,0 21.91,5.11 28.65,14.09l1.24 1.63c4.68,-5.34 11,-9.29 18.43,-11.07l18.35 -4.41 6.04 -0.31c1.59,0 3.17,0.12 4.72,0.31l30 0 0.39 25.94 0.12 0.23 0.27 9.52 0 100.78 8.01 12.39 0 10.22c0,5.07 -1.47,22.34 -20.33,31.98l-16.45 10.41 -11.65 0.74c-3.83,0 -11.15,-0.74 -18.74,-5.27 -9.72,3.6 -19.74,5.3 -30.66,5.3z"/>
    <path class="fil1" d="M6619.19 3621.95c-14.94,12.27 -26.67,15.72 -39.49,15.72 -33.29,0 -36.51,-21.56 -36.51,-39.95l0 -88.5c0,-2.13 0.81,-2.94 1.9,-3.21l14.4 -3.45c1.32,-0.27 2.9,-0.54 3.72,0.54 0.23,0.5 0.23,1.05 0.23,1.59l0 93.57c0,16.76 10.41,21.56 20.56,21.56 11.46,0 23.96,-7.74 31.71,-13.59l0 -97.02c0,-2.13 0.77,-2.94 1.86,-3.21l14.4 -3.45c2.13,-0.54 2.94,-0.27 3.21,0 0.23,0 0.5,0.27 0.5,0.54 0.27,0.5 0.27,1.05 0.27,1.59l0 100.78c0,3.17 0.81,6.89 2.13,10.65 1.32,3.72 3.21,6.66 3.99,8.25 0.81,1.59 1.9,2.67 1.9,3.72 0,1.08 -1.08,1.59 -2.17,2.17l-10.65 6.62c-1.36,0.81 -3.45,2.17 -6.66,-3.41 -2.67,-4.8 -3.99,-7.74 -4.53,-9.37l-0.77 -2.13z"/>
    <path class="fil3" d="M6695.61 3667.52c-20.94,0 -36.78,-15.83 -36.78,-36.78l0 -76.73c-14.29,-4.96 -23.96,-18.23 -23.96,-34.65l0 -10.14c0,-14.52 7.59,-26.6 19.24,-32.64 -1.94,-5.42 -3.02,-11.3 -3.02,-17.5 0,-28.07 21.99,-50.06 50.1,-50.06 28.11,0 50.1,21.99 50.1,50.06 0,11.85 -3.87,22.57 -10.49,31.05 3.48,5.73 5.46,12.54 5.46,19.9l0 120.71c0,20.94 -15.83,36.78 -36.78,36.78l-13.86 0z"/>
    <path class="fil1" d="M6712.69 3630.74c0,2.94 -1.63,3.21 -3.21,3.21l-13.86 0c-1.63,0 -3.21,-0.27 -3.21,-3.21l0 -108.17 -20.79 0c-1.59,0 -3.21,-0.31 -3.21,-3.21l0 -10.14c0,-2.94 1.63,-3.21 3.21,-3.21l37.59 0c3.17,0 3.48,2.67 3.48,4.03l0 120.71zm-11.5 -155.09l0 0c-9.33,0 -16.53,-7.2 -16.53,-16.57 0,-9.29 7.2,-16.49 16.53,-16.49 9.37,0 16.57,7.2 16.57,16.49 0,9.37 -7.2,16.57 -16.57,16.57z"/>
    <path class="fil3" d="M6803.05 3671.23c-41.39,0 -85.56,-25.9 -85.56,-98.57 0,-71.43 45.03,-103.95 86.88,-103.95 19.05,0 38.21,6.19 53.89,17.5 22.69,16.11 21.6,37.51 13.71,50.95l-15.25 28.53 -21.45 1.08c-12.97,0 -21.25,-6.81 -23.96,-9.06 -1.43,-1.16 -2.56,-1.97 -3.37,-2.59 -0.74,2.79 -1.47,7.47 -1.47,14.87 0,7.55 0.5,12.35 1.05,15.37 2.48,-0.85 5.57,-2.28 9.29,-4.34 3.33,-1.7 6.89,-3.37 11.38,-4.45l3.87 -0.97 30.39 0 7.05 23.35 3.64 9.1 3.17 5.77 0.27 10.26c0,22.96 -19.47,32.37 -28.84,36.9 -15.45,6.93 -30.2,10.26 -44.68,10.26z"/>
    <path class="fil1" d="M6836.58 3532.13c-0.23,0.54 -0.5,1.08 -1.32,1.08 -1.05,0 -1.86,-0.81 -3.17,-1.86 -9.33,-7.47 -16.03,-11.19 -26.13,-11.19 -32.25,0 -33.06,38.1 -33.06,49.83 0,19.98 2.4,49.83 30.66,49.83 10.65,0 20.52,-4.53 29.31,-9.33 1.08,-0.54 2.13,-1.05 3.21,-1.32 0.27,0 0.27,0 0.5,0 0.27,0 1.08,0.27 1.36,1.32l4.8 12c0.27,0.54 0.27,1.05 0.27,1.59 0,1.08 -1.63,2.67 -9.87,6.66 -7.74,3.48 -18.12,6.93 -30.08,6.93 -24.27,0 -51.99,-12.5 -51.99,-65 0,-48.51 26.4,-70.38 53.31,-70.38 11.42,0 23.96,3.72 34.38,11.19 5.61,3.99 5.03,5.34 4.26,6.7l-6.43 11.96z"/>
    <path class="fil3" d="M6923.34 3671.23c-45.65,0 -91.68,-31.28 -91.68,-101.24 0,-59.62 35.73,-101.28 86.88,-101.28 19.13,0 81.53,7.2 81.53,99.65 0,12.62 -4.37,22.22 -10.92,28.8l4.26 10.92 3.17 5.73 0.31 10.26c0,22.92 -19.47,32.37 -28.8,36.9 -15.52,6.93 -30.31,10.26 -44.75,10.26z"/>
    <path class="fil1" d="M6963.02 3622.49c0.31,0.54 0.31,1.05 0.31,1.59 0,1.08 -1.63,2.67 -9.87,6.66 -7.74,3.48 -18.12,6.93 -30.12,6.93 -26.13,0 -58.11,-15.18 -58.11,-67.67 0,-43.21 22.92,-67.71 53.31,-67.71 22.38,0 47.97,11.46 47.97,66.09l0 1.36c0,3.72 -1.08,4.53 -2.94,4.53l-76.5 0 0 1.32c0,30.93 18.93,44.25 36.78,44.25 10.96,0 20.56,-4.26 29.31,-9.33 1.08,-0.54 2.17,-1.05 3.21,-1.32 0.27,0 0.27,0 0.54,0 0.27,0 1.05,0.27 1.36,1.32l4.76 12zm-18.39 -64.77l0 0c0,-1.86 0,-12.54 -4.26,-22.65 -5.3,-12.81 -14.91,-16.26 -23.73,-16.26 -14.09,0 -29,10.38 -29.58,38.91l57.57 0z"/>
   </g>
  </g>
 </g>
</svg>
