<?xml version="1.0" encoding="UTF-8"?>
<!DOCTYPE svg PUBLIC "-//W3C//DTD SVG 1.1//EN" "http://www.w3.org/Graphics/SVG/1.1/DTD/svg11.dtd">
<!-- Creator: CorelDRAW -->
<svg xmlns="http://www.w3.org/2000/svg" xml:space="preserve" width="32.0762mm" height="12.1762mm" version="1.1" style="shape-rendering:geometricPrecision; text-rendering:geometricPrecision; image-rendering:optimizeQuality; fill-rule:evenodd; clip-rule:evenodd"
viewBox="0 0 1385.83 526.06"
 xmlns:xlink="http://www.w3.org/1999/xlink"
 xmlns:xodm="http://www.corel.com/coreldraw/odm/2003">
 <defs>
  <style type="text/css">
   <![CDATA[
    .str1 {stroke:#FECC00;stroke-width:8.64;stroke-miterlimit:22.9256}
    .str0 {stroke:#2B2A29;stroke-width:3.29;stroke-miterlimit:22.9256}
    .fil0 {fill:none}
    .fil2 {fill:#2B2A29}
    .fil1 {fill:#FFB001}
    .fil3 {fill:#2B2A29;fill-rule:nonzero}
   ]]>
  </style>
 </defs>
 <g id="Слой_x0020_1">
  <metadata id="CorelCorpID_0Corel-Layer"/>
  <rect class="fil0 str0" x="1.65" y="1.65" width="1382.54" height="522.77"/>
  <g id="_2198857895104">
   <g>
    <path class="fil1 str1" d="M183.33 142.88l174.8 0c7.92,0 14.4,6.48 14.4,14.41l0 177.68c0,7.91 -7.09,11.39 -14.4,14.4l-72.13 29.74c-13.05,5.38 -15.6,5.27 -27.33,0.55l-75.34 -30.29c-7.34,-2.95 -14.4,-6.48 -14.4,-14.4l0 -177.68c0,-7.93 6.48,-14.41 14.4,-14.41z"/>
    <path class="fil2" d="M227.66 211.84c12.27,-12.27 24.54,-24.54 36.81,-36.81 3.52,-3.31 6.86,-3 10.06,0 11.15,11.15 22.3,22.3 33.45,33.45 4.84,5.73 4.77,9.8 -3.03,11.3 -23.13,0 -46.25,0 -69.38,0 -6.89,-0.13 -11.75,-1.52 -7.91,-7.95z"/>
    <polygon class="fil2" points="155.67,284.83 210.12,229.97 268.72,288.57 327.73,229.55 382.8,284.63 328.57,284.63 270.9,342.29 213.44,284.83 "/>
   </g>
   <g>
    <path class="fil3" d="M714.09 336.56l4.61 0 0 33.54 -4.61 0 0 -2.66c-2.39,2.17 -5.18,3.25 -8.36,3.25 -2.62,0 -4.96,-0.73 -7.01,-2.19 -2.05,-1.46 -3.6,-3.42 -4.64,-5.87 -0.67,-1.61 -1.02,-3.25 -1.02,-4.94 0,-3.46 1.26,-6.47 3.78,-9.02 2.52,-2.55 5.51,-3.82 8.98,-3.82 3.15,0 5.91,1.14 8.28,3.42l0 -11.7zm-8.04 12.84c-3.01,0 -5.3,1.24 -6.87,3.72 -0.93,1.46 -1.4,3.02 -1.4,4.69 0,2.39 0.78,4.41 2.32,6.04 1.55,1.63 3.51,2.45 5.9,2.45 3.66,0 6.18,-1.66 7.58,-4.99 0.45,-1.07 0.67,-2.21 0.67,-3.42 0,-1.72 -0.42,-3.28 -1.27,-4.69 -0.89,-1.52 -2.1,-2.59 -3.62,-3.21 -0.95,-0.39 -2.06,-0.59 -3.33,-0.59zm29.38 -4.56c3.77,0 6.91,1.38 9.42,4.14 2.23,2.45 3.34,5.4 3.34,8.87 0,3.58 -1.23,6.61 -3.69,9.1 -2.47,2.49 -5.49,3.74 -9.06,3.74 -3.55,0 -6.58,-1.25 -9.08,-3.76 -2.51,-2.51 -3.76,-5.53 -3.76,-9.08 0,-3.41 1.13,-6.35 3.38,-8.83 2.53,-2.79 5.69,-4.18 9.46,-4.18zm0 4.56c-3.58,0 -6.08,1.75 -7.52,5.24 -0.39,0.95 -0.59,2.04 -0.59,3.25 0,2.39 0.76,4.38 2.26,5.95 1.5,1.58 3.46,2.37 5.85,2.37 3.01,0 5.28,-1.23 6.8,-3.68 0.87,-1.41 1.31,-2.96 1.31,-4.64 0,-2.37 -0.77,-4.37 -2.3,-6.02 -1.53,-1.65 -3.47,-2.47 -5.81,-2.47zm18.41 -13.43c0.85,0 1.61,0.34 2.28,1.02 0.68,0.67 1.02,1.43 1.02,2.28 0,0.84 -0.34,1.6 -1.02,2.28 -0.67,0.67 -1.43,1.02 -2.28,1.02 -0.84,0 -1.6,-0.34 -2.26,-1.02 -0.66,-0.68 -0.99,-1.44 -0.99,-2.28 0,-0.85 0.33,-1.61 0.99,-2.28 0.66,-0.67 1.42,-1.02 2.26,-1.02zm-2.28 34.13l0 -24.67 4.65 0 0 24.67 -4.65 0zm9.08 0l0 -24.67 4.61 0 0 2.45c1.07,-1.27 2.52,-2.15 4.35,-2.66 0.9,-0.25 1.8,-0.38 2.7,-0.38 3.38,0 5.84,1.49 7.39,4.48 1.32,-1.97 3.18,-3.32 5.57,-4.06 0.93,-0.28 1.84,-0.42 2.75,-0.42 4.53,0 7.28,2.51 8.23,7.52 0.28,1.46 0.42,2.91 0.42,4.35l0 13.39 -4.73 0 -0.13 -16.35c0,-0.82 -0.19,-1.59 -0.55,-2.32 -0.64,-1.35 -1.94,-2.03 -3.88,-2.03 -2.55,0 -4.34,1.11 -5.38,3.34 -0.73,1.55 -1.09,4.05 -1.09,7.52l0 9.84 -4.64 0 0 -12.59 -0.13 -3.21c-0.03,-1.04 -0.21,-1.9 -0.55,-2.57 -0.51,-1.55 -1.8,-2.32 -3.88,-2.32 -4.31,0 -6.46,3.38 -6.46,10.14l0 10.56 -4.61 0zm52.29 -25.26c3.78,0 6.91,1.38 9.42,4.14 2.23,2.45 3.34,5.4 3.34,8.87 0,3.58 -1.23,6.61 -3.7,9.1 -2.46,2.49 -5.48,3.74 -9.06,3.74 -3.55,0 -6.58,-1.25 -9.08,-3.76 -2.51,-2.51 -3.76,-5.53 -3.76,-9.08 0,-3.41 1.13,-6.35 3.38,-8.83 2.54,-2.79 5.69,-4.18 9.46,-4.18zm0 4.56c-3.58,0 -6.08,1.75 -7.52,5.24 -0.39,0.95 -0.59,2.04 -0.59,3.25 0,2.39 0.75,4.38 2.26,5.95 1.51,1.58 3.46,2.37 5.85,2.37 3.02,0 5.28,-1.23 6.8,-3.68 0.87,-1.41 1.31,-2.96 1.31,-4.64 0,-2.37 -0.76,-4.37 -2.3,-6.02 -1.53,-1.65 -3.47,-2.47 -5.81,-2.47zm35.43 18.11l-9.79 -22.08 4.99 0 7.3 16.46 7.15 -16.46 4.98 0 -14.45 33.08 -4.98 0 4.8 -11zm28.06 -22.67c3.77,0 6.91,1.38 9.42,4.14 2.23,2.45 3.34,5.4 3.34,8.87 0,3.58 -1.23,6.61 -3.69,9.1 -2.46,2.49 -5.48,3.74 -9.06,3.74 -3.55,0 -6.58,-1.25 -9.08,-3.76 -2.51,-2.51 -3.76,-5.53 -3.76,-9.08 0,-3.41 1.12,-6.35 3.38,-8.83 2.54,-2.79 5.69,-4.18 9.46,-4.18zm0 4.56c-3.58,0 -6.08,1.75 -7.52,5.24 -0.4,0.95 -0.59,2.04 -0.59,3.25 0,2.39 0.75,4.38 2.26,5.95 1.51,1.58 3.46,2.37 5.85,2.37 3.01,0 5.28,-1.23 6.8,-3.68 0.87,-1.41 1.31,-2.96 1.31,-4.64 0,-2.37 -0.77,-4.37 -2.3,-6.02 -1.53,-1.65 -3.47,-2.47 -5.81,-2.47zm16.56 20.7l0 -24.67 4.65 0 0 2.79c2.36,-2.26 5.05,-3.38 8.07,-3.38 6,0 9,4.2 9,12.59l0 12.67 -4.61 0 0 -14.15c-0.06,-0.42 -0.08,-0.72 -0.08,-0.89 0,-1.78 -0.45,-3.19 -1.32,-4.25 -0.88,-1.05 -2.18,-1.59 -3.91,-1.59 -1.68,0 -3.11,0.51 -4.29,1.54 -1.19,1.03 -2.04,2.36 -2.56,3.99 -0.17,0.59 -0.27,1.35 -0.29,2.28l0 3.76 0 9.29 -4.65 0zm28.22 -34.13c0.85,0 1.61,0.34 2.28,1.02 0.68,0.67 1.02,1.43 1.02,2.28 0,0.84 -0.34,1.6 -1.02,2.28 -0.67,0.67 -1.43,1.02 -2.28,1.02 -0.84,0 -1.59,-0.34 -2.26,-1.02 -0.66,-0.68 -0.99,-1.44 -0.99,-2.28 0,-0.85 0.33,-1.61 0.99,-2.28 0.67,-0.67 1.42,-1.02 2.26,-1.02zm-2.28 34.13l0 -24.67 4.65 0 0 24.67 -4.65 0zm9.08 0l0 -24.67 4.65 0 0 2.79c2.36,-2.26 5.05,-3.38 8.07,-3.38 6,0 9,4.2 9,12.59l0 12.67 -4.61 0 0 -14.15c-0.06,-0.42 -0.08,-0.72 -0.08,-0.89 0,-1.78 -0.45,-3.19 -1.32,-4.25 -0.88,-1.05 -2.18,-1.59 -3.91,-1.59 -1.68,0 -3.11,0.51 -4.29,1.54 -1.19,1.03 -2.04,2.36 -2.56,3.99 -0.17,0.59 -0.27,1.35 -0.29,2.28l0 3.76 0 9.29 -4.65 0zm37.91 -25.26c3.09,0 5.84,1.11 8.22,3.34l0 -2.75 4.73 0 0 19.18c0,3.24 -0.3,5.69 -0.89,7.35 -0.85,2.39 -2.39,4.21 -4.65,5.45 -2.03,1.12 -4.39,1.69 -7.09,1.69 -6.03,0 -10.42,-2.96 -13.18,-8.87l5.03 0c1.72,2.99 4.38,4.48 7.98,4.48 2.56,0 4.55,-0.66 5.95,-1.97 1.41,-1.31 2.11,-3.23 2.11,-5.76 -2.45,2.08 -5.21,3.12 -8.28,3.12 -3.44,0 -6.4,-1.22 -8.89,-3.67 -2.49,-2.45 -3.74,-5.4 -3.74,-8.83 0,-4.53 2.01,-8.11 6.03,-10.73 2.09,-1.35 4.3,-2.03 6.66,-2.03zm0.41 4.56c-3.12,0 -5.48,1.23 -7.06,3.68 -0.93,1.43 -1.39,3 -1.39,4.69 0,2.39 0.77,4.3 2.32,5.72 1.55,1.42 3.53,2.13 5.95,2.13 2.48,0 4.46,-0.72 5.96,-2.16 1.49,-1.43 2.24,-3.39 2.24,-5.87 0,-2.42 -0.74,-4.39 -2.22,-5.91 -1.48,-1.52 -3.42,-2.28 -5.81,-2.28zm19.01 -13.43c0.84,0 1.6,0.34 2.28,1.02 0.67,0.67 1.01,1.43 1.01,2.28 0,0.84 -0.34,1.6 -1.01,2.28 -0.68,0.67 -1.44,1.02 -2.28,1.02 -0.85,0 -1.6,-0.34 -2.26,-1.02 -0.66,-0.68 -0.99,-1.44 -0.99,-2.28 0,-0.85 0.33,-1.61 0.99,-2.28 0.66,-0.67 1.41,-1.02 2.26,-1.02zm-2.28 34.13l0 -24.67 4.64 0 0 24.67 -4.64 0zm7.22 -20.36l0 -4.31 19.26 0 -13.01 20.36 11.87 0 0 4.31 -20.09 0 13.01 -20.36 -11.04 0zm40.3 -13.18l4.6 0 0 33.54 -4.6 0 0 -2.66c-2.39,2.17 -5.18,3.25 -8.36,3.25 -2.62,0 -4.96,-0.73 -7.01,-2.19 -2.06,-1.46 -3.6,-3.42 -4.64,-5.87 -0.68,-1.61 -1.02,-3.25 -1.02,-4.94 0,-3.46 1.26,-6.47 3.78,-9.02 2.52,-2.55 5.51,-3.82 8.98,-3.82 3.15,0 5.91,1.14 8.28,3.42l0 -11.7zm-8.05 12.84c-3.01,0 -5.29,1.24 -6.86,3.72 -0.93,1.46 -1.4,3.02 -1.4,4.69 0,2.39 0.77,4.41 2.32,6.04 1.55,1.63 3.51,2.45 5.9,2.45 3.65,0 6.18,-1.66 7.58,-4.99 0.45,-1.07 0.68,-2.21 0.68,-3.42 0,-1.72 -0.42,-3.28 -1.27,-4.69 -0.89,-1.52 -2.11,-2.59 -3.62,-3.21 -0.96,-0.39 -2.06,-0.59 -3.33,-0.59zm37.66 -3.97l4.61 0 0 24.67 -4.61 0 0 -2.66c-2.39,2.17 -5.19,3.25 -8.4,3.25 -3.52,0 -6.5,-1.29 -8.93,-3.87 -2.44,-2.57 -3.66,-5.63 -3.66,-9.14 0,-3.52 1.24,-6.54 3.72,-9.06 2.48,-2.52 5.46,-3.78 8.95,-3.78 3.18,0 5.96,1.14 8.32,3.42l0 -2.83zm-8.07 3.97c-3.02,0 -5.31,1.24 -6.89,3.72 -0.93,1.46 -1.39,3.02 -1.39,4.69 0,2.39 0.78,4.41 2.34,6.04 1.56,1.63 3.54,2.45 5.94,2.45 2.45,0 4.44,-0.79 5.98,-2.36 1.54,-1.58 2.3,-3.59 2.3,-6.04 0,-2.51 -0.76,-4.55 -2.28,-6.13 -1.52,-1.58 -3.52,-2.37 -6,-2.37z"/>
    <path class="fil3" d="M527.67 268.35l0 -87.73 16.38 0 0 8.71c3.81,-4.51 8.96,-7.66 15.47,-9.46 3.21,-0.9 6.41,-1.35 9.62,-1.35 12.02,0 20.78,5.31 26.29,15.93 4.7,-7.01 11.32,-11.82 19.83,-14.43 3.31,-1 6.56,-1.5 9.76,-1.5 16.12,0 25.89,8.91 29.29,26.74 1,5.21 1.5,10.36 1.5,15.48l0 47.62 -16.82 0 -0.45 -58.14c0,-2.91 -0.65,-5.66 -1.95,-8.26 -2.28,-4.81 -6.88,-7.21 -13.77,-7.21 -9.06,0 -15.45,3.96 -19.16,11.87 -2.57,5.51 -3.88,14.42 -3.88,26.74l0 35 -16.53 0 0 -44.77 -0.45 -11.41c-0.1,-3.71 -0.75,-6.76 -1.95,-9.16 -1.8,-5.51 -6.41,-8.26 -13.82,-8.26 -15.32,0 -22.98,12.02 -22.98,36.05l0 37.56 -16.38 0zm214.96 -33.95l13.99 7.06c-10.01,19.33 -24.39,28.99 -43.11,28.99 -12.92,0 -23.74,-4.38 -32.45,-13.14 -8.71,-8.77 -13.07,-19.61 -13.07,-32.52 0,-11.02 3.4,-20.88 10.21,-29.6 8.71,-11.12 20.28,-16.67 34.7,-16.67 14.72,0 26.64,5.71 35.76,17.13 6.41,8.01 9.62,18.93 9.62,32.75l-73.46 0c0,7.31 2.78,13.54 8.36,18.7 5.56,5.16 12.02,7.74 19.33,7.74 6.93,0 12.89,-1.91 17.93,-5.71 4.11,-3.11 8.19,-8.01 12.2,-14.72zm-48.35 -32.8c-2.8,2.48 -5.21,6.36 -7.21,11.62l52.58 0c-4.51,-12.32 -13.37,-18.48 -26.59,-18.48 -7.21,0 -13.47,2.28 -18.78,6.86zm118.73 -23.08c11,0 20.76,3.95 29.24,11.87l0 -9.77 16.83 0 0 68.21c0,11.52 -1.05,20.23 -3.15,26.14 -3.01,8.52 -8.52,14.97 -16.53,19.38 -7.21,4.01 -15.63,6.01 -25.24,6.01 -21.43,0 -37.06,-10.52 -46.87,-31.55l17.88 0c6.11,10.62 15.58,15.93 28.39,15.93 9.11,0 16.18,-2.33 21.18,-6.99 5.01,-4.66 7.51,-11.49 7.51,-20.51 -8.71,7.41 -18.53,11.12 -29.44,11.12 -12.22,0 -22.76,-4.35 -31.62,-13.07 -8.87,-8.71 -13.3,-19.18 -13.3,-31.4 0,-16.12 7.14,-28.84 21.43,-38.16 7.41,-4.81 15.3,-7.21 23.68,-7.21zm1.46 16.22c-11.12,0 -19.48,4.36 -25.09,13.07 -3.31,5.11 -4.96,10.67 -4.96,16.68 0,8.51 2.76,15.3 8.26,20.36 5.51,5.05 12.57,7.59 21.18,7.59 8.81,0 15.88,-2.56 21.18,-7.66 5.31,-5.11 7.96,-12.07 7.96,-20.88 0,-8.61 -2.63,-15.62 -7.88,-21.03 -5.26,-5.41 -12.14,-8.11 -20.66,-8.11zm132.2 -14.12l16.37 0 0 87.73 -16.37 0 0 -9.46c-8.51,7.71 -18.48,11.57 -29.9,11.57 -12.52,0 -23.11,-4.58 -31.77,-13.74 -8.66,-9.16 -13,-20.01 -13,-32.53 0,-12.52 4.41,-23.26 13.22,-32.22 8.81,-8.96 19.43,-13.45 31.85,-13.45 11.32,0 21.18,4.06 29.59,12.17l0 -10.07zm-28.69 14.12c-10.72,0 -18.88,4.41 -24.49,13.22 -3.31,5.21 -4.96,10.77 -4.96,16.68 0,8.51 2.78,15.67 8.34,21.48 5.56,5.81 12.59,8.71 21.11,8.71 8.71,0 15.8,-2.8 21.26,-8.41 5.46,-5.61 8.19,-12.77 8.19,-21.49 0,-8.91 -2.7,-16.17 -8.11,-21.78 -5.41,-5.61 -12.52,-8.41 -21.33,-8.41zm71.81 -14.12l0 -30.2 16.82 0 0 30.2 16.37 0 0 15.03 -16.37 0 0 72.71 -16.82 0 0 -72.71 -14.27 0 0 -15.03 14.27 0zm114.17 0l16.38 0 0 87.73 -16.38 0 0 -9.46c-8.51,7.71 -18.48,11.57 -29.89,11.57 -12.52,0 -23.11,-4.58 -31.78,-13.74 -8.66,-9.16 -12.99,-20.01 -12.99,-32.53 0,-12.52 4.41,-23.26 13.22,-32.22 8.81,-8.96 19.43,-13.45 31.85,-13.45 11.32,0 21.18,4.06 29.59,12.17l0 -10.07zm-28.69 14.12c-10.71,0 -18.88,4.41 -24.49,13.22 -3.31,5.21 -4.96,10.77 -4.96,16.68 0,8.51 2.78,15.67 8.34,21.48 5.56,5.81 12.6,8.71 21.11,8.71 8.71,0 15.8,-2.8 21.26,-8.41 5.46,-5.61 8.19,-12.77 8.19,-21.49 0,-8.91 -2.7,-16.17 -8.11,-21.78 -5.41,-5.61 -12.52,-8.41 -21.33,-8.41zm80.55 27.47l-30.02 -41.59 19.93 0 20.11 28.22 20.15 -28.22 20 0 -30.1 41.74 33.68 46 -20.31 0 -23.41 -32.07 -23.11 32.07 -20 0 33.08 -46.14zm62.62 -75.24c3,0 5.71,1.21 8.11,3.61 2.41,2.4 3.61,5.11 3.61,8.11 0,3 -1.2,5.71 -3.61,8.11 -2.4,2.41 -5.11,3.61 -8.11,3.61 -3.01,0 -5.69,-1.2 -8.04,-3.61 -2.35,-2.4 -3.53,-5.11 -3.53,-8.11 0,-3.01 1.18,-5.71 3.53,-8.11 2.35,-2.4 5.03,-3.61 8.04,-3.61zm-8.11 121.39l0 -87.73 16.53 0 0 87.73 -16.53 0z"/>
   </g>
  </g>
 </g>
</svg>
