<svg width="122" height="46" viewBox="0 0 122 46" fill="none" xmlns="http://www.w3.org/2000/svg">
<path fill-rule="evenodd" clip-rule="evenodd" d="M16.0375 12.4994H31.3291C32.022 12.4994 32.5888 13.0663 32.5888 13.76V29.3035C32.5888 29.9955 31.9686 30.2999 31.3291 30.5632L25.0192 33.1649C23.8775 33.6355 23.6545 33.6259 22.6283 33.213L16.0375 30.5632C15.3954 30.3051 14.7778 29.9963 14.7778 29.3035V13.76C14.7778 13.0663 15.3447 12.4994 16.0375 12.4994Z" fill="#FFB001"/>
<path fill-rule="evenodd" clip-rule="evenodd" d="M19.9156 18.532C20.9889 17.4586 22.0623 16.3852 23.1357 15.3119C23.4436 15.0223 23.7358 15.0494 24.0158 15.3119C24.9912 16.2873 25.9666 17.2627 26.942 18.2381C27.3654 18.7393 27.3593 19.0954 26.6769 19.2266C24.6535 19.2266 22.6309 19.2266 20.6075 19.2266C20.0048 19.2152 19.5796 19.0936 19.9156 18.5311V18.532Z" fill="#2B2A29"/>
<path fill-rule="evenodd" clip-rule="evenodd" d="M13.6179 24.9172L18.3812 20.118L23.5076 25.2444L28.6698 20.0813L33.4873 24.8997H28.7433L23.6983 29.9438L18.6717 24.9172H13.6179Z" fill="#2B2A29"/>
<path d="M62.4686 29.4426H62.8719V32.3767H62.4686V32.144C62.2595 32.3338 62.0155 32.4283 61.7373 32.4283C61.5081 32.4283 61.3034 32.3644 61.124 32.2367C60.9447 32.109 60.8091 31.9375 60.7181 31.7232C60.6595 31.5824 60.6289 31.4389 60.6289 31.2911C60.6289 30.9884 60.7391 30.7251 60.9596 30.502C61.18 30.2789 61.4416 30.1678 61.7452 30.1678C62.0207 30.1678 62.2622 30.2675 62.4695 30.467V29.4435L62.4686 29.4426ZM61.7653 30.5659C61.502 30.5659 61.3016 30.6743 61.1643 30.8913C61.0829 31.019 61.0418 31.1555 61.0418 31.3016C61.0418 31.5106 61.11 31.6874 61.2448 31.8299C61.3804 31.9725 61.5518 32.0443 61.7609 32.0443C62.0811 32.0443 62.3015 31.8991 62.424 31.6077C62.4634 31.5141 62.4826 31.4144 62.4826 31.3086C62.4826 31.1581 62.4459 31.0216 62.3715 30.8983C62.2937 30.7653 62.1878 30.6717 62.0548 30.6175C61.9717 30.5833 61.8746 30.5659 61.7635 30.5659H61.7653ZM64.3354 30.1669C64.6652 30.1669 64.9399 30.2877 65.1595 30.5291C65.3546 30.7434 65.4517 31.0015 65.4517 31.3051C65.4517 31.6182 65.3441 31.8833 65.1289 32.1011C64.9128 32.319 64.6486 32.4283 64.3363 32.4283C64.0258 32.4283 63.7607 32.319 63.542 32.0994C63.3224 31.8798 63.2131 31.6156 63.2131 31.3051C63.2131 31.0068 63.3119 30.7496 63.5088 30.5326C63.7301 30.2885 64.0065 30.1669 64.3363 30.1669H64.3354ZM64.3354 30.5659C64.0223 30.5659 63.8036 30.7189 63.6776 31.0243C63.6435 31.1074 63.626 31.2027 63.626 31.3086C63.626 31.5176 63.6925 31.6917 63.8237 31.8291C63.9549 31.9673 64.1264 32.0364 64.3354 32.0364C64.5988 32.0364 64.7973 31.9288 64.9303 31.7145C65.0064 31.5911 65.0449 31.4555 65.0449 31.3086C65.0449 31.1012 64.9776 30.9263 64.8437 30.7819C64.7099 30.6376 64.5402 30.5659 64.3354 30.5659ZM65.946 29.391C66.0203 29.391 66.0868 29.4207 66.1454 29.4802C66.2049 29.5388 66.2346 29.6053 66.2346 29.6797C66.2346 29.7532 66.2049 29.8196 66.1454 29.8791C66.0868 29.9377 66.0203 29.9684 65.946 29.9684C65.8725 29.9684 65.806 29.9386 65.7483 29.8791C65.6905 29.8196 65.6617 29.7532 65.6617 29.6797C65.6617 29.6053 65.6905 29.5388 65.7483 29.4802C65.806 29.4216 65.8725 29.391 65.946 29.391ZM65.7465 32.3767V30.2186H66.1533V32.3767H65.7465ZM66.5408 32.3767V30.2186H66.9441V30.4329C67.0377 30.3218 67.1646 30.2448 67.3247 30.2002C67.4034 30.1783 67.4821 30.1669 67.5608 30.1669C67.8565 30.1669 68.0717 30.2973 68.2073 30.5589C68.3228 30.3865 68.4855 30.2684 68.6946 30.2037C68.776 30.1792 68.8556 30.1669 68.9352 30.1669C69.3315 30.1669 69.572 30.3865 69.6551 30.8248C69.6796 30.9525 69.6919 31.0794 69.6919 31.2053V32.3767H69.2781L69.2667 30.9464C69.2667 30.8747 69.2501 30.8073 69.2186 30.7434C69.1626 30.6253 69.0489 30.5659 68.8792 30.5659C68.6561 30.5659 68.4995 30.663 68.4085 30.858C68.3447 30.9936 68.3132 31.2123 68.3132 31.5159V32.3767H67.9073V31.2753L67.8959 30.9945C67.8933 30.9035 67.8775 30.8283 67.8478 30.7697C67.8032 30.6341 67.6903 30.5667 67.5084 30.5667C67.1313 30.5667 66.9432 30.8624 66.9432 31.4538V32.3776H66.54L66.5408 32.3767ZM71.1152 30.1669C71.4459 30.1669 71.7197 30.2877 71.9392 30.5291C72.1343 30.7434 72.2314 31.0015 72.2314 31.3051C72.2314 31.6182 72.1238 31.8833 71.9077 32.1011C71.6925 32.319 71.4284 32.4283 71.1152 32.4283C70.8046 32.4283 70.5396 32.319 70.3209 32.0994C70.1013 31.8798 69.9919 31.6156 69.9919 31.3051C69.9919 31.0068 70.0908 30.7496 70.2876 30.5326C70.5098 30.2885 70.7854 30.1669 71.1152 30.1669ZM71.1152 30.5659C70.802 30.5659 70.5833 30.7189 70.4573 31.0243C70.4232 31.1074 70.4057 31.2027 70.4057 31.3086C70.4057 31.5176 70.4713 31.6917 70.6034 31.8291C70.7355 31.9673 70.9061 32.0364 71.1152 32.0364C71.3794 32.0364 71.5771 31.9288 71.71 31.7145C71.7861 31.5911 71.8246 31.4555 71.8246 31.3086C71.8246 31.1012 71.7582 30.9263 71.6234 30.7819C71.4896 30.6376 71.3199 30.5659 71.1152 30.5659ZM74.2146 32.1501L73.3582 30.2186H73.7947L74.4333 31.6585L75.0588 30.2186H75.4944L74.2303 33.1124H73.7947L74.2146 32.1501ZM76.6693 30.1669C76.9991 30.1669 77.2738 30.2877 77.4934 30.5291C77.6885 30.7434 77.7856 31.0015 77.7856 31.3051C77.7856 31.6182 77.678 31.8833 77.4627 32.1011C77.2475 32.319 76.9834 32.4283 76.6702 32.4283C76.3596 32.4283 76.0946 32.319 75.8759 32.0994C75.6563 31.8798 75.5469 31.6156 75.5469 31.3051C75.5469 31.0068 75.6449 30.7496 75.8426 30.5326C76.0648 30.2885 76.3404 30.1669 76.6702 30.1669H76.6693ZM76.6693 30.5659C76.3561 30.5659 76.1374 30.7189 76.0115 31.0243C75.9765 31.1074 75.9598 31.2027 75.9598 31.3086C75.9598 31.5176 76.0254 31.6917 76.1575 31.8291C76.2896 31.9673 76.4602 32.0364 76.6693 32.0364C76.9326 32.0364 77.1312 31.9288 77.2642 31.7145C77.3403 31.5911 77.3788 31.4555 77.3788 31.3086C77.3788 31.1012 77.3114 30.9263 77.1776 30.7819C77.0437 30.6376 76.874 30.5659 76.6693 30.5659ZM78.118 32.3767V30.2186H78.5248V30.4626C78.7312 30.2649 78.9665 30.1669 79.2307 30.1669C79.7556 30.1669 80.0181 30.5344 80.0181 31.2683V32.3767H79.6148V31.1388C79.6095 31.1021 79.6078 31.0759 79.6078 31.061C79.6078 30.9053 79.5684 30.7819 79.4923 30.6892C79.4153 30.5973 79.3016 30.5501 79.1502 30.5501C79.0033 30.5501 78.8782 30.5947 78.775 30.6848C78.6709 30.7749 78.5965 30.8913 78.551 31.0339C78.5361 31.0855 78.5274 31.152 78.5256 31.2333V31.5623V32.3749H78.1189L78.118 32.3767ZM80.5867 29.391C80.661 29.391 80.7275 29.4207 80.7861 29.4802C80.8456 29.5388 80.8754 29.6053 80.8754 29.6797C80.8754 29.7532 80.8456 29.8196 80.7861 29.8791C80.7275 29.9377 80.661 29.9684 80.5867 29.9684C80.5132 29.9684 80.4476 29.9386 80.389 29.8791C80.3312 29.8196 80.3024 29.7532 80.3024 29.6797C80.3024 29.6053 80.3312 29.5388 80.389 29.4802C80.4476 29.4216 80.5132 29.391 80.5867 29.391ZM80.3872 32.3767V30.2186H80.794V32.3767H80.3872ZM81.1815 32.3767V30.2186H81.5883V30.4626C81.7948 30.2649 82.0301 30.1669 82.2943 30.1669C82.8192 30.1669 83.0816 30.5344 83.0816 31.2683V32.3767H82.6783V31.1388C82.6731 31.1021 82.6713 31.0759 82.6713 31.061C82.6713 30.9053 82.632 30.7819 82.5559 30.6892C82.4789 30.5973 82.3651 30.5501 82.2138 30.5501C82.0668 30.5501 81.9417 30.5947 81.8385 30.6848C81.7344 30.7749 81.6601 30.8913 81.6146 31.0339C81.5997 31.0855 81.5909 31.152 81.5892 31.2333V31.5623V32.3749H81.1824L81.1815 32.3767ZM84.4979 30.1669C84.7682 30.1669 85.0088 30.264 85.217 30.4591V30.2186H85.6308V31.8964C85.6308 32.1799 85.6045 32.3942 85.5529 32.5394C85.4786 32.7485 85.3439 32.9077 85.1462 33.0162C84.9686 33.1142 84.7621 33.164 84.5259 33.164C83.9984 33.164 83.6144 32.9051 83.3729 32.3881H83.813C83.9634 32.6496 84.1961 32.78 84.511 32.78C84.735 32.78 84.9091 32.7222 85.0316 32.6076C85.1549 32.493 85.2161 32.3251 85.2161 32.1038C85.0018 32.2857 84.7604 32.3767 84.4918 32.3767C84.1909 32.3767 83.9319 32.27 83.7141 32.0556C83.4963 31.8413 83.3869 31.5832 83.3869 31.2832C83.3869 30.8869 83.5628 30.5737 83.9144 30.3445C84.0973 30.2264 84.2906 30.1669 84.497 30.1669H84.4979ZM84.5338 30.5659C84.2608 30.5659 84.0544 30.6735 83.9162 30.8878C83.8348 31.0129 83.7946 31.1502 83.7946 31.2981C83.7946 31.5071 83.8619 31.6742 83.9975 31.7984C84.1331 31.9227 84.3063 31.9848 84.518 31.9848C84.735 31.9848 84.9082 31.9218 85.0394 31.7958C85.1698 31.6707 85.2354 31.4993 85.2354 31.2823C85.2354 31.0706 85.1706 30.8983 85.0412 30.7653C84.9117 30.6323 84.742 30.5659 84.5329 30.5659H84.5338ZM86.1968 29.391C86.2703 29.391 86.3368 29.4207 86.3962 29.4802C86.4549 29.5388 86.4846 29.6053 86.4846 29.6797C86.4846 29.7532 86.4549 29.8196 86.3962 29.8791C86.3368 29.9377 86.2703 29.9684 86.1968 29.9684C86.1224 29.9684 86.0568 29.9386 85.9991 29.8791C85.9413 29.8196 85.9125 29.7532 85.9125 29.6797C85.9125 29.6053 85.9413 29.5388 85.9991 29.4802C86.0568 29.4216 86.1224 29.391 86.1968 29.391ZM85.9973 32.3767V30.2186H86.4032V32.3767H85.9973ZM86.6289 30.5956V30.2186H88.3138L87.1757 31.9997H88.2141V32.3767H86.4566L87.5947 30.5956H86.6289ZM90.1544 29.4426H90.5568V32.3767H90.1544V32.144C89.9453 32.3338 89.7013 32.4283 89.4231 32.4283C89.1939 32.4283 88.9892 32.3644 88.8098 32.2367C88.6296 32.109 88.4949 31.9375 88.4039 31.7232C88.3444 31.5824 88.3147 31.4389 88.3147 31.2911C88.3147 30.9884 88.4249 30.7251 88.6454 30.502C88.8658 30.2789 89.1274 30.1678 89.4309 30.1678C89.7065 30.1678 89.9479 30.2675 90.1553 30.467V29.4435L90.1544 29.4426ZM89.4502 30.5659C89.1869 30.5659 88.9874 30.6743 88.8501 30.8913C88.7687 31.019 88.7276 31.1555 88.7276 31.3016C88.7276 31.5106 88.795 31.6874 88.9306 31.8299C89.0661 31.9725 89.2376 32.0443 89.4467 32.0443C89.766 32.0443 89.9873 31.8991 90.1098 31.6077C90.1492 31.5141 90.1693 31.4144 90.1693 31.3086C90.1693 31.1581 90.1325 31.0216 90.0582 30.8983C89.9803 30.7653 89.8736 30.6717 89.7415 30.6175C89.6575 30.5833 89.5613 30.5659 89.4502 30.5659ZM92.7447 30.2186H93.148V32.3767H92.7447V32.144C92.5356 32.3338 92.2907 32.4283 92.0099 32.4283C91.7019 32.4283 91.4412 32.3155 91.2287 32.0898C91.0152 31.8649 90.9085 31.5972 90.9085 31.2902C90.9085 30.9823 91.017 30.7181 91.2339 30.4976C91.4509 30.2772 91.7115 30.1669 92.0169 30.1669C92.295 30.1669 92.5382 30.2667 92.7447 30.4661V30.2186ZM92.0387 30.5659C91.7745 30.5659 91.5742 30.6743 91.436 30.8913C91.3546 31.019 91.3144 31.1555 91.3144 31.3016C91.3144 31.5106 91.3826 31.6874 91.5191 31.8299C91.6556 31.9725 91.8288 32.0443 92.0387 32.0443C92.2531 32.0443 92.4271 31.9752 92.5619 31.8378C92.6966 31.6996 92.7631 31.5238 92.7631 31.3094C92.7631 31.0899 92.6966 30.9114 92.5636 30.7732C92.4306 30.635 92.2557 30.5659 92.0387 30.5659Z" fill="#2B2A29"/>
<path d="M46.1606 23.4755V15.8009H47.5936V16.5628C47.9269 16.1683 48.3774 15.8927 48.9469 15.7353C49.2277 15.6565 49.5076 15.6172 49.7885 15.6172C50.84 15.6172 51.6063 16.0817 52.0883 17.0107C52.4995 16.3975 53.0786 15.9767 53.8231 15.7484C54.1126 15.6609 54.3969 15.6172 54.6769 15.6172C56.087 15.6172 56.9417 16.3966 57.2392 17.9564C57.3266 18.4122 57.3704 18.8627 57.3704 19.3106V23.4764H55.899L55.8596 18.3903C55.8596 18.1357 55.8027 17.8952 55.689 17.6677C55.4896 17.2469 55.0871 17.037 54.4844 17.037C53.6918 17.037 53.1328 17.3834 52.8083 18.0754C52.5835 18.5574 52.4689 19.3368 52.4689 20.4146V23.4764H51.0228V19.5599L50.9834 18.5618C50.9747 18.2372 50.9178 17.9704 50.8128 17.7605C50.6554 17.2784 50.2521 17.0379 49.6039 17.0379C48.2637 17.0379 47.5936 18.0894 47.5936 20.1915V23.4773H46.1606V23.4755ZM64.9654 20.5056L66.1893 21.1232C65.3136 22.8142 64.0556 23.6593 62.418 23.6593C61.2877 23.6593 60.3412 23.2761 59.5793 22.5098C58.8173 21.7426 58.4359 20.7943 58.4359 19.6649C58.4359 18.7009 58.7333 17.8383 59.3291 17.0755C60.091 16.1027 61.1032 15.6172 62.3646 15.6172C63.6523 15.6172 64.6951 16.1167 65.4929 17.1157C66.0537 17.8164 66.3345 18.7717 66.3345 19.9807H59.9082C59.9082 20.6202 60.1514 21.1652 60.6395 21.6166C61.1259 22.068 61.691 22.2937 62.3305 22.2937C62.9368 22.2937 63.4581 22.1266 63.899 21.7942C64.2586 21.5221 64.6155 21.0935 64.9663 20.5065L64.9654 20.5056ZM60.7357 17.6362C60.4908 17.8532 60.28 18.1926 60.105 18.6528H64.7047C64.3102 17.575 63.5351 17.0361 62.3786 17.0361C61.7479 17.0361 61.2003 17.2356 60.7357 17.6362ZM71.1223 15.6172C72.0846 15.6172 72.9384 15.9627 73.6802 16.6556V15.8009H75.1525V21.7679C75.1525 22.7757 75.0607 23.5377 74.8769 24.0547C74.6136 24.8 74.1316 25.3642 73.4309 25.75C72.8002 26.1008 72.0636 26.2758 71.2229 26.2758C69.3482 26.2758 67.9809 25.3555 67.1227 23.5158H68.6868C69.2213 24.4448 70.0498 24.9093 71.1704 24.9093C71.9673 24.9093 72.5858 24.7055 73.0232 24.2979C73.4615 23.8902 73.6802 23.2927 73.6802 22.5036C72.9183 23.1519 72.0592 23.4764 71.1048 23.4764C70.0358 23.4764 69.1137 23.0959 68.3387 22.333C67.5627 21.5711 67.1752 20.6552 67.1752 19.5862C67.1752 18.176 67.7998 17.0632 69.0499 16.2479C69.6981 15.8271 70.3883 15.6172 71.1214 15.6172H71.1223ZM71.25 17.0361C70.2772 17.0361 69.5459 17.4175 69.0551 18.1795C68.7656 18.6265 68.6212 19.1129 68.6212 19.6387C68.6212 20.3831 68.8627 20.9771 69.3438 21.4198C69.8258 21.8615 70.4434 22.0837 71.1966 22.0837C71.9673 22.0837 72.5858 21.8598 73.0495 21.4136C73.514 20.9666 73.7458 20.3577 73.7458 19.587C73.7458 18.8338 73.5157 18.2206 73.0565 17.7473C72.5963 17.2741 71.9945 17.0379 71.2491 17.0379L71.25 17.0361ZM82.8149 15.8009H84.247V23.4755H82.8149V22.648C82.0705 23.3225 81.1983 23.6601 80.1992 23.6601C79.104 23.6601 78.1776 23.2595 77.42 22.4581C76.6624 21.6568 76.2828 20.7077 76.2828 19.6124C76.2828 18.5172 76.6685 17.5776 77.4392 16.7938C78.2099 16.01 79.139 15.6172 80.2255 15.6172C81.2158 15.6172 82.0783 15.9724 82.814 16.6818V15.8009H82.8149ZM80.3051 17.0361C79.3673 17.0361 78.6535 17.4219 78.1627 18.1926C77.8731 18.6484 77.7288 19.1348 77.7288 19.6518C77.7288 20.3962 77.972 21.0226 78.4584 21.5309C78.9448 22.0391 79.5598 22.2928 80.3051 22.2928C81.0671 22.2928 81.6873 22.0479 82.1649 21.5571C82.6426 21.0663 82.8814 20.44 82.8814 19.6771C82.8814 18.8977 82.6452 18.2626 82.1719 17.7718C81.6987 17.2811 81.0767 17.0361 80.306 17.0361H80.3051ZM86.5871 15.8009V13.159H88.0585V15.8009H89.4905V17.1157H88.0585V23.4764H86.5871V17.1157H85.3387V15.8009H86.5871ZM96.5747 15.8009H98.0076V23.4755H96.5747V22.648C95.8302 23.3225 94.9581 23.6601 93.9599 23.6601C92.8646 23.6601 91.9382 23.2595 91.1798 22.4581C90.4222 21.6568 90.0434 20.7077 90.0434 19.6124C90.0434 18.5172 90.4292 17.5776 91.1999 16.7938C91.9706 16.01 92.8996 15.6172 93.9861 15.6172C94.9764 15.6172 95.839 15.9724 96.5747 16.6818V15.8009ZM94.0649 17.0361C93.128 17.0361 92.4133 17.4219 91.9225 18.1926C91.6329 18.6484 91.4886 19.1348 91.4886 19.6518C91.4886 20.3962 91.7318 21.0226 92.2182 21.5309C92.7046 22.0391 93.3204 22.2928 94.0649 22.2928C94.8268 22.2928 95.4471 22.0479 95.9247 21.5571C96.4024 21.0663 96.6412 20.44 96.6412 19.6771C96.6412 18.8977 96.405 18.2626 95.9317 17.7718C95.4584 17.2811 94.8365 17.0361 94.0658 17.0361H94.0649ZM101.111 19.4392L98.4853 15.8009H100.229L101.988 18.2696L103.751 15.8009H105.5L102.867 19.4523L105.813 23.4764H104.037L101.989 20.6709L99.9672 23.4764H98.2176L101.111 19.4401V19.4392ZM106.589 12.8572C106.852 12.8572 107.089 12.963 107.299 13.173C107.51 13.3829 107.615 13.62 107.615 13.8824C107.615 14.1449 107.51 14.382 107.299 14.5919C107.089 14.8027 106.852 14.9077 106.589 14.9077C106.326 14.9077 106.092 14.8027 105.886 14.5919C105.681 14.382 105.577 14.1449 105.577 13.8824C105.577 13.6191 105.681 13.3829 105.886 13.173C106.092 12.963 106.326 12.8572 106.589 12.8572ZM105.88 23.4764V15.8018H107.326V23.4764H105.88Z" fill="#2B2A29"/>
</svg>
