<svg width="20" height="20" viewBox="0 0 20 20" fill="none" xmlns="http://www.w3.org/2000/svg">
<g clip-path="url(#clip0_50_22)">
<path d="M20 10C20 4.47687 15.5224 0 9.99998 0C4.47686 0 0 4.47687 0 10C0 14.9915 3.65708 19.1282 8.43764 19.8782V12.89H5.89885V9.99926H8.43764V7.79609C8.43764 5.28997 9.93092 3.9051 12.215 3.9051C13.3088 3.9051 14.4538 4.10039 14.4538 4.10039V6.56122H13.193C11.9507 6.56122 11.5631 7.332 11.5631 8.12282V9.99851H14.3365L13.8932 12.8893H11.5631V19.8775C16.3436 19.1275 20.0007 14.99 20.0007 9.99926L20 10Z" fill="#010201"/>
<path d="M13.8924 12.8908L14.3357 10H11.5623V8.1243C11.5623 7.33348 11.9499 6.56271 13.1922 6.56271H14.453V4.10188C14.453 4.10188 13.3088 3.90659 12.2142 3.90659C9.93014 3.90659 8.43686 5.29071 8.43686 7.79758V10.0007H5.89807V12.8915H8.43686V19.8797C8.94626 19.9599 9.46753 20.0015 9.9992 20.0015C10.5309 20.0015 11.0529 19.9599 11.5615 19.8797V12.8915H13.8917L13.8924 12.8908Z" fill="#EAEAEA"/>
</g>
<defs>
<clipPath id="clip0_50_22">
<rect width="20" height="20" fill="white"/>
</clipPath>
</defs>
</svg>
