<svg width="20" height="20" viewBox="0 0 20 20" fill="none" xmlns="http://www.w3.org/2000/svg">
<path d="M9.99969 0C15.5225 0 19.9994 4.47693 19.9994 9.99969C19.9994 15.5225 15.5225 19.9994 9.99969 19.9994C4.47693 19.9994 0 15.5225 0 9.99969C0 4.47693 4.47693 0 9.99969 0Z" fill="#010201"/>
<path d="M9.99964 3.70391C8.2893 3.70391 8.07535 3.71127 7.40348 3.74192C6.73344 3.77257 6.27551 3.87862 5.8752 4.03433C5.46141 4.19556 5.11014 4.41073 4.76011 4.76077C4.41007 5.11081 4.19489 5.46207 4.03367 5.87586C3.87796 6.27617 3.77129 6.7341 3.74125 7.40414C3.7106 8.07602 3.70325 8.28997 3.70325 10.0003C3.70325 11.71 3.7106 11.9246 3.74125 12.5965C3.77191 13.2665 3.87857 13.7244 4.03367 14.1248C4.19428 14.5385 4.41007 14.8898 4.76011 15.2399C5.11014 15.5899 5.46141 15.8051 5.8752 15.9663C6.27551 16.122 6.73344 16.228 7.40348 16.2587C8.07474 16.2894 8.2893 16.2967 9.99964 16.2967C11.7094 16.2967 11.9239 16.2894 12.5952 16.2587C13.2652 16.228 13.7232 16.1214 14.1235 15.9663C14.5373 15.8051 14.8885 15.5899 15.2386 15.2399C15.5886 14.8898 15.8038 14.5385 15.965 14.1248C16.1207 13.7244 16.2274 13.2665 16.2574 12.5965C16.2881 11.9246 16.2954 11.7107 16.2954 10.0003C16.2954 8.29058 16.2881 8.07602 16.2574 7.40414C16.2268 6.7341 16.1201 6.27617 15.965 5.87586C15.8044 5.46146 15.5886 5.11081 15.2386 4.76077C14.8885 4.41073 14.5373 4.19556 14.1235 4.03433C13.7232 3.87862 13.2652 3.77257 12.5952 3.74192C11.9233 3.71127 11.7094 3.70391 9.99964 3.70391ZM9.99964 4.83862C11.6806 4.83862 11.8798 4.84475 12.5437 4.87541C13.1573 4.9036 13.4908 5.00598 13.7127 5.09242C14.0064 5.20644 14.2167 5.34314 14.4367 5.56322C14.6568 5.7833 14.7935 5.99357 14.9075 6.28721C14.994 6.50912 15.0963 6.84261 15.1245 7.45625C15.1546 8.12016 15.1613 8.31939 15.1613 10.0003C15.1613 11.6812 15.1552 11.8805 15.1245 12.5444C15.0963 13.158 14.994 13.4915 14.9075 13.7134C14.7935 14.0071 14.6568 14.2173 14.4367 14.4374C14.2167 14.6575 14.0064 14.7942 13.7127 14.9082C13.4908 14.9946 13.1573 15.097 12.5437 15.1252C11.8798 15.1559 11.6806 15.162 9.99964 15.162C8.31811 15.162 8.11949 15.1559 7.45558 15.1252C6.84194 15.0976 6.50846 14.9946 6.28654 14.9082C5.9929 14.7942 5.78263 14.6575 5.56256 14.4374C5.34248 14.2173 5.20578 14.0071 5.09175 13.7134C5.00532 13.4915 4.90294 13.158 4.87474 12.5444C4.8447 11.8805 4.83796 11.6812 4.83796 10.0003C4.83796 8.31939 4.84409 8.12016 4.87474 7.45625C4.90294 6.84261 5.00532 6.50912 5.09175 6.28721C5.20578 5.99357 5.34248 5.78391 5.56256 5.56322C5.78263 5.34314 5.9929 5.20644 6.28654 5.09242C6.50846 5.00598 6.84194 4.9036 7.45558 4.87541C8.11949 4.84537 8.31873 4.83862 9.99964 4.83862Z" fill="#EAEAEA"/>
<path d="M9.9997 12.0987C8.84047 12.0987 7.9007 11.1589 7.9007 9.99969C7.9007 8.84046 8.84047 7.90069 9.9997 7.90069C11.1589 7.90069 12.0987 8.84046 12.0987 9.99969C12.0987 11.1589 11.1589 12.0987 9.9997 12.0987ZM9.9997 6.76659C8.21396 6.76659 6.7666 8.21394 6.7666 9.99969C6.7666 11.7854 8.21396 13.2328 9.9997 13.2328C11.7855 13.2328 13.2328 11.7854 13.2328 9.99969C13.2328 8.21394 11.7855 6.76659 9.9997 6.76659Z" fill="#EAEAEA"/>
<path d="M14.1162 6.63908C14.1162 7.05655 13.7778 7.39433 13.361 7.39433C12.9435 7.39433 12.6051 7.05594 12.6051 6.63908C12.6051 6.22161 12.9435 5.88322 13.361 5.88322C13.7784 5.88322 14.1162 6.22161 14.1162 6.63908Z" fill="#EAEAEA"/>
</svg>
