<svg width="20" height="20" viewBox="0 0 20 20" fill="none" xmlns="http://www.w3.org/2000/svg">
<path d="M10.0001 0C4.47739 0 0 4.47772 0 10.0002C0 15.5213 4.47739 20 10.0001 20C15.5229 20 20.0003 15.5218 20.0003 10.0002C20.0003 4.47772 15.5229 0 10.0001 0Z" fill="#010201"/>
<path d="M14.8676 5.93807C14.8292 5.82546 14.7839 5.79607 14.7126 5.76767C14.5567 5.70987 14.2926 5.79756 14.2926 5.79756C14.2926 5.79756 4.94668 9.15722 4.41255 9.52941C4.29745 9.60963 4.25908 9.65696 4.24015 9.71177C4.14797 9.97534 4.43547 10.0924 4.43547 10.0924L6.84457 10.8777C6.84457 10.8777 6.93425 10.8911 6.96614 10.8702C7.51423 10.5234 12.4794 7.38895 12.7659 7.28382C12.8113 7.27037 12.8446 7.28532 12.8357 7.31621C12.7211 7.71929 8.40811 11.5518 8.40811 11.5518C8.40811 11.5518 8.39167 11.5727 8.38121 11.5961L8.37573 11.5931L8.15101 13.9827C8.15101 13.9827 8.05684 14.7146 8.78879 13.9827C9.30548 13.4655 9.80474 13.0331 10.0549 12.8243C10.883 13.3963 11.7744 14.0285 12.1595 14.3589C12.3529 14.5248 12.5143 14.5517 12.6473 14.5472C13.0126 14.5338 13.1142 14.1322 13.1142 14.1322C13.1142 14.1322 14.8173 7.27784 14.8741 6.35908C14.8795 6.2689 14.8875 6.2126 14.888 6.15032C14.889 6.06462 14.881 5.97843 14.8671 5.93857L14.8676 5.93807Z" fill="#EAEAEA"/>
</svg>
