<svg width="20" height="20" viewBox="0 0 20 20" fill="none" xmlns="http://www.w3.org/2000/svg">
<g clip-path="url(#clip0_50_16)">
<path fill-rule="evenodd" clip-rule="evenodd" d="M20 10C20 15.5228 15.5227 20 9.99998 20C4.47722 20 0 15.5228 0 10C0 4.47723 4.47722 0 9.99998 0C15.5227 0 20 4.47723 20 10Z" fill="#010201"/>
<path d="M14.3301 11.1432C14.0048 11.1432 13.7408 10.8792 13.7408 10.5538C13.7408 10.2285 14.0048 9.96451 14.3301 9.96451C14.6555 9.96451 14.9194 10.2285 14.9194 10.5538C14.9194 10.8792 14.6555 11.1432 14.3301 11.1432ZM11.4589 11.1432C11.1336 11.1432 10.8696 10.8792 10.8696 10.5538C10.8696 10.2285 11.1336 9.96451 11.4589 9.96451C11.7843 9.96451 12.0482 10.2285 12.0482 10.5538C12.0482 10.8792 11.7843 11.1432 11.4589 11.1432ZM17.1643 11.413C17.1155 11.1868 17.0889 10.9539 17.015 10.7365C16.7148 9.8462 16.1225 9.18811 15.3246 8.71635C14.2791 8.09819 13.1448 7.90964 11.9529 8.10559C10.8836 8.28083 9.96159 8.74667 9.23399 9.56891C8.2476 10.684 8.10415 12.2501 8.9116 13.4982C9.71536 14.739 10.9214 15.3076 12.3521 15.4592C13.0302 15.5309 13.6942 15.4222 14.3501 15.2529C14.41 15.2374 14.4883 15.2381 14.5408 15.2647C14.8647 15.4259 15.1849 15.5967 15.5051 15.7653C15.6256 15.8282 15.7461 15.8932 15.8873 15.9686C15.8748 15.9235 15.8696 15.9028 15.8629 15.8829C15.7476 15.5235 15.6352 15.1634 15.5154 14.8055C15.4917 14.7345 15.494 14.6924 15.5612 14.648C15.6515 14.5889 15.735 14.5186 15.8193 14.4499C16.4168 13.9626 16.8567 13.3659 17.0652 12.6153C17.1192 12.4224 17.1451 12.222 17.1835 12.0253C17.1835 11.8456 17.1835 11.6659 17.1835 11.4862C17.1769 11.4618 17.168 11.4374 17.1628 11.413H17.1643Z" fill="#EAEAEA"/>
<path d="M6.25851 7.66711C5.85035 7.66711 5.51909 7.33584 5.51909 6.92768C5.51909 6.51952 5.85035 6.18825 6.25851 6.18825C6.66668 6.18825 6.99794 6.51952 6.99794 6.92768C6.99794 7.33584 6.66668 7.66711 6.25851 7.66711ZM9.85877 6.18825C10.2669 6.18825 10.5982 6.51952 10.5982 6.92768C10.5982 7.33584 10.2669 7.66711 9.85877 7.66711C9.45061 7.66711 9.11935 7.33584 9.11935 6.92768C9.11935 6.51952 9.44987 6.18825 9.85877 6.18825ZM8.19802 10.9864C8.41985 10.0081 8.98847 9.26205 9.78927 8.68752C10.7483 7.99985 11.836 7.73218 13.005 7.75658C13.079 7.75806 13.1529 7.75658 13.2283 7.75658C13.2291 7.74105 13.2328 7.72922 13.2298 7.71887C13.2054 7.62126 13.1832 7.52218 13.1529 7.42679C12.7521 6.15942 11.9092 5.26323 10.7476 4.67391C9.32343 3.95223 7.82535 3.85167 6.29992 4.30568C5.0991 4.66356 4.11344 5.33865 3.43317 6.4086C2.91927 7.2168 2.71445 8.10263 2.86086 9.05649C3.00283 9.98077 3.43835 10.755 4.10679 11.399C4.34562 11.629 4.6096 11.8323 4.86913 12.0534C4.7072 12.5362 4.54083 13.0346 4.36411 13.5626C4.4447 13.5211 4.49129 13.4975 4.53713 13.4731C5.02515 13.2128 5.51465 12.9547 6.00045 12.6908C6.08549 12.6442 6.15795 12.6361 6.25186 12.6649C6.83009 12.8446 7.42459 12.9289 8.02944 12.9414C8.11743 12.9437 8.20468 12.9414 8.30672 12.9414C8.28749 12.8734 8.27492 12.8276 8.26162 12.7817C8.08711 12.1887 8.06123 11.5875 8.19802 10.9857V10.9864Z" fill="#EAEAEA"/>
</g>
<defs>
<clipPath id="clip0_50_16">
<rect width="20" height="20" fill="white"/>
</clipPath>
</defs>
</svg>
