<svg width="20" height="20" viewBox="0 0 20 20" fill="none" xmlns="http://www.w3.org/2000/svg">
<g clip-path="url(#clip0_50_27)">
<path d="M20 9.99964C20 15.5225 15.5226 19.9993 10.0004 19.9993C4.47747 19.9993 0.000732422 15.5218 0.000732422 9.99964C0.000732422 4.47674 4.47819 0 10.0004 0C15.5233 0 20 4.47746 20 9.99964Z" fill="#010201"/>
<path d="M8.66645 11.9999V8.00015L12.1301 10.0004L8.66645 12.0006V11.9999ZM16.3874 6.79066C16.2342 6.21722 15.7823 5.76537 15.2089 5.61212C14.1692 5.33367 9.99968 5.33367 9.99968 5.33367C9.99968 5.33367 5.83017 5.33367 4.79049 5.61212C4.21704 5.76537 3.7652 6.21722 3.61194 6.79066C3.3335 7.83034 3.3335 9.99964 3.3335 9.99964C3.3335 9.99964 3.3335 12.1689 3.61194 13.2086C3.7652 13.7821 4.21704 14.2339 4.79049 14.3872C5.83017 14.6656 9.99968 14.6656 9.99968 14.6656C9.99968 14.6656 14.1692 14.6656 15.2089 14.3872C15.7823 14.2339 16.2342 13.7821 16.3874 13.2086C16.6659 12.1689 16.6659 9.99964 16.6659 9.99964C16.6659 9.99964 16.6659 7.83034 16.3874 6.79066Z" fill="#EAEAEA"/>
</g>
<defs>
<clipPath id="clip0_50_27">
<rect width="20" height="20" fill="white"/>
</clipPath>
</defs>
</svg>
